<?xml version="1.0" encoding="UTF-8"?>
<!DOCTYPE svg PUBLIC "-//W3C//DTD SVG 1.1//EN" "http://www.w3.org/Graphics/SVG/1.1/DTD/svg11.dtd">
<svg version="1.1" xmlns="http://www.w3.org/2000/svg" xmlns:xlink="http://www.w3.org/1999/xlink" x="0" y="0" width="60" height="60" viewBox="0, 0, 180, 180">
  <g id="Layer_1">
    <path d="M0,180 L180,180 L180,0 L0,0 z" fill="#456F3B"/>
    <path d="M118.593,119.251 C117.848,119.048 114.729,114.735 117.195,111.898 C117.605,111.432 116.368,110.059 116.706,110.032 C118.055,109.927 118.773,110.764 119.127,111.971 C119.154,112.502 119.174,113.04 119.174,113.581 C119.174,115.525 118.972,117.421 118.593,119.251 M110.984,133.275 C110.706,133.198 110.421,133.107 110.111,132.953 C108.595,132.181 108.777,133.415 108.032,133.142 C107.281,132.864 108.873,131.134 106.632,132.597 C104.402,134.057 105.005,132.372 104.031,129.9 C103.048,127.426 105.15,124.603 106.907,123.964 C109.32,123.09 110.819,122.913 111.95,122.633 C115.287,121.8 115.993,119.819 116.598,121.025 C116.713,121.25 116.823,121.465 116.924,121.667 C117.117,122.026 117.341,122.756 117.353,123.477 C115.936,127.19 113.749,130.523 110.984,133.275 M91.392,141.361 C88.677,141.361 86.06,140.967 83.583,140.243 C83.227,139.953 83.024,139.468 83.247,138.886 C84.107,136.644 86.665,135.767 88.687,135.572 C93.191,135.133 99.112,138.497 100.053,137.954 C100.999,137.412 102.903,134.935 105.697,135.039 C107.604,135.113 107.59,135.433 108.231,135.674 C103.559,139.238 97.725,141.361 91.392,141.361 M87.614,123.256 C87.232,123.881 86.187,128.553 85.487,128.009 C84.781,127.464 85.77,122.591 85.973,122.22 C87.07,120.207 89.444,120.307 87.614,123.256 M98.959,117.741 C98.411,118.228 97.007,118.05 96.304,117.502 C95.606,116.959 96.747,116.057 97.165,116.023 C98.1,115.94 99.503,117.245 98.959,117.741 M111.22,117.788 C110.92,117.677 110.656,117.392 110.429,116.711 C110.203,116.029 110.776,115.639 111.337,115.914 C111.907,116.203 112.646,117.054 112.646,117.508 C112.646,117.963 111.526,117.908 111.22,117.788 M112.401,118.641 C113.335,118.567 114.737,119.86 114.189,120.358 C113.642,120.85 112.243,120.669 111.54,120.12 C110.841,119.576 111.981,118.676 112.401,118.641 M82.6,129.719 C82.06,131.843 81.43,132.608 80.892,133.278 C80.356,133.956 78.367,134.82 77.105,134.727 C75.842,134.632 75.665,131.261 75.665,129.527 C75.665,128.927 74.818,130.704 74.375,127.095 C74.093,124.784 72.609,127.335 72.505,125.794 C72.399,124.257 71.658,124.563 70.879,123.602 C70.104,122.642 69.137,123.696 68.054,124.182 C66.977,124.661 67.42,124.913 65.888,124.43 C65.849,124.417 65.829,124.407 65.79,124.393 C64.384,121.069 63.608,117.416 63.608,113.581 C63.608,112.643 63.659,111.721 63.745,110.809 C63.798,110.716 63.852,110.627 63.917,110.55 C65.387,108.812 65.353,108.406 65.353,108.406 L66.979,107.842 C66.979,107.842 69.574,108.242 71.53,108.979 C73.14,109.582 75.676,110.948 77.151,110.347 C78.218,109.908 79.052,109.325 78.951,108.436 C78.831,107.323 77.954,107.058 76.892,107.809 C76.5,108.086 75.665,106.13 75.011,106.23 C74.357,106.327 75.821,108.527 75.266,108.62 C74.708,108.715 73.59,106.327 73.399,105.94 C73.212,105.556 72.347,104.598 71.571,105.329 C69.932,106.885 67.272,106.79 66.738,107.191 C65.111,108.408 64.682,106.79 64.717,105.805 C64.783,105.58 64.85,105.353 64.922,105.13 C65.453,104.545 67.359,104.35 68.014,104.787 C68.732,105.267 69.248,104.664 69.529,104.372 C69.813,104.088 69.713,103.626 69.534,103.243 C69.352,102.857 69.893,102.575 70.265,102.475 C70.64,102.376 71.877,101.509 72.371,101.221 C72.871,100.934 75.438,100.622 76.59,101.197 C77.74,101.777 78.796,101.304 79.362,100.638 C80.073,99.795 80.976,99.153 81.377,98.958 C81.779,98.77 80.386,97.469 79.24,98.888 C78.09,100.299 77.506,100.429 76.966,100.429 C76.427,100.429 73.22,99.63 72.824,98.616 C72.433,97.604 73.827,96.845 75.011,96.272 C76.194,95.708 79.433,95.715 80.262,95.528 C81.945,95.158 84.097,94.314 85.18,95.051 C86.26,95.776 80.653,97.053 82.496,98.048 C83.152,98.408 86.115,96.342 87.132,95.815 C89.521,94.583 84.814,94.175 85.425,91.671 C86.115,88.839 79.653,89.935 76.431,90.176 C80.752,87.408 85.882,85.797 91.392,85.797 C104.497,85.797 115.476,94.876 118.403,107.084 C118.423,107.688 118.329,108.123 118.268,108.37 C118.017,109.37 116.117,110.232 115.015,108.62 C114.735,108.214 113.543,107.089 113.583,109.013 C113.621,110.94 115.454,111.135 113.678,112.291 C111.903,113.446 111.579,113.168 110.758,113.459 C109.939,113.748 109.146,115.732 109.341,116.792 C109.54,117.853 112.072,120.748 110.193,120.629 C109.753,120.597 106.433,118.33 105.885,116.872 C105.307,115.338 104.676,113.836 104.228,112.677 C103.775,111.525 102.604,111.229 101.611,111.908 C100.623,112.585 101.886,113.26 101.176,114.707 C100.467,116.152 99.959,117.442 98.916,116.248 C96.204,113.141 92.264,114.674 91.646,111.216 C91.313,109.342 89.698,109.522 88.349,108.461 C86.992,107.405 86.238,106.831 86.009,107.596 C85.808,108.266 90.255,111.792 90.572,112.695 C91.044,114.037 89.24,115.22 87.92,115.538 C86.606,115.854 86.025,114.797 84.732,113.45 C83.438,112.104 82.87,111.141 82.782,112.198 C82.651,113.726 84.01,115.971 85.329,116.811 C86.452,117.522 87.712,117.844 87.349,118.999 C86.982,120.159 87.342,119.502 86.082,120.748 C84.82,122 84.58,122.404 84.672,124.132 C84.763,125.868 84.312,125.967 84.041,127.409 C83.771,128.851 83.145,127.603 82.6,129.719 M67.676,99.104 C67.739,99.029 67.796,98.967 67.82,98.936 C68.322,98.365 69.32,98.242 70.01,98.134 C70.701,98.016 71.624,98.365 71.735,98.824 C71.853,99.281 70.002,100.12 69.663,100.433 C68.704,101.318 67.202,103.118 66.323,103.311 C66.037,103.376 65.8,103.333 65.606,103.236 C66.184,101.796 66.874,100.412 67.676,99.104 M69.101,96.272 C69.46,95.744 70.654,94.238 70.799,94.048 C71.106,93.653 71.716,93.572 72.144,93.496 C72.567,93.414 73.131,93.653 73.199,93.97 C73.272,94.289 73.035,95.524 72.826,95.736 C72.242,96.342 70.72,97.2 69.88,97.065 C69.232,96.965 68.977,96.462 69.101,96.272 M157.415,112.687 C152.673,106.035 131.221,79.479 91.345,79.479 C51.462,79.479 30.017,106.035 25.268,112.687 C25.066,112.972 24.892,113.217 24.75,113.426 C24.892,113.641 25.066,113.885 25.268,114.173 C30.017,120.822 51.462,147.379 91.345,147.379 C131.221,147.379 152.673,120.822 157.415,114.173 C157.623,113.885 157.794,113.641 157.93,113.426 C157.794,113.217 157.623,112.972 157.415,112.687" fill="#FFFFFE"/>
    <path d="M22.721,15.099 L22.721,51.375 L16.62,51.375 L16.62,23.606 L16.566,23.606 L12.287,28.047 L12.232,28.047 L12.232,21.679 L17.849,15.099 z" fill="#FFFFFE"/>
    <path d="M42.839,22.965 L42.839,26.121 C42.839,29.17 41.181,31.203 38.666,32.007 C41.715,32.702 43.16,34.842 43.16,38.16 L43.16,43.51 C43.16,48.539 40.485,51.803 34.332,51.803 C28.124,51.803 25.927,48.272 25.927,42.761 L25.927,37.998 L31.496,37.998 L31.496,43.19 C31.496,45.331 32.242,46.719 34.332,46.719 C36.202,46.719 37.057,45.383 37.057,43.455 L37.057,37.464 C37.057,35.537 36.202,34.522 34.062,34.522 L31.496,34.522 L31.496,29.866 L33.797,29.866 C35.775,29.866 37.057,28.848 37.057,26.924 L37.057,23.017 C37.057,21.037 36.364,19.754 34.439,19.754 C32.514,19.754 31.817,21.037 31.817,23.285 L31.817,26.976 L26.249,26.976 L26.249,23.767 C26.249,18.416 28.444,14.671 34.758,14.671 C40.377,14.671 42.839,17.829 42.839,22.965" fill="#FFFFFE"/>
    <path d="M55.528,26.194 L55.528,18.854 C55.528,16.483 56.648,14.76 59.333,14.76 C62.152,14.76 62.936,16.327 62.936,18.564 L62.936,20.355 L60.608,20.355 L60.608,18.362 C60.608,17.422 60.296,16.886 59.377,16.886 C58.46,16.886 58.08,17.535 58.08,18.452 L58.08,26.596 C58.08,27.515 58.46,28.163 59.377,28.163 C60.296,28.163 60.608,27.581 60.608,26.687 L60.608,23.889 L62.936,23.889 L62.936,26.507 C62.936,28.678 62.04,30.289 59.333,30.289 C56.648,30.289 55.528,28.543 55.528,26.194" fill="#FFFFFE"/>
    <path d="M64.321,14.938 L66.872,14.938 L66.872,28.028 L69.916,28.028 L69.916,30.11 L64.321,30.11 z" fill="#FFFFFE"/>
    <path d="M71.076,30.11 L73.628,30.11 L73.628,14.939 L71.076,14.939 z" fill="#FFFFFE"/>
    <path d="M82.13,20.264 L82.063,20.264 L80.34,30.11 L79.154,30.11 L77.251,20.264 L77.207,20.264 L77.207,30.11 L75.103,30.11 L75.103,14.938 L78.08,14.938 L79.736,23.487 L79.757,23.487 L81.235,14.938 L84.457,14.938 L84.457,30.11 L82.13,30.11 z" fill="#FFFFFE"/>
    <path d="M88.705,25.299 L90.742,25.299 L89.735,19.212 L89.713,19.212 z M85.506,30.11 L88.37,14.939 L91.279,14.939 L94.166,30.11 L91.548,30.11 L91.078,27.334 L88.37,27.334 L87.922,30.11 z" fill="#FFFFFE"/>
    <path d="M93.805,14.938 L100.586,14.938 L100.586,17.02 L98.481,17.02 L98.481,30.11 L95.909,30.11 L95.909,17.02 L93.805,17.02 z" fill="#FFFFFE"/>
    <path d="M101.769,14.938 L107.856,14.938 L107.856,17.02 L104.32,17.02 L104.32,21.361 L106.849,21.361 L106.849,23.42 L104.32,23.42 L104.32,28.028 L107.856,28.028 L107.856,30.11 L101.769,30.11 z" fill="#FFFFFE"/>
    <path d="M58.326,46.551 L60.361,46.551 L59.355,40.465 L59.333,40.465 z M55.126,51.363 L57.99,36.191 L60.899,36.191 L63.786,51.363 L61.167,51.363 L60.698,48.587 L57.99,48.587 L57.543,51.363 z" fill="#FFFFFE"/>
    <path d="M64.499,47.446 L64.499,40.107 C64.499,37.735 65.618,36.013 68.304,36.013 C71.122,36.013 71.906,37.579 71.906,39.817 L71.906,41.608 L69.579,41.608 L69.579,39.615 C69.579,38.675 69.265,38.139 68.348,38.139 C67.431,38.139 67.05,38.787 67.05,39.705 L67.05,47.849 C67.05,48.768 67.431,49.416 68.348,49.416 C69.265,49.416 69.579,48.834 69.579,47.94 L69.579,45.142 L71.906,45.142 L71.906,47.76 C71.906,49.931 71.011,51.542 68.304,51.542 C65.618,51.542 64.499,49.795 64.499,47.446" fill="#FFFFFE"/>
    <path d="M72.777,36.191 L79.558,36.191 L79.558,38.273 L77.453,38.273 L77.453,51.363 L74.88,51.363 L74.88,38.273 L72.777,38.273 z" fill="#FFFFFE"/>
    <path d="M80.741,51.363 L83.292,51.363 L83.292,36.191 L80.741,36.191 z" fill="#FFFFFE"/>
    <path d="M89.937,47.849 L89.937,39.705 C89.937,38.787 89.534,38.139 88.617,38.139 C87.721,38.139 87.319,38.787 87.319,39.705 L87.319,47.849 C87.319,48.768 87.721,49.416 88.617,49.416 C89.534,49.416 89.937,48.768 89.937,47.849 M84.767,47.446 L84.767,40.107 C84.767,37.735 85.931,36.013 88.617,36.013 C91.325,36.013 92.488,37.735 92.488,40.107 L92.488,47.446 C92.488,49.795 91.325,51.542 88.617,51.542 C85.931,51.542 84.767,49.795 84.767,47.446" fill="#FFFFFE"/>
    <path d="M96.088,41.831 L96.088,51.362 L93.94,51.362 L93.94,36.191 L96.446,36.191 L99.198,44.895 L99.198,36.191 L101.325,36.191 L101.325,51.362 L99.087,51.362 z" fill="#FFFFFE"/>
  </g>
</svg>
