<?xml version="1.0" encoding="UTF-8"?>
<!DOCTYPE svg PUBLIC "-//W3C//DTD SVG 1.1//EN" "http://www.w3.org/Graphics/SVG/1.1/DTD/svg11.dtd">
<svg version="1.1" xmlns="http://www.w3.org/2000/svg" xmlns:xlink="http://www.w3.org/1999/xlink" x="0" y="0" width="60" height="60" viewBox="0, 0, 180, 180">
  <g id="Layer_1">
    <path d="M0,180 L180,180 L180,0 L0,0 z" fill="#C79932"/>
    <path d="M71.852,152.948 L71.852,155.479 C71.85,155.496 71.843,155.518 71.843,155.536 C71.843,155.558 71.85,155.577 71.852,155.596 C71.878,156.222 72.389,156.721 73.02,156.733 C73.027,156.733 73.034,156.738 73.043,156.738 C73.051,156.738 73.062,156.733 73.072,156.733 L102.764,156.733 C102.771,156.733 102.78,156.738 102.79,156.738 C102.798,156.738 102.807,156.733 102.815,156.733 C103.464,156.721 103.981,156.194 103.987,155.545 C103.987,155.543 103.991,155.541 103.991,155.541 L103.987,155.528 L103.987,152.663 C120.701,147.184 133.222,133.637 135.977,117.128 C135.983,117.093 135.988,117.061 135.993,117.031 C136.003,116.972 136.009,116.92 136.009,116.864 C136.009,116.2 135.474,115.664 134.809,115.664 L40.742,115.664 L40.177,115.664 C39.508,115.664 38.973,116.2 38.973,116.864 L39.035,117.404 C41.928,134.07 54.793,147.693 71.852,152.948" fill="#FFFFFE"/>
    <path d="M103.959,75.276 C103.569,75.831 94.426,88.993 104.163,99.636 C108.629,104.521 108.241,108.832 106.967,111.743 L113.212,111.743 C114.477,107.444 113.955,102.053 108.884,96.513 C101.71,88.671 108.976,78.07 109.085,77.906 C109.942,76.697 109.483,75.139 108.072,74.411 C106.655,73.687 104.819,74.075 103.959,75.276" fill="#FFFFFE"/>
    <path d="M88.141,111.743 L94.39,111.743 C95.652,107.443 95.127,102.055 90.057,96.514 C82.881,88.67 90.141,78.074 90.256,77.901 C91.107,76.698 90.656,75.14 89.24,74.41 C87.828,73.69 85.989,74.073 85.132,75.275 C84.741,75.829 75.59,88.994 85.336,99.636 C89.801,104.522 89.413,108.833 88.141,111.743" fill="#FFFFFE"/>
    <path d="M66.303,75.276 C65.907,75.831 56.764,88.993 66.504,99.636 C70.972,104.523 70.584,108.834 69.314,111.743 L75.559,111.743 C76.822,107.446 76.3,102.055 71.225,96.513 C64.048,88.671 71.314,78.07 71.429,77.902 C72.278,76.697 71.826,75.139 70.409,74.411 C68.998,73.683 67.159,74.072 66.303,75.276" fill="#FFFFFE"/>
    <path d="M34.616,46.398 L24.606,46.398 L24.606,44.685 C24.606,41.85 25.624,40.778 27.175,39.119 L31.081,34.998 C34.24,31.626 34.937,29.486 34.937,25.843 L34.937,22.312 C34.937,17.121 32.42,14.656 26.961,14.656 C21.609,14.656 18.878,17.494 18.878,22.58 L18.878,26.966 L24.445,26.966 L24.445,22.416 C24.445,20.224 25.516,19.58 26.802,19.58 C27.977,19.58 28.995,20.063 28.995,22.312 L28.995,25.308 C28.995,28.308 28.727,29.486 26.748,31.572 L23.319,35.211 C20.004,38.746 18.771,41.1 18.771,44.685 L18.771,51.377 L34.616,51.377 z" fill="#FFFFFE"/>
    <path d="M54.84,28.593 L58.71,28.593 L58.71,30.674 L52.177,30.674 L52.177,28.593 L56.182,17.584 L52.579,17.584 L52.579,15.502 L58.867,15.502 L58.867,17.584 z" fill="#FFFFFE"/>
    <path d="M60.208,15.503 L66.295,15.503 L66.295,17.585 L62.759,17.585 L62.759,21.925 L65.288,21.925 L65.288,23.983 L62.759,23.983 L62.759,28.594 L66.295,28.594 L66.295,30.674 L60.208,30.674 z" fill="#FFFFFE"/>
    <path d="M70.209,17.584 L70.209,22.305 L71.059,22.305 C71.931,22.305 72.312,21.858 72.312,21.052 L72.312,18.815 C72.312,17.987 71.931,17.584 71.059,17.584 z M70.209,23.715 L70.209,30.674 L67.657,30.674 L67.657,15.503 L71.372,15.503 C73.945,15.503 74.885,16.779 74.885,18.904 L74.885,20.851 C74.885,22.484 74.303,23.447 72.848,23.782 L75.288,30.674 L72.603,30.674 z" fill="#FFFFFE"/>
    <path d="M81.44,27.161 L81.44,19.017 C81.44,18.099 81.037,17.45 80.119,17.45 C79.224,17.45 78.821,18.099 78.821,19.017 L78.821,27.161 C78.821,28.078 79.224,28.727 80.119,28.727 C81.037,28.727 81.44,28.078 81.44,27.161 M76.27,26.758 L76.27,19.419 C76.27,17.048 77.434,15.324 80.119,15.324 C82.827,15.324 83.99,17.048 83.99,19.419 L83.99,26.758 C83.99,29.108 82.827,30.853 80.119,30.853 C77.434,30.853 76.27,29.108 76.27,26.758" fill="#FFFFFE"/>
    <path d="M57.368,45.235 L54.906,45.235 L54.906,51.925 L52.355,51.925 L52.355,36.754 L54.906,36.754 L54.906,43.175 L57.368,43.175 L57.368,36.754 L59.942,36.754 L59.942,51.925 L57.368,51.925 z" fill="#FFFFFE"/>
    <path d="M68.8,36.754 L68.8,48.233 C68.8,50.582 67.793,52.104 65.198,52.104 C62.512,52.104 61.393,50.582 61.393,48.233 L61.393,36.754 L63.944,36.754 L63.944,48.48 C63.944,49.374 64.302,49.978 65.198,49.978 C66.093,49.978 66.451,49.374 66.451,48.48 L66.451,36.754 z" fill="#FFFFFE"/>
    <path d="M72.399,42.393 L72.399,51.925 L70.252,51.925 L70.252,36.754 L72.757,36.754 L75.51,45.458 L75.51,36.754 L77.636,36.754 L77.636,51.925 L75.398,51.925 z" fill="#FFFFFE"/>
    <path d="M82.937,43.826 L86.562,43.826 L86.562,51.925 L84.726,51.925 L84.726,50.27 C84.391,51.411 83.675,52.104 82.288,52.104 C80.094,52.104 79.088,50.358 79.088,48.01 L79.088,40.67 C79.088,38.298 80.23,36.575 82.914,36.575 C85.734,36.575 86.562,38.142 86.562,40.379 L86.562,41.722 L84.234,41.722 L84.234,40.178 C84.234,39.238 83.876,38.701 82.959,38.701 C82.041,38.701 81.639,39.351 81.639,40.268 L81.639,48.412 C81.639,49.33 82.02,49.978 82.892,49.978 C83.72,49.978 84.146,49.508 84.146,48.524 L84.146,45.839 L82.937,45.839 z" fill="#FFFFFE"/>
    <path d="M88.014,36.754 L94.101,36.754 L94.101,38.836 L90.565,38.836 L90.565,43.175 L93.094,43.175 L93.094,45.235 L90.565,45.235 L90.565,49.845 L94.101,49.845 L94.101,51.925 L88.014,51.925 z" fill="#FFFFFE"/>
    <path d="M98.014,38.835 L98.014,43.556 L98.864,43.556 C99.737,43.556 100.118,43.109 100.118,42.304 L100.118,40.066 C100.118,39.238 99.737,38.835 98.864,38.835 z M98.014,44.966 L98.014,51.925 L95.463,51.925 L95.463,36.754 L99.178,36.754 C101.751,36.754 102.69,38.03 102.69,40.155 L102.69,42.102 C102.69,43.735 102.109,44.698 100.654,45.033 L103.094,51.925 L100.408,51.925 z" fill="#FFFFFE"/>
  </g>
</svg>
