<?xml version="1.0" encoding="UTF-8"?>
<!DOCTYPE svg PUBLIC "-//W3C//DTD SVG 1.1//EN" "http://www.w3.org/Graphics/SVG/1.1/DTD/svg11.dtd">
<svg version="1.1" xmlns="http://www.w3.org/2000/svg" xmlns:xlink="http://www.w3.org/1999/xlink" x="0" y="0" width="60" height="60" viewBox="0, 0, 180, 180">
  <g id="Layer_1">
    <path d="M0,180 L180,180 L180,0 L0,0 z" fill="#EC9634"/>
    <path d="M30.928,137.035 L31.207,137.035 L58.004,137.035 C58.37,137.035 58.669,136.735 58.669,136.368 C58.669,136.198 58.6,136.045 58.494,135.927 L58.457,135.888 L44.986,118.459 L44.855,118.315 C44.733,118.182 44.558,118.099 44.364,118.099 C44.197,118.099 44.048,118.168 43.929,118.268 L43.848,118.362 L43.721,118.505 L30.579,135.75 L30.377,135.996 C30.304,136.101 30.263,136.231 30.263,136.368 C30.263,136.735 30.562,137.035 30.928,137.035" fill="#FFFFFE"/>
    <path d="M57.923,139.492 L30.793,139.492 C30.426,139.492 30.128,139.79 30.128,140.156 L30.128,161.386 C30.128,161.754 30.426,162.053 30.793,162.053 L39.525,162.053 L39.525,148.696 C39.525,148.326 39.821,148.032 40.19,148.032 L48.294,148.032 C48.662,148.032 48.959,148.326 48.959,148.696 L48.959,162.053 L57.923,162.053 C58.288,162.053 58.587,161.754 58.587,161.386 L58.587,140.156 C58.587,139.79 58.288,139.492 57.923,139.492" fill="#FFFFFE"/>
    <path d="M149.255,142.625 C149.255,142.979 148.962,143.265 148.598,143.265 L140.577,143.265 C140.213,143.265 139.92,142.979 139.92,142.625 L139.92,137.747 C139.92,137.395 140.213,137.109 140.577,137.109 L148.598,137.109 C148.962,137.109 149.255,137.395 149.255,137.747 z M149.255,151.635 C149.255,151.99 148.962,152.277 148.598,152.277 L140.577,152.277 C140.213,152.277 139.92,151.99 139.92,151.635 L139.92,146.761 C139.92,146.405 140.213,146.12 140.577,146.12 L148.598,146.12 C148.962,146.12 149.255,146.405 149.255,146.761 z M136.994,142.625 C136.994,142.979 136.702,143.265 136.339,143.265 L128.317,143.265 C127.952,143.265 127.657,142.979 127.657,142.625 L127.657,137.747 C127.657,137.395 127.952,137.109 128.317,137.109 L136.339,137.109 C136.702,137.109 136.994,137.395 136.994,137.747 z M136.994,151.635 C136.994,151.99 136.702,152.277 136.339,152.277 L128.317,152.277 C127.952,152.277 127.657,151.99 127.657,151.635 L127.657,146.761 C127.657,146.405 127.952,146.12 128.317,146.12 L136.339,146.12 C136.702,146.12 136.994,146.405 136.994,146.761 z M151.686,133.935 L124.834,133.935 C124.472,133.935 124.179,134.217 124.179,134.573 L124.179,161.686 C124.179,162.038 124.472,162.324 124.834,162.324 L151.686,162.324 C152.052,162.324 152.344,162.038 152.344,161.686 L152.344,134.573 C152.344,134.217 152.052,133.935 151.686,133.935" fill="#FFFFFE"/>
    <path d="M85.436,90.268 C85.436,90.457 85.281,90.611 85.088,90.611 L79.074,90.611 C78.882,90.611 78.728,90.457 78.728,90.268 L78.728,83.561 C78.728,83.37 78.882,83.216 79.074,83.216 L85.088,83.216 C85.281,83.216 85.436,83.37 85.436,83.561 z M85.436,105.664 C85.436,105.853 85.281,106.009 85.088,106.009 L79.074,106.009 C78.882,106.009 78.728,105.853 78.728,105.664 L78.728,98.957 C78.728,98.766 78.882,98.616 79.074,98.616 L85.088,98.616 C85.281,98.616 85.436,98.766 85.436,98.957 z M85.436,121.063 C85.436,121.253 85.281,121.408 85.088,121.408 L79.074,121.408 C78.882,121.408 78.728,121.253 78.728,121.063 L78.728,114.356 C78.728,114.166 78.882,114.01 79.074,114.01 L85.088,114.01 C85.281,114.01 85.436,114.166 85.436,114.356 z M85.436,136.458 C85.436,136.653 85.281,136.803 85.088,136.803 L79.074,136.803 C78.882,136.803 78.728,136.653 78.728,136.458 L78.728,129.755 C78.728,129.561 78.882,129.41 79.074,129.41 L85.088,129.41 C85.281,129.41 85.436,129.561 85.436,129.755 z M85.436,151.858 C85.436,152.047 85.281,152.203 85.088,152.203 L79.074,152.203 C78.882,152.203 78.728,152.047 78.728,151.858 L78.728,145.153 C78.728,144.962 78.882,144.81 79.074,144.81 L85.088,144.81 C85.281,144.81 85.436,144.962 85.436,145.153 z M73.637,90.268 C73.637,90.457 73.481,90.611 73.29,90.611 L67.274,90.611 C67.084,90.611 66.929,90.457 66.929,90.268 L66.929,83.561 C66.929,83.37 67.084,83.216 67.274,83.216 L73.29,83.216 C73.481,83.216 73.637,83.37 73.637,83.561 z M73.637,105.664 C73.637,105.853 73.481,106.009 73.29,106.009 L67.274,106.009 C67.084,106.009 66.929,105.853 66.929,105.664 L66.929,98.957 C66.929,98.766 67.084,98.616 67.274,98.616 L73.29,98.616 C73.481,98.616 73.637,98.766 73.637,98.957 z M73.637,121.063 C73.637,121.253 73.481,121.408 73.29,121.408 L67.274,121.408 C67.084,121.408 66.929,121.253 66.929,121.063 L66.929,114.356 C66.929,114.166 67.084,114.01 67.274,114.01 L73.29,114.01 C73.481,114.01 73.637,114.166 73.637,114.356 z M73.637,136.458 C73.637,136.653 73.481,136.803 73.29,136.803 L67.274,136.803 C67.084,136.803 66.929,136.653 66.929,136.458 L66.929,129.755 C66.929,129.561 67.084,129.41 67.274,129.41 L73.29,129.41 C73.481,129.41 73.637,129.561 73.637,129.755 z M73.637,151.858 C73.637,152.047 73.481,152.203 73.29,152.203 L67.274,152.203 C67.084,152.203 66.929,152.047 66.929,151.858 L66.929,145.153 C66.929,144.962 67.084,144.81 67.274,144.81 L73.29,144.81 C73.481,144.81 73.637,144.962 73.637,145.153 z M89.267,70.999 L62.99,70.999 C62.638,70.999 62.348,71.285 62.348,71.644 L62.348,161.446 C62.348,161.799 62.638,162.088 62.99,162.088 L89.267,162.088 C89.62,162.088 89.914,161.799 89.914,161.446 L89.914,71.644 C89.914,71.285 89.62,70.999 89.267,70.999" fill="#FFFFFE"/>
    <path d="M152.314,131.206 C152.314,131.508 152.074,131.748 151.774,131.748 L124.747,131.748 C124.451,131.748 124.207,131.508 124.207,131.206 L124.207,125.801 C124.207,125.505 124.451,125.261 124.747,125.261 L151.774,125.261 C152.074,125.261 152.314,125.505 152.314,125.801 z" fill="#FFFFFE"/>
    <path d="M118.021,115.396 C118.021,115.752 117.73,116.038 117.378,116.038 L109.548,116.038 C109.19,116.038 108.902,115.752 108.902,115.396 L108.902,110.494 C108.902,110.136 109.19,109.849 109.548,109.849 L117.378,109.849 C117.73,109.849 118.021,110.136 118.021,110.494 z M118.021,124.455 C118.021,124.81 117.73,125.095 117.378,125.095 L109.548,125.095 C109.19,125.095 108.902,124.81 108.902,124.455 L108.902,119.553 C108.902,119.197 109.19,118.911 109.548,118.911 L117.378,118.911 C117.73,118.911 118.021,119.197 118.021,119.553 z M118.021,133.515 C118.021,133.867 117.73,134.156 117.378,134.156 L109.548,134.156 C109.19,134.156 108.902,133.867 108.902,133.515 L108.902,128.611 C108.902,128.254 109.19,127.969 109.548,127.969 L117.378,127.969 C117.73,127.969 118.021,128.254 118.021,128.611 z M118.021,142.573 C118.021,142.928 117.73,143.215 117.378,143.215 L109.548,143.215 C109.19,143.215 108.902,142.928 108.902,142.573 L108.902,137.67 C108.902,137.312 109.19,137.028 109.548,137.028 L117.378,137.028 C117.73,137.028 118.021,137.312 118.021,137.67 z M118.021,151.63 C118.021,151.987 117.73,152.272 117.378,152.272 L109.548,152.272 C109.19,152.272 108.902,151.987 108.902,151.63 L108.902,146.727 C108.902,146.374 109.19,146.087 109.548,146.087 L117.378,146.087 C117.73,146.087 118.021,146.374 118.021,146.727 z M106.07,113.666 L106.07,113.901 L106.07,124.464 C106.07,124.821 105.779,125.106 105.428,125.106 L97.598,125.106 C97.24,125.106 96.951,124.821 96.951,124.464 L96.951,123.16 L96.951,123.105 C96.954,123.02 96.971,122.939 97.001,122.865 C97.014,122.839 97.016,122.828 97.04,122.791 C97.055,122.761 97.077,122.732 97.096,122.705 C97.117,122.675 97.146,122.636 97.17,122.6 C98.17,121.168 102.688,115.604 104.585,113.277 L104.776,113.047 C104.913,112.882 105.121,112.774 105.353,112.774 C105.713,112.774 106,113.036 106.07,113.375 z M106.049,133.515 C106.049,133.867 105.762,134.156 105.406,134.156 L97.574,134.156 C97.218,134.156 96.932,133.867 96.932,133.515 L96.932,128.611 C96.932,128.254 97.218,127.969 97.574,127.969 L105.406,127.969 C105.762,127.969 106.049,128.254 106.049,128.611 z M106.049,142.573 C106.049,142.928 105.762,143.215 105.406,143.215 L97.574,143.215 C97.218,143.215 96.932,142.928 96.932,142.573 L96.932,137.67 C96.932,137.312 97.218,137.028 97.574,137.028 L105.406,137.028 C105.762,137.028 106.049,137.312 106.049,137.67 z M106.049,151.63 C106.049,151.987 105.762,152.272 105.406,152.272 L97.574,152.272 C97.218,152.272 96.932,151.987 96.932,151.63 L96.932,146.727 C96.932,146.374 97.218,146.087 97.574,146.087 L105.406,146.087 C105.762,146.087 106.049,146.374 106.049,146.727 z M110.134,105.748 L110.319,105.517 C112.087,103.249 115.065,99.584 116.516,97.803 L116.707,97.576 C116.844,97.41 117.052,97.303 117.284,97.303 C117.644,97.303 117.931,97.563 118.001,97.903 L118.001,98.194 L118.001,98.43 L118.001,106.192 C118.001,106.592 117.683,106.913 117.287,106.93 C117.275,106.93 117.266,106.937 117.255,106.937 C117.244,106.937 117.234,106.93 117.222,106.93 L111.088,106.93 L110.768,106.93 C110.756,106.93 110.747,106.937 110.736,106.937 C110.725,106.937 110.715,106.93 110.703,106.93 C110.307,106.913 109.99,106.592 109.99,106.192 C109.99,106.026 110.043,105.873 110.134,105.748 M121.008,87.957 C120.921,87.669 120.665,87.455 120.348,87.455 C120.206,87.455 120.083,87.508 119.973,87.579 C119.956,87.59 119.939,87.598 119.923,87.611 L119.701,87.891 L93.875,120.652 L93.756,120.812 C93.623,120.943 93.538,121.122 93.533,121.323 L93.533,121.367 L93.533,161.581 C93.533,161.935 93.82,162.221 94.177,162.221 L120.428,162.221 C120.784,162.221 121.07,161.935 121.07,161.581 L121.07,88.226 C121.07,88.129 121.046,88.037 121.008,87.957" fill="#FFFFFE"/>
    <path d="M12.86,21.671 L12.86,28.039 L12.913,28.039 L17.194,23.596 L17.248,23.596 L17.248,51.377 L23.351,51.377 L23.351,15.084 L18.479,15.084 z" fill="#FFFFFE"/>
    <path d="M26.776,21.671 L26.776,28.039 L26.831,28.039 L31.113,23.596 L31.165,23.596 L31.165,51.377 L37.27,51.377 L37.27,15.084 L32.4,15.084 z" fill="#FFFFFE"/>
    <path d="M49.846,27.024 L49.846,24.988 L52.219,24.988 L52.219,27.068 C52.219,27.919 52.599,28.411 53.472,28.411 C54.277,28.411 54.635,27.875 54.635,27.068 L54.635,26.486 C54.635,25.614 54.277,25.077 53.495,24.338 L51.994,22.84 C50.54,21.408 49.869,20.535 49.869,18.789 L49.869,18.275 C49.869,16.395 50.966,14.941 53.448,14.941 C56.001,14.941 57.006,16.194 57.006,18.387 L57.006,19.618 L54.679,19.618 L54.679,18.298 C54.679,17.425 54.277,17 53.472,17 C52.756,17 52.263,17.402 52.263,18.253 L52.263,18.566 C52.263,19.416 52.732,19.909 53.472,20.625 L55.105,22.235 C56.494,23.645 57.163,24.495 57.163,26.173 L57.163,26.911 C57.163,28.993 56.045,30.469 53.448,30.469 C50.854,30.469 49.846,29.015 49.846,27.024" fill="#FFFFFE"/>
    <path d="M65.663,15.12 L65.663,26.599 C65.663,28.948 64.657,30.47 62.06,30.47 C59.375,30.47 58.257,28.948 58.257,26.599 L58.257,15.12 L60.807,15.12 L60.807,26.845 C60.807,27.74 61.165,28.344 62.06,28.344 C62.956,28.344 63.314,27.74 63.314,26.845 L63.314,15.12 z" fill="#FFFFFE"/>
    <path d="M66.735,27.024 L66.735,24.988 L69.108,24.988 L69.108,27.068 C69.108,27.919 69.489,28.411 70.361,28.411 C71.166,28.411 71.524,27.875 71.524,27.068 L71.524,26.486 C71.524,25.614 71.166,25.077 70.384,24.338 L68.883,22.84 C67.43,21.408 66.759,20.535 66.759,18.789 L66.759,18.275 C66.759,16.395 67.856,14.941 70.339,14.941 C72.89,14.941 73.896,16.194 73.896,18.387 L73.896,19.618 L71.568,19.618 L71.568,18.298 C71.568,17.425 71.166,17 70.361,17 C69.646,17 69.152,17.402 69.152,18.253 L69.152,18.566 C69.152,19.416 69.623,19.909 70.361,20.625 L71.994,22.235 C73.381,23.645 74.053,24.495 74.053,26.173 L74.053,26.911 C74.053,28.993 72.934,30.469 70.339,30.469 C67.743,30.469 66.735,29.015 66.735,27.024" fill="#FFFFFE"/>
    <path d="M74.518,15.12 L81.299,15.12 L81.299,17.201 L79.197,17.201 L79.197,30.29 L76.622,30.29 L76.622,17.201 L74.518,17.201 z" fill="#FFFFFE"/>
    <path d="M83.917,25.479 L85.953,25.479 L84.946,19.394 L84.923,19.394 z M80.717,30.29 L83.581,15.12 L86.49,15.12 L89.377,30.29 L86.76,30.29 L86.289,27.516 L83.581,27.516 L83.133,30.29 z" fill="#FFFFFE"/>
    <path d="M90.179,30.29 L92.73,30.29 L92.73,15.12 L90.179,15.12 z" fill="#FFFFFE"/>
    <path d="M96.11,20.759 L96.11,30.29 L93.962,30.29 L93.962,15.12 L96.468,15.12 L99.219,23.824 L99.219,15.12 L101.345,15.12 L101.345,30.29 L99.109,30.29 z" fill="#FFFFFE"/>
    <path d="M105.349,25.479 L107.384,25.479 L106.377,19.394 L106.354,19.394 z M102.148,30.29 L105.013,15.12 L107.922,15.12 L110.808,30.29 L108.191,30.29 L107.72,27.516 L105.013,27.516 L104.565,30.29 z" fill="#FFFFFE"/>
    <path d="M114.163,23.466 L114.163,28.21 L115.284,28.21 C116.132,28.21 116.536,27.784 116.536,26.979 L116.536,24.696 C116.536,23.89 116.154,23.466 115.261,23.466 z M114.163,21.52 L115.059,21.52 C115.887,21.52 116.267,21.094 116.267,20.288 L116.267,18.432 C116.267,17.604 115.887,17.202 115.036,17.202 L114.163,17.202 z M111.613,15.12 L115.305,15.12 C117.856,15.12 118.707,16.306 118.707,18.454 L118.707,19.998 C118.707,21.273 118.236,22.079 117.184,22.414 C118.46,22.705 119.087,23.556 119.087,24.943 L119.087,26.957 C119.087,29.105 118.126,30.29 115.573,30.29 L111.613,30.29 z" fill="#FFFFFE"/>
    <path d="M120.113,15.12 L122.664,15.12 L122.664,28.211 L125.707,28.211 L125.707,30.29 L120.113,30.29 z" fill="#FFFFFE"/>
    <path d="M126.624,15.12 L132.711,15.12 L132.711,17.201 L129.175,17.201 L129.175,21.541 L131.705,21.541 L131.705,23.6 L129.175,23.6 L129.175,28.211 L132.711,28.211 L132.711,30.29 L126.624,30.29 z" fill="#FFFFFE"/>
    <path d="M135.932,26.374 L135.932,19.035 C135.932,16.664 137.05,14.941 139.735,14.941 C142.556,14.941 143.34,16.507 143.34,18.745 L143.34,20.535 L141.01,20.535 L141.01,18.543 C141.01,17.604 140.699,17.066 139.782,17.066 C138.862,17.066 138.482,17.716 138.482,18.633 L138.482,26.779 C138.482,27.696 138.862,28.343 139.782,28.343 C140.699,28.343 141.01,27.762 141.01,26.867 L141.01,24.07 L143.34,24.07 L143.34,26.688 C143.34,28.858 142.443,30.47 139.735,30.47 C137.05,30.47 135.932,28.723 135.932,26.374" fill="#FFFFFE"/>
    <path d="M144.476,30.29 L147.027,30.29 L147.027,15.12 L144.476,15.12 z" fill="#FFFFFE"/>
    <path d="M147.969,15.12 L154.747,15.12 L154.747,17.201 L152.645,17.201 L152.645,30.29 L150.071,30.29 L150.071,17.201 L147.969,17.201 z" fill="#FFFFFE"/>
    <path d="M155.685,30.29 L158.235,30.29 L158.235,15.12 L155.685,15.12 z" fill="#FFFFFE"/>
    <path d="M159.467,15.12 L165.553,15.12 L165.553,17.201 L162.017,17.201 L162.017,21.541 L164.545,21.541 L164.545,23.6 L162.017,23.6 L162.017,28.211 L165.553,28.211 L165.553,30.29 L159.467,30.29 z" fill="#FFFFFE"/>
    <path d="M166.424,27.024 L166.424,24.988 L168.797,24.988 L168.797,27.068 C168.797,27.919 169.178,28.411 170.051,28.411 C170.855,28.411 171.213,27.875 171.213,27.068 L171.213,26.486 C171.213,25.614 170.855,25.077 170.072,24.338 L168.572,22.84 C167.119,21.408 166.447,20.535 166.447,18.789 L166.447,18.275 C166.447,16.395 167.545,14.941 170.027,14.941 C172.579,14.941 173.585,16.194 173.585,18.387 L173.585,19.618 L171.258,19.618 L171.258,18.298 C171.258,17.425 170.855,17 170.051,17 C169.335,17 168.841,17.402 168.841,18.253 L168.841,18.566 C168.841,19.416 169.311,19.909 170.051,20.625 L171.684,22.235 C173.072,23.645 173.742,24.495 173.742,26.173 L173.742,26.911 C173.742,28.993 172.623,30.469 170.027,30.469 C167.432,30.469 166.424,29.015 166.424,27.024" fill="#FFFFFE"/>
    <path d="M52.778,46.73 L54.814,46.73 L53.807,40.644 L53.784,40.644 z M49.578,51.542 L52.443,36.37 L55.351,36.37 L58.238,51.542 L55.62,51.542 L55.15,48.768 L52.443,48.768 L51.994,51.542 z" fill="#FFFFFE"/>
    <path d="M61.189,42.01 L61.189,51.542 L59.041,51.542 L59.041,36.37 L61.547,36.37 L64.3,45.075 L64.3,36.37 L66.424,36.37 L66.424,51.542 L64.188,51.542 z" fill="#FFFFFE"/>
    <path d="M71.256,49.462 C72.309,49.462 72.712,48.834 72.712,47.917 L72.712,39.974 C72.712,39.079 72.309,38.451 71.256,38.451 L70.183,38.451 L70.183,49.462 z M75.263,40.443 L75.263,47.468 C75.263,49.796 74.3,51.541 71.57,51.541 L67.631,51.541 L67.631,36.371 L71.57,36.371 C74.3,36.371 75.263,38.093 75.263,40.443" fill="#FFFFFE"/>
    <path d="M78.571,47.625 L78.571,40.286 C78.571,37.915 79.689,36.191 82.374,36.191 C85.194,36.191 85.979,37.757 85.979,39.996 L85.979,41.787 L83.649,41.787 L83.649,39.795 C83.649,38.854 83.338,38.318 82.42,38.318 C81.502,38.318 81.121,38.966 81.121,39.883 L81.121,48.03 C81.121,48.947 81.502,49.595 82.42,49.595 C83.338,49.595 83.649,49.013 83.649,48.119 L83.649,45.321 L85.979,45.321 L85.979,47.939 C85.979,50.11 85.081,51.721 82.374,51.721 C79.689,51.721 78.571,49.974 78.571,47.625" fill="#FFFFFE"/>
    <path d="M92.285,48.029 L92.285,39.884 C92.285,38.967 91.883,38.317 90.966,38.317 C90.07,38.317 89.667,38.967 89.667,39.884 L89.667,48.029 C89.667,48.946 90.07,49.594 90.966,49.594 C91.883,49.594 92.285,48.946 92.285,48.029 M87.116,47.625 L87.116,40.286 C87.116,37.915 88.281,36.191 90.966,36.191 C93.673,36.191 94.835,37.915 94.835,40.286 L94.835,47.625 C94.835,49.975 93.673,51.72 90.966,51.72 C88.281,51.72 87.116,49.975 87.116,47.625" fill="#FFFFFE"/>
    <path d="M103.069,41.696 L103.002,41.696 L101.279,51.541 L100.094,51.541 L98.191,41.696 L98.147,41.696 L98.147,51.541 L96.043,51.541 L96.043,36.37 L99.02,36.37 L100.676,44.918 L100.697,44.918 L102.174,36.37 L105.396,36.37 L105.396,51.541 L103.069,51.541 z" fill="#FFFFFE"/>
    <path d="M113.628,41.696 L113.56,41.696 L111.838,51.541 L110.652,51.541 L108.75,41.696 L108.706,41.696 L108.706,51.541 L106.601,51.541 L106.601,36.37 L109.578,36.37 L111.234,44.918 L111.256,44.918 L112.732,36.37 L115.955,36.37 L115.955,51.541 L113.628,51.541 z" fill="#FFFFFE"/>
    <path d="M124.57,36.37 L124.57,47.851 C124.57,50.2 123.562,51.72 120.966,51.72 C118.281,51.72 117.161,50.2 117.161,47.851 L117.161,36.37 L119.713,36.37 L119.713,48.096 C119.713,48.99 120.071,49.594 120.966,49.594 C121.861,49.594 122.219,48.99 122.219,48.096 L122.219,36.37 z" fill="#FFFFFE"/>
    <path d="M127.922,42.01 L127.922,51.542 L125.774,51.542 L125.774,36.37 L128.28,36.37 L131.033,45.075 L131.033,36.37 L133.157,36.37 L133.157,51.542 L130.921,51.542 z" fill="#FFFFFE"/>
    <path d="M134.365,51.542 L136.915,51.542 L136.915,36.37 L134.365,36.37 z" fill="#FFFFFE"/>
    <path d="M137.855,36.37 L144.634,36.37 L144.634,38.452 L142.531,38.452 L142.531,51.542 L139.957,51.542 L139.957,38.452 L137.855,38.452 z" fill="#FFFFFE"/>
    <path d="M145.573,51.542 L148.124,51.542 L148.124,36.37 L145.573,36.37 z" fill="#FFFFFE"/>
    <path d="M149.353,36.37 L155.44,36.37 L155.44,38.452 L151.903,38.452 L151.903,42.792 L154.432,42.792 L154.432,44.852 L151.903,44.852 L151.903,49.461 L155.44,49.461 L155.44,51.542 L149.353,51.542 z" fill="#FFFFFE"/>
    <path d="M156.312,48.275 L156.312,46.24 L158.685,46.24 L158.685,48.319 C158.685,49.171 159.066,49.663 159.939,49.663 C160.743,49.663 161.101,49.126 161.101,48.319 L161.101,47.738 C161.101,46.865 160.743,46.328 159.96,45.59 L158.46,44.091 C157.007,42.659 156.336,41.786 156.336,40.041 L156.336,39.526 C156.336,37.647 157.433,36.191 159.917,36.191 C162.467,36.191 163.473,37.444 163.473,39.639 L163.473,40.869 L161.146,40.869 L161.146,39.548 C161.146,38.675 160.743,38.25 159.939,38.25 C159.223,38.25 158.729,38.652 158.729,39.503 L158.729,39.817 C158.729,40.666 159.2,41.159 159.939,41.875 L161.572,43.486 C162.958,44.897 163.63,45.747 163.63,47.424 L163.63,48.163 C163.63,50.244 162.511,51.721 159.917,51.721 C157.32,51.721 156.312,50.266 156.312,48.275" fill="#FFFFFE"/>
  </g>
</svg>
