<?xml version="1.0" encoding="UTF-8"?>
<!DOCTYPE svg PUBLIC "-//W3C//DTD SVG 1.1//EN" "http://www.w3.org/Graphics/SVG/1.1/DTD/svg11.dtd">
<svg version="1.1" xmlns="http://www.w3.org/2000/svg" xmlns:xlink="http://www.w3.org/1999/xlink" x="0" y="0" width="60" height="60" viewBox="0, 0, 180, 180">
  <g id="Layer_1">
    <path d="M0,180 L180,180 L180,0 L0,0 z" fill="#F2B02A"/>
    <path d="M90.07,127.107 C82.492,127.107 76.349,120.966 76.349,113.387 C76.349,107.227 80.404,102.018 85.992,100.281 L85.992,105.39 C83.084,106.876 81.087,109.895 81.087,113.387 C81.087,118.348 85.107,122.369 90.07,122.369 C95.033,122.369 99.053,118.348 99.053,113.387 C99.053,109.884 97.047,106.861 94.124,105.378 L94.124,100.275 C99.724,102.004 103.793,107.219 103.793,113.387 C103.793,120.966 97.65,127.107 90.07,127.107 M88.113,97.631 C88.113,96.753 88.994,95.786 90.076,95.786 C91.157,95.786 92.031,96.753 92.031,97.631 L92.031,106.688 C92.031,107.562 91.157,108.519 90.076,108.519 C88.994,108.519 88.113,107.562 88.113,106.688 z M90.066,87.209 C75.497,87.209 63.686,99.019 63.686,113.59 C63.686,128.165 75.497,139.972 90.066,139.972 C104.634,139.972 116.445,128.165 116.445,113.59 C116.445,99.019 104.634,87.209 90.066,87.209" fill="#FFFFFE"/>
    <path d="M59.783,113.359 C59.783,112.163 58.723,111.194 57.755,111.194 L46.203,111.194 C45.228,111.194 44.159,112.163 44.159,113.359 C44.159,114.558 45.228,115.532 46.203,115.532 L57.755,115.532 C58.723,115.532 59.783,114.558 59.783,113.359" fill="#FFFFFE"/>
    <path d="M135.984,113.359 C135.984,112.163 134.924,111.194 133.957,111.194 L122.404,111.194 C121.431,111.194 120.361,112.163 120.361,113.359 C120.361,114.558 121.431,115.532 122.404,115.532 L133.957,115.532 C134.924,115.532 135.984,114.558 135.984,113.359" fill="#FFFFFE"/>
    <path d="M90.077,159.273 C91.271,159.273 92.241,158.213 92.241,157.245 L92.241,145.694 C92.241,144.721 91.271,143.65 90.077,143.65 C88.878,143.65 87.902,144.721 87.902,145.694 L87.902,157.245 C87.902,158.213 88.878,159.273 90.077,159.273" fill="#FFFFFE"/>
    <path d="M129.922,136.164 C130.514,135.128 130.076,133.759 129.238,133.278 L119.212,127.54 C118.366,127.056 116.956,127.366 116.362,128.405 C115.767,129.444 116.211,130.822 117.057,131.305 L127.083,137.043 C127.923,137.524 129.325,137.205 129.922,136.164" fill="#FFFFFE"/>
    <path d="M67.271,153.211 C68.308,153.804 69.675,153.366 70.156,152.527 L75.893,142.501 C76.378,141.656 76.067,140.245 75.029,139.651 C73.991,139.057 72.611,139.501 72.129,140.346 L66.39,150.372 C65.91,151.211 66.229,152.617 67.271,153.211" fill="#FFFFFE"/>
    <path d="M112.962,153.16 C113.999,152.564 114.311,151.163 113.829,150.324 L108.071,140.309 C107.583,139.465 106.212,139.021 105.173,139.617 C104.134,140.214 103.823,141.628 104.311,142.473 L110.068,152.487 C110.55,153.325 111.922,153.757 112.962,153.16" fill="#FFFFFE"/>
    <path d="M50.274,136.253 C50.869,137.289 52.27,137.601 53.11,137.118 L63.123,131.36 C63.969,130.875 64.414,129.502 63.815,128.465 C63.22,127.425 61.806,127.114 60.962,127.598 L50.948,133.357 C50.109,133.839 49.676,135.213 50.274,136.253" fill="#FFFFFE"/>
    <path d="M90.077,83.075 C91.271,83.075 92.241,82.015 92.241,81.048 L92.241,69.495 C92.241,68.521 91.271,67.452 90.077,67.452 C88.878,67.452 87.902,68.521 87.902,69.495 L87.902,81.048 C87.902,82.015 88.878,83.075 90.077,83.075" fill="#FFFFFE"/>
    <path d="M63.785,98.314 C64.381,97.275 63.943,95.909 63.102,95.428 L53.075,89.691 C52.23,89.205 50.82,89.516 50.226,90.554 C49.631,91.594 50.075,92.971 50.921,93.455 L60.947,99.194 C61.786,99.674 63.19,99.356 63.785,98.314" fill="#FFFFFE"/>
    <path d="M105.121,87.078 C106.16,87.67 107.524,87.232 108.007,86.394 L113.744,76.367 C114.229,75.522 113.919,74.112 112.881,73.518 C111.842,72.922 110.463,73.367 109.979,74.213 L104.241,84.238 C103.761,85.079 104.079,86.483 105.121,87.078" fill="#FFFFFE"/>
    <path d="M74.976,87.104 C76.012,86.507 76.325,85.107 75.842,84.267 L70.084,74.252 C69.596,73.408 68.226,72.965 67.187,73.561 C66.147,74.158 65.837,75.571 66.323,76.416 L72.081,86.429 C72.566,87.267 73.935,87.701 74.976,87.104" fill="#FFFFFE"/>
    <path d="M116.332,98.267 C116.928,99.303 118.328,99.615 119.167,99.134 L129.181,93.375 C130.027,92.889 130.472,91.516 129.876,90.479 C129.277,89.441 127.866,89.128 127.02,89.614 L117.006,95.372 C116.167,95.855 115.734,97.229 116.332,98.267" fill="#FFFFFE"/>
    <path d="M18.463,20.064 L27.886,20.064 L19.747,51.377 L25.798,51.377 L33.774,20.706 L33.774,15.084 L18.463,15.084 z" fill="#FFFFFE"/>
    <path d="M54.06,25.479 L56.097,25.479 L55.09,19.394 L55.068,19.394 z M50.861,30.29 L53.725,15.12 L56.634,15.12 L59.52,30.29 L56.902,30.29 L56.433,27.516 L53.725,27.516 L53.277,30.29 z" fill="#FFFFFE"/>
    <path d="M60.569,15.119 L66.545,15.119 L66.545,17.201 L63.121,17.201 L63.121,21.541 L65.671,21.541 L65.671,23.6 L63.121,23.6 L63.121,30.29 L60.569,30.29 z" fill="#FFFFFE"/>
    <path d="M67.66,15.119 L73.635,15.119 L73.635,17.201 L70.212,17.201 L70.212,21.541 L72.762,21.541 L72.762,23.6 L70.212,23.6 L70.212,30.29 L67.66,30.29 z" fill="#FFFFFE"/>
    <path d="M79.698,26.778 L79.698,18.634 C79.698,17.715 79.294,17.067 78.377,17.067 C77.482,17.067 77.08,17.715 77.08,18.634 L77.08,26.778 C77.08,27.695 77.482,28.343 78.377,28.343 C79.294,28.343 79.698,27.695 79.698,26.778 M74.528,26.373 L74.528,19.036 C74.528,16.664 75.692,14.94 78.377,14.94 C81.085,14.94 82.249,16.664 82.249,19.036 L82.249,26.373 C82.249,28.723 81.085,30.469 78.377,30.469 C75.692,30.469 74.528,28.723 74.528,26.373" fill="#FFFFFE"/>
    <path d="M86.252,17.201 L86.252,21.921 L87.103,21.921 C87.975,21.921 88.355,21.475 88.355,20.669 L88.355,18.432 C88.355,17.603 87.975,17.201 87.103,17.201 z M86.252,23.332 L86.252,30.29 L83.701,30.29 L83.701,15.119 L87.416,15.119 C89.99,15.119 90.929,16.395 90.929,18.52 L90.929,20.468 C90.929,22.101 90.348,23.063 88.892,23.399 L91.331,30.29 L88.646,30.29 z" fill="#FFFFFE"/>
    <path d="M95.939,28.21 C96.99,28.21 97.393,27.583 97.393,26.666 L97.393,18.722 C97.393,17.827 96.99,17.201 95.939,17.201 L94.865,17.201 L94.865,28.21 z M99.945,19.192 L99.945,26.217 C99.945,28.544 98.982,30.289 96.251,30.289 L92.314,30.289 L92.314,15.119 L96.251,15.119 C98.982,15.119 99.945,16.843 99.945,19.192" fill="#FFFFFE"/>
    <path d="M103.857,25.479 L105.894,25.479 L104.887,19.394 L104.865,19.394 z M100.658,30.29 L103.522,15.12 L106.431,15.12 L109.318,30.29 L106.7,30.29 L106.23,27.516 L103.522,27.516 L103.074,30.29 z" fill="#FFFFFE"/>
    <path d="M112.918,23.466 L112.918,28.209 L114.036,28.209 C114.888,28.209 115.29,27.783 115.29,26.979 L115.29,24.696 C115.29,23.89 114.909,23.466 114.015,23.466 z M112.918,21.52 L113.814,21.52 C114.641,21.52 115.022,21.094 115.022,20.288 L115.022,18.432 C115.022,17.604 114.641,17.201 113.79,17.201 L112.918,17.201 z M110.367,15.12 L114.06,15.12 C116.61,15.12 117.46,16.306 117.46,18.454 L117.46,19.998 C117.46,21.273 116.99,22.079 115.939,22.414 C117.215,22.705 117.841,23.556 117.841,24.942 L117.841,26.957 C117.841,29.105 116.878,30.29 114.327,30.29 L110.367,30.29 z" fill="#FFFFFE"/>
    <path d="M119.113,15.119 L121.664,15.119 L121.664,28.21 L124.708,28.21 L124.708,30.29 L119.113,30.29 z" fill="#FFFFFE"/>
    <path d="M125.869,15.119 L131.955,15.119 L131.955,17.201 L128.42,17.201 L128.42,21.541 L130.949,21.541 L130.949,23.6 L128.42,23.6 L128.42,28.21 L131.955,28.21 L131.955,30.29 L125.869,30.29 z" fill="#FFFFFE"/>
    <path d="M138.464,25.479 L140.5,25.479 L139.493,19.394 L139.472,19.394 z M135.265,30.29 L138.129,15.12 L141.038,15.12 L143.924,30.29 L141.306,30.29 L140.837,27.516 L138.129,27.516 L137.681,30.29 z" fill="#FFFFFE"/>
    <path d="M147.122,20.759 L147.122,30.29 L144.974,30.29 L144.974,15.119 L147.48,15.119 L150.232,23.824 L150.232,15.119 L152.358,15.119 L152.358,30.29 L150.12,30.29 z" fill="#FFFFFE"/>
    <path d="M157.435,28.21 C158.487,28.21 158.889,27.583 158.889,26.666 L158.889,18.722 C158.889,17.827 158.487,17.201 157.435,17.201 L156.361,17.201 L156.361,28.21 z M161.439,19.192 L161.439,26.217 C161.439,28.544 160.478,30.289 157.747,30.289 L153.809,30.289 L153.809,15.119 L157.747,15.119 C160.478,15.119 161.439,16.843 161.439,19.192" fill="#FFFFFE"/>
    <path d="M51.263,47.625 L51.263,40.286 C51.263,37.915 52.383,36.191 55.068,36.191 C57.886,36.191 58.67,37.757 58.67,39.996 L58.67,41.787 L56.343,41.787 L56.343,39.795 C56.343,38.854 56.029,38.317 55.112,38.317 C54.195,38.317 53.814,38.966 53.814,39.883 L53.814,48.03 C53.814,48.947 54.195,49.595 55.112,49.595 C56.029,49.595 56.343,49.013 56.343,48.118 L56.343,45.321 L58.67,45.321 L58.67,47.939 C58.67,50.109 57.775,51.721 55.068,51.721 C52.383,51.721 51.263,49.974 51.263,47.625" fill="#FFFFFE"/>
    <path d="M60.055,36.37 L62.607,36.37 L62.607,49.461 L65.65,49.461 L65.65,51.541 L60.055,51.541 z" fill="#FFFFFE"/>
    <path d="M66.81,36.37 L72.897,36.37 L72.897,38.452 L69.362,38.452 L69.362,42.791 L71.89,42.791 L71.89,44.852 L69.362,44.852 L69.362,49.461 L72.897,49.461 L72.897,51.541 L66.81,51.541 z" fill="#FFFFFE"/>
    <path d="M77.058,46.73 L79.093,46.73 L78.086,40.644 L78.065,40.644 z M73.858,51.541 L76.721,36.37 L79.631,36.37 L82.517,51.541 L79.899,51.541 L79.429,48.767 L76.721,48.767 L76.275,51.541 z" fill="#FFFFFE"/>
    <path d="M85.715,42.009 L85.715,51.541 L83.567,51.541 L83.567,36.37 L86.073,36.37 L88.825,45.074 L88.825,36.37 L90.951,36.37 L90.951,51.541 L88.713,51.541 z" fill="#FFFFFE"/>
    <path d="M94.752,36.37 L100.838,36.37 L100.838,38.452 L97.303,38.452 L97.303,42.791 L99.831,42.791 L99.831,44.852 L97.303,44.852 L97.303,49.461 L100.838,49.461 L100.838,51.541 L94.752,51.541 z" fill="#FFFFFE"/>
    <path d="M104.349,42.009 L104.349,51.541 L102.202,51.541 L102.202,36.37 L104.707,36.37 L107.46,45.074 L107.46,36.37 L109.586,36.37 L109.586,51.541 L107.348,51.541 z" fill="#FFFFFE"/>
    <path d="M111.037,36.37 L117.123,36.37 L117.123,38.452 L113.588,38.452 L113.588,42.791 L116.117,42.791 L116.117,44.852 L113.588,44.852 L113.588,49.461 L117.123,49.461 L117.123,51.541 L111.037,51.541 z" fill="#FFFFFE"/>
    <path d="M121.038,38.451 L121.038,43.172 L121.888,43.172 C122.761,43.172 123.141,42.725 123.141,41.92 L123.141,39.682 C123.141,38.854 122.761,38.451 121.888,38.451 z M121.038,44.582 L121.038,51.541 L118.487,51.541 L118.487,36.37 L122.202,36.37 C124.776,36.37 125.714,37.647 125.714,39.771 L125.714,41.718 C125.714,43.351 125.133,44.314 123.678,44.65 L126.117,51.541 L123.431,51.541 z" fill="#FFFFFE"/>
    <path d="M130.948,43.441 L134.573,43.441 L134.573,51.542 L132.738,51.542 L132.738,49.886 C132.402,51.027 131.686,51.72 130.299,51.72 C128.107,51.72 127.099,49.974 127.099,47.626 L127.099,40.286 C127.099,37.914 128.241,36.19 130.925,36.19 C133.744,36.19 134.573,37.757 134.573,39.996 L134.573,41.338 L132.246,41.338 L132.246,39.795 C132.246,38.854 131.888,38.316 130.97,38.316 C130.052,38.316 129.65,38.966 129.65,39.883 L129.65,48.029 C129.65,48.946 130.031,49.594 130.903,49.594 C131.731,49.594 132.157,49.125 132.157,48.14 L132.157,45.455 L130.948,45.455 z" fill="#FFFFFE"/>
    <path d="M140.434,45.769 L140.434,51.541 L137.883,51.541 L137.883,45.769 L135.041,36.37 L137.703,36.37 L139.249,42.122 L139.27,42.122 L140.814,36.37 L143.253,36.37 z" fill="#FFFFFE"/>
  </g>
</svg>
