<?xml version="1.0" encoding="UTF-8"?>
<!DOCTYPE svg PUBLIC "-//W3C//DTD SVG 1.1//EN" "http://www.w3.org/Graphics/SVG/1.1/DTD/svg11.dtd">
<svg version="1.1" xmlns="http://www.w3.org/2000/svg" xmlns:xlink="http://www.w3.org/1999/xlink" x="0" y="0" width="60" height="60" viewBox="0, 0, 180, 180">
  <g id="Layer_1">
    <path d="M0,180 L180,180 L180,0 L0,0 z" fill="#C28531"/>
    <path d="M135.681,93.392 C127.731,87.114 117.198,86.985 113.342,87.903 L112.894,88.006 C108.439,89.058 101.363,90.799 93.081,101.077 C93.035,101.133 92.986,101.193 92.943,101.251 L92.838,101.378 C92.757,101.493 92.701,101.628 92.701,101.778 C92.701,101.902 92.731,102.016 92.791,102.122 L92.982,102.439 C94.023,104.178 95.333,106.416 96.441,108.479 C96.452,108.5 96.462,108.516 96.471,108.541 C96.589,108.769 96.826,108.931 97.103,108.931 C97.295,108.931 97.468,108.854 97.593,108.732 C97.644,108.663 97.697,108.593 97.743,108.521 C105.095,98.355 110.875,96.951 114.786,96.031 L115.253,95.921 C117.283,95.434 125,95.463 130.571,99.862 C134.918,103.293 137.124,108.754 137.124,116.092 C137.124,128.4 131.138,133.214 126.114,135.086 C118.331,137.994 110.869,134.105 110.814,134.076 L110.48,133.914 C106.204,132.058 99.825,128.196 93.813,116.121 C81.695,91.783 71.557,89.492 64.85,87.972 L64.491,87.892 C61.437,87.2 50.831,86.711 42.494,93.365 C38.137,96.84 32.948,103.596 32.948,116.042 C32.948,123.626 34.506,128.633 38.51,133.902 C39.389,135.102 48.364,146.632 65.714,143.306 C68.492,142.774 72.254,141.448 76.392,138.348 L80.211,141.792 C80.459,142.018 80.857,142 81.087,141.749 C81.196,141.632 81.241,141.482 81.239,141.335 L81.239,141.284 L83.994,124.338 L83.996,124.15 C83.994,123.984 83.927,123.817 83.792,123.699 C83.676,123.588 83.531,123.545 83.387,123.545 L83.269,123.557 L83.09,123.575 L66.858,128.118 L66.562,128.167 C66.444,128.192 66.335,128.254 66.252,128.349 C66.016,128.606 66.038,129 66.298,129.229 L66.489,129.404 L70.126,132.69 C67.777,134.209 65.731,134.908 64.168,135.211 C51.615,137.605 45.417,129.383 45.181,129.06 L45.093,128.94 C42.177,125.111 41.191,121.857 41.191,116.042 C41.191,108.684 43.359,103.219 47.634,99.805 C53.063,95.473 60.55,95.448 62.665,95.929 L63.03,96.012 C68.526,97.256 76.058,98.959 86.43,119.795 C91.818,130.611 98.567,137.684 107.059,141.415 C108.14,141.966 113.296,144.41 119.988,144.41 C122.786,144.41 125.851,143.983 128.996,142.815 C133.918,140.978 145.368,134.701 145.368,116.092 C145.368,103.652 140.101,96.882 135.681,93.392" fill="#FFFFFE"/>
    <path d="M17.969,23.651 L18.024,23.651 L18.024,51.433 L24.126,51.433 L24.126,15.141 L19.249,15.141 L13.632,21.725 L13.632,28.095 L13.684,28.095 z" fill="#FFFFFE"/>
    <path d="M27.763,22.636 L27.763,27.024 L33.329,27.024 L33.329,22.474 C33.329,20.28 34.402,19.637 35.685,19.637 C36.865,19.637 37.88,20.119 37.88,22.369 L37.88,25.364 C37.88,28.364 37.614,29.54 35.63,31.627 L32.207,35.267 C28.888,38.802 27.654,41.156 27.654,44.743 L27.654,51.435 L43.502,51.435 L43.502,46.455 L33.489,46.455 L33.489,44.743 C33.489,41.905 34.507,40.835 36.058,39.176 L39.966,35.054 C43.126,31.683 43.823,29.54 43.823,25.9 L43.823,22.369 C43.823,17.175 41.309,14.714 35.846,14.714 C30.491,14.714 27.763,17.55 27.763,22.636" fill="#FFFFFE"/>
    <path d="M60.37,17.201 L60.37,21.921 L61.221,21.921 C62.094,21.921 62.474,21.475 62.474,20.669 L62.474,18.432 C62.474,17.603 62.094,17.201 61.221,17.201 z M60.37,23.332 L60.37,30.29 L57.82,30.29 L57.82,15.119 L61.535,15.119 C64.108,15.119 65.047,16.395 65.047,18.52 L65.047,20.468 C65.047,22.101 64.466,23.063 63.011,23.399 L65.451,30.29 L62.766,30.29 z" fill="#FFFFFE"/>
    <path d="M66.119,15.119 L72.206,15.119 L72.206,17.201 L68.67,17.201 L68.67,21.541 L71.2,21.541 L71.2,23.6 L68.67,23.6 L68.67,28.21 L72.206,28.21 L72.206,30.29 L66.119,30.29 z" fill="#FFFFFE"/>
    <path d="M73.011,27.024 L73.011,24.988 L75.383,24.988 L75.383,27.068 C75.383,27.919 75.764,28.411 76.637,28.411 C77.441,28.411 77.799,27.875 77.799,27.068 L77.799,26.486 C77.799,25.613 77.441,25.077 76.66,24.338 L75.158,22.839 C73.705,21.408 73.034,20.535 73.034,18.789 L73.034,18.275 C73.034,16.395 74.131,14.941 76.614,14.941 C79.165,14.941 80.171,16.194 80.171,18.387 L80.171,19.618 L77.844,19.618 L77.844,18.297 C77.844,17.425 77.441,17 76.637,17 C75.921,17 75.428,17.402 75.428,18.253 L75.428,18.566 C75.428,19.416 75.898,19.909 76.637,20.625 L78.27,22.235 C79.656,23.645 80.328,24.495 80.328,26.172 L80.328,26.911 C80.328,28.993 79.21,30.469 76.614,30.469 C74.019,30.469 73.011,29.014 73.011,27.024" fill="#FFFFFE"/>
    <path d="M83.905,17.201 L83.905,23.175 L84.846,23.175 C85.718,23.175 86.1,22.75 86.1,21.921 L86.1,18.432 C86.1,17.603 85.718,17.201 84.846,17.201 z M81.354,15.119 L85.136,15.119 C87.711,15.119 88.65,16.395 88.65,18.52 L88.65,21.72 C88.65,23.845 87.711,25.143 85.136,25.143 L83.905,25.143 L83.905,30.29 L81.354,30.29 z" fill="#FFFFFE"/>
    <path d="M94.824,26.778 L94.824,18.634 C94.824,17.715 94.421,17.067 93.504,17.067 C92.609,17.067 92.205,17.715 92.205,18.634 L92.205,26.778 C92.205,27.695 92.609,28.343 93.504,28.343 C94.421,28.343 94.824,27.695 94.824,26.778 M89.654,26.373 L89.654,19.036 C89.654,16.664 90.819,14.94 93.504,14.94 C96.211,14.94 97.374,16.664 97.374,19.036 L97.374,26.373 C97.374,28.723 96.211,30.469 93.504,30.469 C90.819,30.469 89.654,28.723 89.654,26.373" fill="#FFFFFE"/>
    <path d="M100.663,20.759 L100.663,30.29 L98.515,30.29 L98.515,15.119 L101.021,15.119 L103.775,23.824 L103.775,15.119 L105.899,15.119 L105.899,30.29 L103.662,30.29 z" fill="#FFFFFE"/>
    <path d="M106.903,27.024 L106.903,24.988 L109.276,24.988 L109.276,27.068 C109.276,27.919 109.657,28.411 110.53,28.411 C111.334,28.411 111.692,27.875 111.692,27.068 L111.692,26.486 C111.692,25.613 111.334,25.077 110.552,24.338 L109.051,22.839 C107.598,21.408 106.927,20.535 106.927,18.789 L106.927,18.275 C106.927,16.395 108.024,14.941 110.508,14.941 C113.058,14.941 114.064,16.194 114.064,18.387 L114.064,19.618 L111.737,19.618 L111.737,18.297 C111.737,17.425 111.334,17 110.53,17 C109.814,17 109.321,17.402 109.321,18.253 L109.321,18.566 C109.321,19.416 109.791,19.909 110.53,20.625 L112.163,22.235 C113.549,23.645 114.221,24.495 114.221,26.172 L114.221,26.911 C114.221,28.993 113.103,30.469 110.508,30.469 C107.911,30.469 106.903,29.014 106.903,27.024" fill="#FFFFFE"/>
    <path d="M115.247,30.29 L117.798,30.29 L117.798,15.12 L115.247,15.12 z" fill="#FFFFFE"/>
    <path d="M121.512,23.466 L121.512,28.209 L122.632,28.209 C123.481,28.209 123.884,27.783 123.884,26.979 L123.884,24.696 C123.884,23.89 123.505,23.466 122.608,23.466 z M121.512,21.52 L122.407,21.52 C123.236,21.52 123.615,21.094 123.615,20.288 L123.615,18.432 C123.615,17.604 123.236,17.201 122.384,17.201 L121.512,17.201 z M118.961,15.12 L122.654,15.12 C125.205,15.12 126.055,16.306 126.055,18.454 L126.055,19.998 C126.055,21.273 125.585,22.079 124.532,22.414 C125.808,22.705 126.436,23.556 126.436,24.942 L126.436,26.957 C126.436,29.105 125.472,30.29 122.922,30.29 L118.961,30.29 z" fill="#FFFFFE"/>
    <path d="M127.396,15.119 L129.946,15.119 L129.946,28.21 L132.989,28.21 L132.989,30.29 L127.396,30.29 z" fill="#FFFFFE"/>
    <path d="M133.839,15.119 L139.925,15.119 L139.925,17.201 L136.389,17.201 L136.389,21.541 L138.919,21.541 L138.919,23.6 L136.389,23.6 L136.389,28.21 L139.925,28.21 L139.925,30.29 L133.839,30.29 z" fill="#FFFFFE"/>
    <path d="M57.819,47.625 L57.819,40.286 C57.819,37.915 58.938,36.191 61.623,36.191 C64.443,36.191 65.227,37.757 65.227,39.996 L65.227,41.787 L62.898,41.787 L62.898,39.795 C62.898,38.854 62.587,38.317 61.67,38.317 C60.75,38.317 60.37,38.966 60.37,39.883 L60.37,48.03 C60.37,48.947 60.75,49.595 61.67,49.595 C62.587,49.595 62.898,49.013 62.898,48.118 L62.898,45.321 L65.227,45.321 L65.227,47.939 C65.227,50.109 64.331,51.721 61.623,51.721 C58.938,51.721 57.819,49.974 57.819,47.625" fill="#FFFFFE"/>
    <path d="M71.468,48.029 L71.468,39.884 C71.468,38.967 71.065,38.317 70.148,38.317 C69.253,38.317 68.848,38.967 68.848,39.884 L68.848,48.029 C68.848,48.946 69.253,49.594 70.148,49.594 C71.065,49.594 71.468,48.946 71.468,48.029 M66.298,47.625 L66.298,40.286 C66.298,37.915 67.463,36.191 70.148,36.191 C72.855,36.191 74.018,37.915 74.018,40.286 L74.018,47.625 C74.018,49.975 72.855,51.72 70.148,51.72 C67.463,51.72 66.298,49.975 66.298,47.625" fill="#FFFFFE"/>
    <path d="M77.306,42.009 L77.306,51.541 L75.158,51.541 L75.158,36.37 L77.663,36.37 L80.417,45.074 L80.417,36.37 L82.541,36.37 L82.541,51.541 L80.304,51.541 z" fill="#FFFFFE"/>
    <path d="M83.546,48.275 L83.546,46.239 L85.919,46.239 L85.919,48.319 C85.919,49.17 86.299,49.662 87.172,49.662 C87.977,49.662 88.335,49.126 88.335,48.319 L88.335,47.737 C88.335,46.865 87.977,46.328 87.194,45.589 L85.694,44.091 C84.239,42.659 83.57,41.786 83.57,40.041 L83.57,39.526 C83.57,37.646 84.666,36.191 87.15,36.191 C89.701,36.191 90.706,37.444 90.706,39.638 L90.706,40.869 L88.379,40.869 L88.379,39.547 C88.379,38.675 87.977,38.25 87.172,38.25 C86.456,38.25 85.963,38.652 85.963,39.503 L85.963,39.817 C85.963,40.666 86.433,41.159 87.172,41.875 L88.805,43.486 C90.192,44.896 90.863,45.746 90.863,47.424 L90.863,48.162 C90.863,50.244 89.745,51.72 87.15,51.72 C84.554,51.72 83.546,50.266 83.546,48.275" fill="#FFFFFE"/>
    <path d="M99.298,36.37 L99.298,47.85 C99.298,50.199 98.29,51.72 95.693,51.72 C93.008,51.72 91.889,50.199 91.889,47.85 L91.889,36.37 L94.441,36.37 L94.441,48.096 C94.441,48.99 94.799,49.594 95.693,49.594 C96.588,49.594 96.946,48.99 96.946,48.096 L96.946,36.37 z" fill="#FFFFFE"/>
    <path d="M107.463,41.696 L107.396,41.696 L105.673,51.541 L104.488,51.541 L102.585,41.696 L102.541,41.696 L102.541,51.541 L100.436,51.541 L100.436,36.37 L103.414,36.37 L105.069,44.917 L105.091,44.917 L106.567,36.37 L109.79,36.37 L109.79,51.541 L107.463,51.541 z" fill="#FFFFFE"/>
    <path d="M113.48,38.451 L113.48,44.425 L114.421,44.425 C115.292,44.425 115.674,44 115.674,43.172 L115.674,39.682 C115.674,38.854 115.292,38.451 114.421,38.451 z M110.929,36.37 L114.71,36.37 C117.285,36.37 118.224,37.647 118.224,39.771 L118.224,42.971 C118.224,45.097 117.285,46.395 114.71,46.395 L113.48,46.395 L113.48,51.541 L110.929,51.541 z" fill="#FFFFFE"/>
    <path d="M118.828,36.37 L125.607,36.37 L125.607,38.452 L123.504,38.452 L123.504,51.541 L120.93,51.541 L120.93,38.452 L118.828,38.452 z" fill="#FFFFFE"/>
    <path d="M126.478,51.541 L129.028,51.541 L129.028,36.37 L126.478,36.37 z" fill="#FFFFFE"/>
    <path d="M135.361,48.029 L135.361,39.884 C135.361,38.967 134.958,38.317 134.041,38.317 C133.146,38.317 132.743,38.967 132.743,39.884 L132.743,48.029 C132.743,48.946 133.146,49.594 134.041,49.594 C134.958,49.594 135.361,48.946 135.361,48.029 M130.191,47.625 L130.191,40.286 C130.191,37.915 131.356,36.191 134.041,36.191 C136.748,36.191 137.912,37.915 137.912,40.286 L137.912,47.625 C137.912,49.975 136.748,51.72 134.041,51.72 C131.356,51.72 130.191,49.975 130.191,47.625" fill="#FFFFFE"/>
    <path d="M141.199,42.009 L141.199,51.541 L139.051,51.541 L139.051,36.37 L141.557,36.37 L144.308,45.074 L144.308,36.37 L146.434,36.37 L146.434,51.541 L144.198,51.541 z" fill="#FFFFFE"/>
    <path d="M60.617,67.983 L62.653,67.983 L61.647,61.897 L61.623,61.897 z M57.417,72.794 L60.282,57.623 L63.19,57.623 L66.077,72.794 L63.459,72.794 L62.989,70.018 L60.282,70.018 L59.833,72.794 z" fill="#FFFFFE"/>
    <path d="M68.961,63.261 L68.961,72.794 L66.813,72.794 L66.813,57.623 L69.319,57.623 L72.071,66.328 L72.071,57.623 L74.197,57.623 L74.197,72.794 L71.96,72.794 z" fill="#FFFFFE"/>
    <path d="M78.961,70.712 C80.013,70.712 80.417,70.086 80.417,69.168 L80.417,61.225 C80.417,60.329 80.013,59.704 78.961,59.704 L77.887,59.704 L77.887,70.712 z M82.968,61.695 L82.968,68.721 C82.968,71.048 82.004,72.794 79.274,72.794 L75.337,72.794 L75.337,57.623 L79.274,57.623 C82.004,57.623 82.968,59.347 82.968,61.695" fill="#FFFFFE"/>
    <path d="M88.691,59.704 L88.691,65.678 L89.632,65.678 C90.505,65.678 90.886,65.253 90.886,64.425 L90.886,60.934 C90.886,60.106 90.505,59.704 89.632,59.704 z M86.14,57.622 L89.922,57.622 C92.497,57.622 93.436,58.897 93.436,61.024 L93.436,64.224 C93.436,66.35 92.497,67.647 89.922,67.647 L88.691,67.647 L88.691,72.794 L86.14,72.794 z" fill="#FFFFFE"/>
    <path d="M96.993,59.704 L96.993,64.425 L97.844,64.425 C98.716,64.425 99.096,63.977 99.096,63.172 L99.096,60.934 C99.096,60.106 98.716,59.704 97.844,59.704 z M96.993,65.835 L96.993,72.794 L94.442,72.794 L94.442,57.622 L98.157,57.622 C100.73,57.622 101.671,58.897 101.671,61.024 L101.671,62.97 C101.671,64.604 101.088,65.566 99.634,65.901 L102.073,72.794 L99.388,72.794 z" fill="#FFFFFE"/>
    <path d="M107.911,69.28 L107.911,61.136 C107.911,60.218 107.509,59.57 106.591,59.57 C105.696,59.57 105.293,60.218 105.293,61.136 L105.293,69.28 C105.293,70.198 105.696,70.847 106.591,70.847 C107.509,70.847 107.911,70.198 107.911,69.28 M102.741,68.878 L102.741,61.538 C102.741,59.167 103.906,57.444 106.591,57.444 C109.299,57.444 110.462,59.167 110.462,61.538 L110.462,68.878 C110.462,71.227 109.299,72.973 106.591,72.973 C103.906,72.973 102.741,71.227 102.741,68.878" fill="#FFFFFE"/>
    <path d="M115.225,70.712 C116.278,70.712 116.68,70.086 116.68,69.168 L116.68,61.225 C116.68,60.329 116.278,59.704 115.225,59.704 L114.152,59.704 L114.152,70.712 z M119.232,61.695 L119.232,68.721 C119.232,71.048 118.269,72.794 115.539,72.794 L111.6,72.794 L111.6,57.623 L115.539,57.623 C118.269,57.623 119.232,59.347 119.232,61.695" fill="#FFFFFE"/>
    <path d="M127.776,57.623 L127.776,69.101 C127.776,71.451 126.77,72.973 124.173,72.973 C121.488,72.973 120.37,71.451 120.37,69.101 L120.37,57.623 L122.92,57.623 L122.92,69.347 C122.92,70.242 123.278,70.846 124.173,70.846 C125.068,70.846 125.427,70.242 125.427,69.347 L125.427,57.623 z" fill="#FFFFFE"/>
    <path d="M128.915,68.878 L128.915,61.538 C128.915,59.168 130.033,57.444 132.718,57.444 C135.538,57.444 136.321,59.01 136.321,61.247 L136.321,63.037 L133.996,63.037 L133.996,61.046 C133.996,60.106 133.682,59.57 132.764,59.57 C131.847,59.57 131.465,60.218 131.465,61.136 L131.465,69.28 C131.465,70.197 131.847,70.847 132.764,70.847 C133.682,70.847 133.996,70.265 133.996,69.371 L133.996,66.573 L136.321,66.573 L136.321,69.191 C136.321,71.362 135.428,72.973 132.718,72.973 C130.033,72.973 128.915,71.227 128.915,68.878" fill="#FFFFFE"/>
    <path d="M136.879,57.623 L143.66,57.623 L143.66,59.704 L141.557,59.704 L141.557,72.794 L138.982,72.794 L138.982,59.704 L136.879,59.704 z" fill="#FFFFFE"/>
    <path d="M144.53,72.794 L147.08,72.794 L147.08,57.622 L144.53,57.622 z" fill="#FFFFFE"/>
    <path d="M153.413,69.28 L153.413,61.136 C153.413,60.218 153.011,59.57 152.094,59.57 C151.198,59.57 150.795,60.218 150.795,61.136 L150.795,69.28 C150.795,70.198 151.198,70.847 152.094,70.847 C153.011,70.847 153.413,70.198 153.413,69.28 M148.244,68.878 L148.244,61.538 C148.244,59.167 149.408,57.444 152.094,57.444 C154.801,57.444 155.963,59.167 155.963,61.538 L155.963,68.878 C155.963,71.227 154.801,72.973 152.094,72.973 C149.408,72.973 148.244,71.227 148.244,68.878" fill="#FFFFFE"/>
    <path d="M159.253,63.261 L159.253,72.794 L157.105,72.794 L157.105,57.623 L159.611,57.623 L162.362,66.328 L162.362,57.623 L164.488,57.623 L164.488,72.794 L162.252,72.794 z" fill="#FFFFFE"/>
  </g>
</svg>
