<?xml version="1.0" encoding="UTF-8"?>
<!DOCTYPE svg PUBLIC "-//W3C//DTD SVG 1.1//EN" "http://www.w3.org/Graphics/SVG/1.1/DTD/svg11.dtd">
<svg version="1.1" xmlns="http://www.w3.org/2000/svg" xmlns:xlink="http://www.w3.org/1999/xlink" x="0" y="0" width="60" height="60" viewBox="0, 0, 180, 180">
  <g id="Layer_1">
    <path d="M0,180 L180,180 L180,0 L0,0 z" fill="#CE1E75"/>
    <path d="M17.3,23.584 L17.3,51.394 L23.408,51.394 L23.408,15.065 L18.53,15.065 L12.907,21.655 L12.907,28.033 L12.957,28.033 L17.243,23.584 z" fill="#FFFFFE"/>
    <path d="M33.749,42.982 L33.749,23.476 C33.749,21.28 34.551,19.726 36.643,19.726 C38.785,19.726 39.589,21.28 39.589,23.476 L39.589,42.982 C39.589,45.18 38.785,46.731 36.643,46.731 C34.551,46.731 33.749,45.18 33.749,42.982 M45.698,42.018 L45.698,24.441 C45.698,18.76 42.859,14.636 36.643,14.636 C30.482,14.636 27.639,18.76 27.639,24.441 L27.639,42.018 C27.639,47.642 30.482,51.822 36.643,51.822 C42.859,51.822 45.698,47.642 45.698,42.018" fill="#FFFFFE"/>
    <path d="M60.606,17.201 L60.606,21.921 L61.457,21.921 C62.33,21.921 62.709,21.475 62.709,20.669 L62.709,18.432 C62.709,17.603 62.33,17.201 61.457,17.201 z M60.606,23.332 L60.606,30.29 L58.056,30.29 L58.056,15.119 L61.771,15.119 C64.343,15.119 65.284,16.395 65.284,18.52 L65.284,20.468 C65.284,22.101 64.701,23.063 63.247,23.399 L65.687,30.29 L63.001,30.29 z" fill="#FFFFFE"/>
    <path d="M66.668,15.119 L72.755,15.119 L72.755,17.201 L69.218,17.201 L69.218,21.541 L71.747,21.541 L71.747,23.6 L69.218,23.6 L69.218,28.21 L72.755,28.21 L72.755,30.29 L66.668,30.29 z" fill="#FFFFFE"/>
    <path d="M77.743,28.21 C78.796,28.21 79.199,27.583 79.199,26.666 L79.199,18.722 C79.199,17.827 78.796,17.201 77.743,17.201 L76.67,17.201 L76.67,28.21 z M81.75,19.192 L81.75,26.217 C81.75,28.544 80.787,30.289 78.057,30.289 L74.118,30.289 L74.118,15.119 L78.057,15.119 C80.787,15.119 81.75,16.843 81.75,19.192" fill="#FFFFFE"/>
    <path d="M90.606,15.119 L90.606,26.599 C90.606,28.948 89.6,30.469 87.003,30.469 C84.318,30.469 83.2,28.948 83.2,26.599 L83.2,15.119 L85.75,15.119 L85.75,26.844 C85.75,27.74 86.108,28.343 87.003,28.343 C87.899,28.343 88.257,27.74 88.257,26.844 L88.257,15.119 z" fill="#FFFFFE"/>
    <path d="M92.058,26.374 L92.058,19.035 C92.058,16.664 93.177,14.941 95.862,14.941 C98.682,14.941 99.464,16.507 99.464,18.744 L99.464,20.535 L97.139,20.535 L97.139,18.543 C97.139,17.604 96.825,17.066 95.908,17.066 C94.99,17.066 94.608,17.716 94.608,18.633 L94.608,26.778 C94.608,27.695 94.99,28.343 95.908,28.343 C96.825,28.343 97.139,27.761 97.139,26.867 L97.139,24.069 L99.464,24.069 L99.464,26.688 C99.464,28.858 98.571,30.469 95.862,30.469 C93.177,30.469 92.058,28.723 92.058,26.374" fill="#FFFFFE"/>
    <path d="M100.85,15.119 L106.937,15.119 L106.937,17.201 L103.401,17.201 L103.401,21.541 L105.931,21.541 L105.931,23.6 L103.401,23.6 L103.401,28.21 L106.937,28.21 L106.937,30.29 L100.85,30.29 z" fill="#FFFFFE"/>
    <path d="M111.925,28.21 C112.978,28.21 113.38,27.583 113.38,26.666 L113.38,18.722 C113.38,17.827 112.978,17.201 111.925,17.201 L110.851,17.201 L110.851,28.21 z M115.932,19.192 L115.932,26.217 C115.932,28.544 114.969,30.289 112.239,30.289 L108.301,30.289 L108.301,15.119 L112.239,15.119 C114.969,15.119 115.932,16.843 115.932,19.192" fill="#FFFFFE"/>
    <path d="M58.056,51.541 L60.606,51.541 L60.606,36.37 L58.056,36.37 z" fill="#FFFFFE"/>
    <path d="M64.23,42.009 L64.23,51.541 L62.083,51.541 L62.083,36.37 L64.588,36.37 L67.34,45.074 L67.34,36.37 L69.466,36.37 L69.466,51.541 L67.229,51.541 z" fill="#FFFFFE"/>
    <path d="M70.919,36.37 L77.005,36.37 L77.005,38.452 L73.469,38.452 L73.469,42.791 L76,42.791 L76,44.852 L73.469,44.852 L73.469,49.461 L77.005,49.461 L77.005,51.541 L70.919,51.541 z" fill="#FFFFFE"/>
    <path d="M83.313,48.162 L83.313,39.884 C83.313,38.967 82.911,38.317 81.994,38.317 C81.099,38.317 80.695,38.967 80.695,39.884 L80.695,48.162 C80.695,49.058 81.099,49.729 81.994,49.729 C82.911,49.729 83.313,49.058 83.313,48.162 M81.053,52.571 L81.053,51.542 C79.017,51.183 78.144,49.685 78.144,47.626 L78.144,40.286 C78.144,37.914 79.309,36.191 81.994,36.191 C84.701,36.191 85.864,37.914 85.864,40.286 L85.864,47.626 C85.864,49.283 85.283,50.579 83.985,51.205 L85.864,51.563 L85.864,53.465 z" fill="#FFFFFE"/>
    <path d="M94.724,36.37 L94.724,47.85 C94.724,50.199 93.716,51.72 91.121,51.72 C88.436,51.72 87.316,50.199 87.316,47.85 L87.316,36.37 L89.867,36.37 L89.867,48.096 C89.867,48.99 90.225,49.594 91.121,49.594 C92.015,49.594 92.373,48.99 92.373,48.096 L92.373,36.37 z" fill="#FFFFFE"/>
    <path d="M98.637,46.73 L100.673,46.73 L99.667,40.644 L99.643,40.644 z M95.437,51.541 L98.302,36.37 L101.21,36.37 L104.096,51.541 L101.479,51.541 L101.009,48.767 L98.302,48.767 L97.853,51.541 z" fill="#FFFFFE"/>
    <path d="M105.147,36.37 L107.697,36.37 L107.697,49.461 L110.74,49.461 L110.74,51.541 L105.147,51.541 z" fill="#FFFFFE"/>
    <path d="M111.903,51.541 L114.453,51.541 L114.453,36.37 L111.903,36.37 z" fill="#FFFFFE"/>
    <path d="M115.639,36.37 L122.42,36.37 L122.42,38.452 L120.317,38.452 L120.317,51.541 L117.742,51.541 L117.742,38.452 L115.639,38.452 z" fill="#FFFFFE"/>
    <path d="M123.602,51.541 L126.153,51.541 L126.153,36.37 L123.602,36.37 z" fill="#FFFFFE"/>
    <path d="M127.629,36.37 L133.716,36.37 L133.716,38.452 L130.18,38.452 L130.18,42.791 L132.71,42.791 L132.71,44.852 L130.18,44.852 L130.18,49.461 L133.716,49.461 L133.716,51.541 L127.629,51.541 z" fill="#FFFFFE"/>
    <path d="M134.834,48.275 L134.834,46.24 L137.207,46.24 L137.207,48.319 C137.207,49.17 137.588,49.662 138.46,49.662 C139.265,49.662 139.623,49.126 139.623,48.319 L139.623,47.737 C139.623,46.865 139.265,46.328 138.482,45.59 L136.982,44.091 C135.529,42.659 134.858,41.786 134.858,40.041 L134.858,39.526 C134.858,37.646 135.955,36.191 138.439,36.191 C140.989,36.191 141.995,37.444 141.995,39.638 L141.995,40.869 L139.667,40.869 L139.667,39.548 C139.667,38.675 139.265,38.25 138.46,38.25 C137.744,38.25 137.251,38.652 137.251,39.503 L137.251,39.817 C137.251,40.666 137.722,41.159 138.46,41.875 L140.093,43.486 C141.48,44.896 142.151,45.746 142.151,47.424 L142.151,48.162 C142.151,50.244 141.033,51.72 138.439,51.72 C135.842,51.72 134.834,50.266 134.834,48.275" fill="#FFFFFE"/>
    <path d="M106.609,118.114 L73.458,118.114 C73.259,118.114 73.098,118.295 73.098,118.517 L73.098,128.479 C73.098,128.705 73.259,128.884 73.458,128.884 L106.609,128.884 C106.812,128.884 106.973,128.705 106.973,128.479 L106.973,118.517 C106.973,118.295 106.812,118.114 106.609,118.114" fill="#FFFFFE"/>
    <path d="M106.609,96.916 L73.458,96.916 C73.259,96.916 73.098,97.097 73.098,97.318 L73.098,107.281 C73.098,107.507 73.259,107.686 73.458,107.686 L106.609,107.686 C106.812,107.686 106.973,107.507 106.973,107.281 L106.973,97.318 C106.973,97.097 106.812,96.916 106.609,96.916" fill="#FFFFFE"/>
    <path d="M106.142,81.856 L90.23,65.944 C90.123,65.837 89.949,65.837 89.841,65.944 L73.929,81.856 C73.756,82.029 73.878,82.325 74.123,82.325 L105.948,82.325 C106.193,82.325 106.316,82.029 106.142,81.856" fill="#FFFFFE"/>
    <path d="M121.08,129.006 L136.993,113.094 C137.1,112.987 137.1,112.813 136.993,112.706 L121.08,96.794 C120.907,96.62 120.611,96.743 120.611,96.988 L120.611,128.812 C120.611,129.057 120.907,129.179 121.08,129.006" fill="#FFFFFE"/>
    <path d="M73.929,143.944 L89.841,159.856 C89.949,159.963 90.123,159.963 90.23,159.856 L106.142,143.944 C106.316,143.771 106.193,143.474 105.948,143.474 L74.123,143.474 C73.878,143.474 73.756,143.771 73.929,143.944" fill="#FFFFFE"/>
    <path d="M58.991,96.794 L43.079,112.706 C42.971,112.813 42.971,112.987 43.079,113.094 L58.991,129.006 C59.164,129.179 59.46,129.057 59.46,128.812 L59.46,96.988 C59.46,96.743 59.164,96.621 58.991,96.794" fill="#FFFFFE"/>
  </g>
</svg>
