<?xml version="1.0" encoding="UTF-8"?>
<!DOCTYPE svg PUBLIC "-//W3C//DTD SVG 1.1//EN" "http://www.w3.org/Graphics/SVG/1.1/DTD/svg11.dtd">
<svg version="1.1" xmlns="http://www.w3.org/2000/svg" xmlns:xlink="http://www.w3.org/1999/xlink" x="0" y="0" width="60" height="60" viewBox="0, 0, 180, 180">
  <g id="Layer_1">
    <path d="M0,180 L180,180 L180,0 L0,0 z" fill="#00A3C5"/>
    <path d="M118.629,86.745 C116.86,85.965 114.616,86.247 112.461,87.119 C104.359,90.404 98.844,91.585 90.321,88.917 C84.954,87.236 79.933,83.718 73.997,85.861 C70.058,87.277 66.387,88.629 61.934,88.594 L59.362,75.407 L120.478,75.407 z M97.913,125.905 C97.913,125.905 94.946,128.953 90.121,128.624 C85.283,128.953 82.32,125.905 82.32,125.905 C77.427,121.018 79.173,114.937 80.876,111.794 C81.927,109.826 89.445,98.538 90.09,97.579 L90.09,97.502 C90.09,97.502 90.102,97.517 90.121,97.539 L90.147,97.502 L90.147,97.579 C90.776,98.538 98.304,109.826 99.357,111.794 C101.061,114.937 102.801,121.018 97.913,125.905 M123.152,72.785 C122.999,72.619 122.794,72.526 122.561,72.526 L57.257,72.526 C57.031,72.526 56.824,72.619 56.671,72.785 C56.528,72.968 56.471,73.193 56.508,73.402 L67.478,139.756 C67.539,140.122 67.86,140.395 68.231,140.395 L81.697,140.395 L82.618,151.202 L76.952,151.208 L90.137,164.392 L103.353,151.179 L97.688,151.184 L98.608,140.395 L112.311,140.395 C112.688,140.395 113.004,140.122 113.06,139.744 L123.325,73.402 C123.359,73.175 123.293,72.957 123.152,72.785" fill="#FFFFFE"/>
    <path d="M24.397,36.598 C24.504,34.565 25.361,33.28 27.288,33.28 C29.374,33.28 30.178,34.565 30.178,36.921 L30.178,43.238 C30.178,45.538 29.323,46.878 27.235,46.878 C25.199,46.878 24.397,45.486 24.397,43.238 z M27.235,51.856 C33.711,51.856 36.228,48.321 36.228,42.7 L36.228,37.347 C36.228,31.406 33.872,28.409 29.481,28.409 C26.912,28.409 25.361,29.588 24.449,31.354 L24.397,31.354 L24.397,23.538 C24.397,21.342 25.094,19.79 27.288,19.79 C29.481,19.79 30.126,21.077 30.126,23.324 L30.126,25.733 L35.692,25.733 L35.692,23.805 C35.692,18.451 33.925,14.707 27.181,14.707 C20.757,14.707 18.347,18.828 18.347,24.501 L18.347,42.165 C18.347,47.787 20.81,51.856 27.235,51.856" fill="#FFFFFE"/>
    <path d="M52.227,26.758 L52.227,19.418 C52.227,17.048 53.345,15.324 56.031,15.324 C58.85,15.324 59.635,16.89 59.635,19.129 L59.635,20.918 L57.306,20.918 L57.306,18.927 C57.306,17.987 56.994,17.45 56.077,17.45 C55.158,17.45 54.777,18.099 54.777,19.016 L54.777,27.161 C54.777,28.078 55.158,28.727 56.077,28.727 C56.994,28.727 57.306,28.146 57.306,27.251 L57.306,24.454 L59.635,24.454 L59.635,27.072 C59.635,29.242 58.738,30.854 56.031,30.854 C53.345,30.854 52.227,29.107 52.227,26.758" fill="#FFFFFE"/>
    <path d="M61.02,15.503 L63.57,15.503 L63.57,28.594 L66.613,28.594 L66.613,30.674 L61.02,30.674 z" fill="#FFFFFE"/>
    <path d="M67.776,15.503 L73.863,15.503 L73.863,17.585 L70.326,17.585 L70.326,21.925 L72.857,21.925 L72.857,23.983 L70.326,23.983 L70.326,28.594 L73.863,28.594 L73.863,30.674 L67.776,30.674 z" fill="#FFFFFE"/>
    <path d="M78.023,25.863 L80.058,25.863 L79.051,19.777 L79.029,19.777 z M74.823,30.674 L77.688,15.503 L80.596,15.503 L83.482,30.674 L80.865,30.674 L80.395,27.899 L77.688,27.899 L77.239,30.674 z" fill="#FFFFFE"/>
    <path d="M86.681,21.142 L86.681,30.674 L84.533,30.674 L84.533,15.503 L87.039,15.503 L89.792,24.207 L89.792,15.503 L91.916,15.503 L91.916,30.674 L89.68,30.674 z" fill="#FFFFFE"/>
    <path d="M101.224,21.298 L99.792,30.674 L97.397,30.674 L95.36,15.503 L97.823,15.503 L99.009,25.125 L99.032,25.125 L100.307,15.503 L102.387,15.503 L103.797,25.125 L103.819,25.125 L104.983,15.503 L107.131,15.503 L105.163,30.674 L102.745,30.674 L101.246,21.298 z" fill="#FFFFFE"/>
    <path d="M110.127,25.863 L112.163,25.863 L111.157,19.777 L111.133,19.777 z M106.927,30.674 L109.791,15.503 L112.7,15.503 L115.587,30.674 L112.969,30.674 L112.499,27.899 L109.791,27.899 L109.343,30.674 z" fill="#FFFFFE"/>
    <path d="M115.229,15.503 L122.007,15.503 L122.007,17.585 L119.905,17.585 L119.905,30.674 L117.331,30.674 L117.331,17.585 L115.229,17.585 z" fill="#FFFFFE"/>
    <path d="M123.191,15.503 L129.278,15.503 L129.278,17.585 L125.741,17.585 L125.741,21.925 L128.27,21.925 L128.27,23.983 L125.741,23.983 L125.741,28.594 L129.278,28.594 L129.278,30.674 L123.191,30.674 z" fill="#FFFFFE"/>
    <path d="M133.192,17.584 L133.192,22.305 L134.043,22.305 C134.916,22.305 135.296,21.858 135.296,21.052 L135.296,18.815 C135.296,17.987 134.916,17.584 134.043,17.584 z M133.192,23.715 L133.192,30.674 L130.642,30.674 L130.642,15.503 L134.357,15.503 C136.93,15.503 137.87,16.779 137.87,18.904 L137.87,20.851 C137.87,22.484 137.288,23.447 135.833,23.782 L138.273,30.674 L135.587,30.674 z" fill="#FFFFFE"/>
    <path d="M55.025,47.114 L57.06,47.114 L56.054,41.028 L56.031,41.028 z M51.825,51.925 L54.688,36.754 L57.598,36.754 L60.484,51.925 L57.867,51.925 L57.396,49.15 L54.688,49.15 L54.241,51.925 z" fill="#FFFFFE"/>
    <path d="M63.683,42.393 L63.683,51.925 L61.535,51.925 L61.535,36.754 L64.041,36.754 L66.792,45.458 L66.792,36.754 L68.918,36.754 L68.918,51.925 L66.682,51.925 z" fill="#FFFFFE"/>
    <path d="M73.996,49.844 C75.048,49.844 75.452,49.218 75.452,48.301 L75.452,40.357 C75.452,39.462 75.048,38.835 73.996,38.835 L72.922,38.835 L72.922,49.844 z M78.002,40.826 L78.002,47.852 C78.002,50.18 77.039,51.925 74.31,51.925 L70.371,51.925 L70.371,36.754 L74.31,36.754 C77.039,36.754 78.002,38.477 78.002,40.826" fill="#FFFFFE"/>
    <path d="M81.667,48.659 L81.667,46.622 L84.04,46.622 L84.04,48.703 C84.04,49.554 84.42,50.045 85.293,50.045 C86.098,50.045 86.456,49.509 86.456,48.703 L86.456,48.121 C86.456,47.249 86.098,46.712 85.315,45.973 L83.815,44.475 C82.36,43.042 81.691,42.169 81.691,40.425 L81.691,39.91 C81.691,38.03 82.787,36.575 85.271,36.575 C87.822,36.575 88.827,37.828 88.827,40.021 L88.827,41.252 L86.5,41.252 L86.5,39.932 C86.5,39.059 86.098,38.634 85.293,38.634 C84.577,38.634 84.084,39.036 84.084,39.887 L84.084,40.2 C84.084,41.05 84.554,41.543 85.293,42.259 L86.926,43.87 C88.313,45.279 88.984,46.129 88.984,47.808 L88.984,48.546 C88.984,50.628 87.866,52.104 85.271,52.104 C82.675,52.104 81.667,50.65 81.667,48.659" fill="#FFFFFE"/>
    <path d="M92.899,47.114 L94.934,47.114 L93.927,41.028 L93.905,41.028 z M89.699,51.925 L92.564,36.754 L95.472,36.754 L98.358,51.925 L95.741,51.925 L95.271,49.15 L92.564,49.15 L92.115,51.925 z" fill="#FFFFFE"/>
    <path d="M101.557,42.393 L101.557,51.925 L99.409,51.925 L99.409,36.754 L101.915,36.754 L104.668,45.458 L104.668,36.754 L106.792,36.754 L106.792,51.925 L104.556,51.925 z" fill="#FFFFFE"/>
    <path d="M108.245,51.925 L110.795,51.925 L110.795,36.754 L108.245,36.754 z" fill="#FFFFFE"/>
    <path d="M111.981,36.754 L118.761,36.754 L118.761,38.836 L116.66,38.836 L116.66,51.925 L114.085,51.925 L114.085,38.836 L111.981,38.836 z" fill="#FFFFFE"/>
    <path d="M121.624,47.114 L123.659,47.114 L122.653,41.028 L122.63,41.028 z M118.424,51.925 L121.288,36.754 L124.197,36.754 L127.083,51.925 L124.466,51.925 L123.996,49.15 L121.288,49.15 L120.84,51.925 z" fill="#FFFFFE"/>
    <path d="M126.724,36.754 L133.505,36.754 L133.505,38.836 L131.402,38.836 L131.402,51.925 L128.827,51.925 L128.827,38.836 L126.724,38.836 z" fill="#FFFFFE"/>
    <path d="M134.69,51.925 L137.24,51.925 L137.24,36.754 L134.69,36.754 z" fill="#FFFFFE"/>
    <path d="M143.886,48.412 L143.886,40.268 C143.886,39.35 143.483,38.701 142.566,38.701 C141.671,38.701 141.267,39.35 141.267,40.268 L141.267,48.412 C141.267,49.329 141.671,49.978 142.566,49.978 C143.483,49.978 143.886,49.329 143.886,48.412 M138.716,48.009 L138.716,40.67 C138.716,38.299 139.881,36.575 142.566,36.575 C145.273,36.575 146.436,38.299 146.436,40.67 L146.436,48.009 C146.436,50.359 145.273,52.104 142.566,52.104 C139.881,52.104 138.716,50.359 138.716,48.009" fill="#FFFFFE"/>
    <path d="M150.037,42.393 L150.037,51.925 L147.889,51.925 L147.889,36.754 L150.395,36.754 L153.149,45.458 L153.149,36.754 L155.273,36.754 L155.273,51.925 L153.036,51.925 z" fill="#FFFFFE"/>
  </g>
</svg>
