<?xml version="1.0" encoding="UTF-8"?>
<!DOCTYPE svg PUBLIC "-//W3C//DTD SVG 1.1//EN" "http://www.w3.org/Graphics/SVG/1.1/DTD/svg11.dtd">
<svg version="1.1" xmlns="http://www.w3.org/2000/svg" xmlns:xlink="http://www.w3.org/1999/xlink" x="0" y="0" width="60" height="60" viewBox="0, 0, 180, 180">
  <g id="Layer_1">
    <path d="M0,180 L180,180 L180,0 L0,0 z" fill="#E3652C"/>
    <path d="M135.025,144.28 L115.816,155.366 L115.816,133.191 L135.025,122.102 z M71.57,155.366 L71.57,134.877 L89.316,145.122 z M68.652,155.366 L49.446,144.28 L49.446,122.102 L68.652,133.191 z M89.316,94.028 L71.57,104.275 L71.57,83.784 z M112.898,104.274 L95.155,94.028 L112.898,83.784 z M95.155,119.573 L114.357,108.488 L133.565,119.573 L114.357,130.662 z M90.776,117.045 L73.031,106.802 L90.776,96.556 z M111.438,106.804 L93.695,117.045 L93.695,96.556 z M90.776,142.594 L73.03,132.348 L90.776,122.102 z M137.214,118.309 L115.816,105.96 L115.816,81.255 C115.816,80.734 115.539,80.253 115.087,79.991 L92.965,67.219 C92.513,66.959 91.958,66.959 91.506,67.219 L69.381,79.991 C68.929,80.253 68.652,80.734 68.652,81.255 L68.652,105.96 L47.258,118.309 C46.806,118.57 46.528,119.051 46.528,119.573 L46.528,145.122 C46.528,145.645 46.806,146.126 47.258,146.387 L69.381,159.157 C69.607,159.287 69.859,159.353 70.111,159.353 C70.363,159.353 70.615,159.287 70.841,159.157 L92.235,146.808 L113.627,159.157 C113.854,159.287 114.105,159.353 114.357,159.353 C114.609,159.353 114.861,159.288 115.087,159.157 L137.214,146.387 C137.666,146.126 137.944,145.645 137.944,145.122 L137.944,119.573 C137.944,119.051 137.666,118.569 137.214,118.309" fill="#FFFFFE"/>
    <path d="M28.153,29.781 C28.046,31.813 27.191,33.097 25.265,33.097 C23.181,33.097 22.376,31.813 22.376,29.458 L22.376,23.145 C22.376,20.845 23.23,19.508 25.319,19.508 C27.352,19.508 28.153,20.898 28.153,23.145 z M34.202,24.217 C34.202,18.598 31.738,14.533 25.319,14.533 C18.843,14.533 16.331,18.063 16.331,23.681 L16.331,29.032 C16.331,34.971 18.683,37.965 23.073,37.965 C25.641,37.965 27.191,36.788 28.101,35.025 L28.153,35.025 L28.153,42.833 C28.153,45.027 27.297,46.579 25.105,46.579 C22.91,46.579 22.108,45.296 22.108,43.047 L22.108,40.641 L16.543,40.641 L16.543,42.568 C16.543,47.917 18.471,51.662 25.213,51.662 C31.63,51.662 34.202,47.543 34.202,41.871 z" fill="#FFFFFE"/>
    <path d="M43.001,30.29 L45.553,30.29 L45.553,15.12 L43.001,15.12 z" fill="#FFFFFE"/>
    <path d="M48.528,20.759 L48.528,30.29 L46.38,30.29 L46.38,15.12 L48.886,15.12 L51.638,23.824 L51.638,15.12 L53.764,15.12 L53.764,30.29 L51.527,30.29 z" fill="#FFFFFE"/>
    <path d="M58.192,28.21 C59.243,28.21 59.647,27.583 59.647,26.666 L59.647,18.723 C59.647,17.827 59.243,17.201 58.192,17.201 L57.118,17.201 L57.118,28.21 z M62.198,19.192 L62.198,26.217 C62.198,28.544 61.235,30.29 58.505,30.29 L54.567,30.29 L54.567,15.119 L58.505,15.119 C61.235,15.119 62.198,16.843 62.198,19.192" fill="#FFFFFE"/>
    <path d="M70.408,15.12 L70.408,26.599 C70.408,28.948 69.401,30.47 66.805,30.47 C64.12,30.47 63.001,28.948 63.001,26.599 L63.001,15.12 L65.552,15.12 L65.552,26.845 C65.552,27.74 65.91,28.344 66.805,28.344 C67.7,28.344 68.059,27.74 68.059,26.845 L68.059,15.12 z" fill="#FFFFFE"/>
    <path d="M71.076,27.024 L71.076,24.988 L73.448,24.988 L73.448,27.068 C73.448,27.919 73.829,28.411 74.7,28.411 C75.506,28.411 75.864,27.875 75.864,27.068 L75.864,26.486 C75.864,25.614 75.506,25.077 74.724,24.338 L73.224,22.84 C71.769,21.408 71.098,20.535 71.098,18.79 L71.098,18.275 C71.098,16.395 72.194,14.941 74.679,14.941 C77.23,14.941 78.237,16.194 78.237,18.387 L78.237,19.618 L75.909,19.618 L75.909,18.298 C75.909,17.425 75.506,17 74.7,17 C73.984,17 73.493,17.402 73.493,18.253 L73.493,18.566 C73.493,19.416 73.963,19.909 74.7,20.625 L76.335,22.235 C77.722,23.645 78.392,24.495 78.392,26.173 L78.392,26.911 C78.392,28.993 77.274,30.469 74.679,30.469 C72.083,30.469 71.076,29.015 71.076,27.024" fill="#FFFFFE"/>
    <path d="M78.459,15.12 L85.238,15.12 L85.238,17.201 L83.135,17.201 L83.135,30.29 L80.561,30.29 L80.561,17.201 L78.459,17.201 z" fill="#FFFFFE"/>
    <path d="M88.325,17.201 L88.325,21.922 L89.175,21.922 C90.048,21.922 90.428,21.475 90.428,20.669 L90.428,18.432 C90.428,17.603 90.048,17.201 89.175,17.201 z M88.325,23.332 L88.325,30.29 L85.774,30.29 L85.774,15.119 L89.488,15.119 C92.061,15.119 93.001,16.395 93.001,18.52 L93.001,20.468 C93.001,22.101 92.419,23.064 90.965,23.399 L93.404,30.29 L90.719,30.29 z" fill="#FFFFFE"/>
    <path d="M98.37,24.518 L98.37,30.29 L95.819,30.29 L95.819,24.518 L92.977,15.12 L95.639,15.12 L97.185,20.871 L97.206,20.871 L98.75,15.12 L101.189,15.12 z" fill="#FFFFFE"/>
    <path d="M102.732,28.054 L101.434,31.476 L100.001,31.476 L100.315,27.852 L102.732,27.852 z" fill="#FFFFFE"/>
    <path d="M105.236,30.29 L107.787,30.29 L107.787,15.12 L105.236,15.12 z" fill="#FFFFFE"/>
    <path d="M110.762,20.759 L110.762,30.29 L108.615,30.29 L108.615,15.12 L111.12,15.12 L113.873,23.824 L113.873,15.12 L115.999,15.12 L115.999,30.29 L113.761,30.29 z" fill="#FFFFFE"/>
    <path d="M118.949,20.759 L118.949,30.29 L116.802,30.29 L116.802,15.12 L119.307,15.12 L122.06,23.824 L122.06,15.12 L124.186,15.12 L124.186,30.29 L121.948,30.29 z" fill="#FFFFFE"/>
    <path d="M130.158,26.778 L130.158,18.634 C130.158,17.716 129.755,17.067 128.838,17.067 C127.942,17.067 127.54,17.716 127.54,18.634 L127.54,26.778 C127.54,27.695 127.942,28.343 128.838,28.343 C129.755,28.343 130.158,27.695 130.158,26.778 M124.989,26.374 L124.989,19.036 C124.989,16.665 126.153,14.941 128.838,14.941 C131.546,14.941 132.71,16.665 132.71,19.036 L132.71,26.374 C132.71,28.724 131.546,30.469 128.838,30.469 C126.153,30.469 124.989,28.724 124.989,26.374" fill="#FFFFFE"/>
    <path d="M141.233,15.12 L138.346,30.29 L135.571,30.29 L132.685,15.12 L135.281,15.12 L137.027,25.704 L137.048,25.704 L138.839,15.12 z" fill="#FFFFFE"/>
    <path d="M143.088,25.479 L145.124,25.479 L144.117,19.394 L144.096,19.394 z M139.889,30.29 L142.753,15.12 L145.662,15.12 L148.548,30.29 L145.93,30.29 L145.461,27.516 L142.753,27.516 L142.305,30.29 z" fill="#FFFFFE"/>
    <path d="M147.539,15.12 L154.32,15.12 L154.32,17.201 L152.215,17.201 L152.215,30.29 L149.643,30.29 L149.643,17.201 L147.539,17.201 z" fill="#FFFFFE"/>
    <path d="M154.855,30.29 L157.406,30.29 L157.406,15.12 L154.855,15.12 z" fill="#FFFFFE"/>
    <path d="M163.402,26.778 L163.402,18.634 C163.402,17.716 162.999,17.067 162.081,17.067 C161.186,17.067 160.783,17.716 160.783,18.634 L160.783,26.778 C160.783,27.695 161.186,28.343 162.081,28.343 C162.999,28.343 163.402,27.695 163.402,26.778 M158.232,26.374 L158.232,19.036 C158.232,16.665 159.396,14.941 162.081,14.941 C164.789,14.941 165.952,16.665 165.952,19.036 L165.952,26.374 C165.952,28.724 164.789,30.469 162.081,30.469 C159.396,30.469 158.232,28.724 158.232,26.374" fill="#FFFFFE"/>
    <path d="M168.903,20.759 L168.903,30.29 L166.756,30.29 L166.756,15.12 L169.261,15.12 L172.014,23.824 L172.014,15.12 L174.14,15.12 L174.14,30.29 L171.902,30.29 z" fill="#FFFFFE"/>
    <path d="M45.798,46.73 L47.835,46.73 L46.828,40.644 L46.806,40.644 z M42.599,51.542 L45.463,36.37 L48.372,36.37 L51.259,51.542 L48.64,51.542 L48.171,48.768 L45.463,48.768 L45.015,51.542 z" fill="#FFFFFE"/>
    <path d="M53.807,42.01 L53.807,51.542 L51.659,51.542 L51.659,36.37 L54.165,36.37 L56.917,45.075 L56.917,36.37 L59.044,36.37 L59.044,51.542 L56.806,51.542 z" fill="#FFFFFE"/>
    <path d="M63.471,49.462 C64.524,49.462 64.926,48.834 64.926,47.917 L64.926,39.974 C64.926,39.079 64.524,38.451 63.471,38.451 L62.397,38.451 L62.397,49.462 z M67.476,40.443 L67.476,47.468 C67.476,49.796 66.515,51.541 63.784,51.541 L59.846,51.541 L59.846,36.371 L63.784,36.371 C66.515,36.371 67.476,38.093 67.476,40.443" fill="#FFFFFE"/>
    <path d="M69.98,51.542 L72.531,51.542 L72.531,36.37 L69.98,36.37 z" fill="#FFFFFE"/>
    <path d="M75.506,42.01 L75.506,51.542 L73.358,51.542 L73.358,36.37 L75.864,36.37 L78.617,45.075 L78.617,36.37 L80.743,36.37 L80.743,51.542 L78.505,51.542 z" fill="#FFFFFE"/>
    <path d="M81.546,36.37 L87.521,36.37 L87.521,38.452 L84.097,38.452 L84.097,42.792 L86.647,42.792 L86.647,44.852 L84.097,44.852 L84.097,51.542 L81.546,51.542 z" fill="#FFFFFE"/>
    <path d="M90.539,38.452 L90.539,43.172 L91.389,43.172 C92.262,43.172 92.643,42.725 92.643,41.92 L92.643,39.682 C92.643,38.854 92.262,38.452 91.389,38.452 z M90.539,44.582 L90.539,51.542 L87.988,51.542 L87.988,36.37 L91.703,36.37 C94.276,36.37 95.216,37.647 95.216,39.771 L95.216,41.719 C95.216,43.352 94.634,44.314 93.179,44.651 L95.619,51.542 L92.934,51.542 z" fill="#FFFFFE"/>
    <path d="M98.75,46.73 L100.786,46.73 L99.779,40.644 L99.757,40.644 z M95.551,51.542 L98.414,36.37 L101.323,36.37 L104.21,51.542 L101.592,51.542 L101.122,48.768 L98.414,48.768 L97.967,51.542 z" fill="#FFFFFE"/>
    <path d="M104.252,48.275 L104.252,46.24 L106.624,46.24 L106.624,48.319 C106.624,49.171 107.004,49.663 107.877,49.663 C108.682,49.663 109.041,49.126 109.041,48.319 L109.041,47.738 C109.041,46.865 108.682,46.329 107.9,45.59 L106.4,44.091 C104.945,42.659 104.275,41.786 104.275,40.041 L104.275,39.526 C104.275,37.647 105.37,36.191 107.854,36.191 C110.406,36.191 111.412,37.444 111.412,39.639 L111.412,40.869 L109.085,40.869 L109.085,39.548 C109.085,38.675 108.682,38.25 107.877,38.25 C107.161,38.25 106.669,38.652 106.669,39.504 L106.669,39.817 C106.669,40.666 107.139,41.159 107.877,41.875 L109.511,43.486 C110.898,44.897 111.568,45.747 111.568,47.424 L111.568,48.163 C111.568,50.244 110.45,51.721 107.854,51.721 C105.259,51.721 104.252,50.266 104.252,48.275" fill="#FFFFFE"/>
    <path d="M111.634,36.37 L118.415,36.37 L118.415,38.452 L116.311,38.452 L116.311,51.542 L113.738,51.542 L113.738,38.452 L111.634,38.452 z" fill="#FFFFFE"/>
    <path d="M121.501,38.452 L121.501,43.172 L122.351,43.172 C123.224,43.172 123.603,42.725 123.603,41.92 L123.603,39.682 C123.603,38.854 123.224,38.452 122.351,38.452 z M121.501,44.582 L121.501,51.542 L118.95,51.542 L118.95,36.37 L122.665,36.37 C125.237,36.37 126.177,37.647 126.177,39.771 L126.177,41.719 C126.177,43.352 125.595,44.314 124.141,44.651 L126.58,51.542 L123.895,51.542 z" fill="#FFFFFE"/>
    <path d="M134.32,36.37 L134.32,47.851 C134.32,50.2 133.313,51.72 130.718,51.72 C128.032,51.72 126.913,50.2 126.913,47.851 L126.913,36.37 L129.464,36.37 L129.464,48.096 C129.464,48.99 129.822,49.594 130.718,49.594 C131.613,49.594 131.971,48.99 131.971,48.096 L131.971,36.37 z" fill="#FFFFFE"/>
    <path d="M135.123,47.625 L135.123,40.286 C135.123,37.915 136.242,36.191 138.928,36.191 C141.747,36.191 142.53,37.757 142.53,39.996 L142.53,41.787 L140.203,41.787 L140.203,39.795 C140.203,38.854 139.889,38.318 138.972,38.318 C138.055,38.318 137.674,38.966 137.674,39.883 L137.674,48.03 C137.674,48.947 138.055,49.595 138.972,49.595 C139.889,49.595 140.203,49.013 140.203,48.119 L140.203,45.321 L142.53,45.321 L142.53,47.939 C142.53,50.11 141.635,51.721 138.928,51.721 C136.242,51.721 135.123,49.974 135.123,47.625" fill="#FFFFFE"/>
    <path d="M142.752,36.37 L149.532,36.37 L149.532,38.452 L147.428,38.452 L147.428,51.542 L144.855,51.542 L144.855,38.452 L142.752,38.452 z" fill="#FFFFFE"/>
    <path d="M157.474,36.37 L157.474,47.851 C157.474,50.2 156.467,51.72 153.871,51.72 C151.186,51.72 150.067,50.2 150.067,47.851 L150.067,36.37 L152.618,36.37 L152.618,48.096 C152.618,48.99 152.976,49.594 153.871,49.594 C154.767,49.594 155.125,48.99 155.125,48.096 L155.125,36.37 z" fill="#FFFFFE"/>
    <path d="M160.827,38.452 L160.827,43.172 L161.677,43.172 C162.55,43.172 162.931,42.725 162.931,41.92 L162.931,39.682 C162.931,38.854 162.55,38.452 161.677,38.452 z M160.827,44.582 L160.827,51.542 L158.276,51.542 L158.276,36.37 L161.991,36.37 C164.565,36.37 165.504,37.647 165.504,39.771 L165.504,41.719 C165.504,43.352 164.923,44.314 163.467,44.651 L165.906,51.542 L163.221,51.542 z" fill="#FFFFFE"/>
    <path d="M166.24,36.37 L172.327,36.37 L172.327,38.452 L168.792,38.452 L168.792,42.792 L171.32,42.792 L171.32,44.852 L168.792,44.852 L168.792,49.461 L172.327,49.461 L172.327,51.542 L166.24,51.542 z" fill="#FFFFFE"/>
  </g>
</svg>
