<?xml version="1.0" encoding="UTF-8"?>
<!DOCTYPE svg PUBLIC "-//W3C//DTD SVG 1.1//EN" "http://www.w3.org/Graphics/SVG/1.1/DTD/svg11.dtd">
<svg version="1.1" xmlns="http://www.w3.org/2000/svg" xmlns:xlink="http://www.w3.org/1999/xlink" x="0" y="0" width="60" height="60" viewBox="0, 0, 180, 180">
  <g id="Layer_1">
    <path d="M0,180 L180,180 L180,0 L0,0 z" fill="#F3F2EF"/>
    <path d="M10.371,71.268 L10.371,82.636 L12.446,82.636 C15.301,82.636 17.248,80.637 17.248,77.029 L17.248,76.899 C17.248,73.293 15.301,71.268 12.446,71.268 z M6.607,67.868 L12.472,67.868 C17.741,67.868 21.141,71.501 21.141,76.823 L21.141,77.055 C21.141,82.376 17.741,86.035 12.472,86.035 L6.607,86.035 z" fill="#00A3DA"/>
    <path d="M23.138,67.868 L34.843,67.868 L34.843,71.268 L26.875,71.268 L26.875,75.187 L33.883,75.187 L33.883,78.587 L26.875,78.587 L26.875,82.635 L34.947,82.635 L34.947,86.036 L23.138,86.036 z" fill="#00A3DA"/>
    <path d="M35.569,67.868 L39.643,67.868 L43.484,80.378 L47.326,67.868 L51.296,67.868 L45.171,86.14 L41.694,86.14 z" fill="#00A3DA"/>
    <path d="M52.593,67.868 L64.297,67.868 L64.297,71.268 L56.329,71.268 L56.329,75.187 L63.337,75.187 L63.337,78.587 L56.329,78.587 L56.329,82.635 L64.401,82.635 L64.401,86.036 L52.593,86.036 z" fill="#00A3DA"/>
    <path d="M66.398,67.868 L70.162,67.868 L70.162,82.584 L77.507,82.584 L77.507,86.036 L66.398,86.036 z" fill="#00A3DA"/>
    <path d="M90.016,77.056 L90.016,76.874 C90.016,73.292 88.2,71.034 85.682,71.034 C83.139,71.034 81.348,73.266 81.348,76.848 L81.348,77.03 C81.348,80.611 83.19,82.869 85.708,82.869 C88.226,82.869 90.016,80.638 90.016,77.056 M77.481,77.134 L77.481,76.822 C77.481,71.372 80.907,67.556 85.708,67.556 C90.535,67.556 93.909,71.346 93.909,76.77 L93.909,77.082 C93.909,82.507 90.483,86.347 85.682,86.347 C80.854,86.347 77.481,82.558 77.481,77.134" fill="#00A3DA"/>
    <path d="M101.797,77.133 C103.744,77.133 104.834,75.914 104.834,74.227 L104.834,74.201 C104.834,72.306 103.744,71.268 101.745,71.268 L99.695,71.268 L99.695,77.133 z M95.931,67.868 L101.979,67.868 C106.053,67.868 108.623,70.23 108.623,74.097 L108.623,74.149 C108.623,78.328 105.637,80.43 101.823,80.508 L99.695,80.508 L99.695,86.035 L95.931,86.035 z" fill="#00A3DA"/>
    <path d="M110.127,67.868 L114.073,67.868 L118.121,75.239 L122.118,67.868 L126.088,67.868 L126.088,86.036 L122.403,86.036 L122.403,74.435 L118.121,81.935 L118.043,81.935 L113.786,74.486 L113.786,86.036 L110.127,86.036 z" fill="#00A3DA"/>
    <path d="M128.76,67.868 L140.465,67.868 L140.465,71.268 L132.497,71.268 L132.497,75.187 L139.505,75.187 L139.505,78.587 L132.497,78.587 L132.497,82.635 L140.569,82.635 L140.569,86.036 L128.76,86.036 z" fill="#00A3DA"/>
    <path d="M142.566,67.868 L146.018,67.868 L152.973,78.457 L152.973,67.868 L156.659,67.868 L156.659,86.036 L153.44,86.036 L146.251,75.057 L146.251,86.036 L142.566,86.036 z" fill="#00A3DA"/>
    <path d="M162.809,71.346 L158.241,71.346 L158.241,67.868 L171.114,67.868 L171.114,71.346 L166.546,71.346 L166.546,86.036 L162.809,86.036 z" fill="#00A3DA"/>
    <path d="M5.868,59.3 L8.316,56.255 C9.653,57.421 11.277,58.503 13.269,58.503 C14.862,58.503 15.831,57.706 15.831,56.539 L15.831,56.51 C15.831,55.514 15.261,54.888 12.414,53.807 C8.885,52.44 6.694,51.102 6.694,47.687 L6.694,47.63 C6.694,44.157 9.369,41.794 13.212,41.794 C15.546,41.794 17.823,42.592 19.644,44.242 L17.339,47.373 C16.086,46.348 14.635,45.524 13.098,45.524 C11.675,45.524 10.792,46.235 10.792,47.26 L10.792,47.288 C10.792,48.426 11.476,48.967 14.578,50.249 C18.05,51.614 19.929,53.095 19.929,56.197 L19.929,56.255 C19.929,59.955 17.112,62.232 13.24,62.232 C10.708,62.232 8.059,61.35 5.868,59.3" fill="#00A3DA"/>
    <path d="M21.664,54.233 L21.664,42.05 L25.79,42.05 L25.79,54.261 C25.79,57.079 27.129,58.474 29.263,58.474 C31.398,58.474 32.735,57.108 32.735,54.347 L32.735,42.05 L36.835,42.05 L36.835,54.148 C36.835,59.641 33.818,62.289 29.206,62.289 C24.623,62.289 21.664,59.613 21.664,54.233" fill="#00A3DA"/>
    <path d="M38.057,59.3 L40.505,56.255 C41.843,57.421 43.466,58.503 45.458,58.503 C47.051,58.503 48.02,57.706 48.02,56.539 L48.02,56.51 C48.02,55.514 47.451,54.888 44.603,53.807 C41.074,52.44 38.882,51.102 38.882,47.687 L38.882,47.63 C38.882,44.157 41.558,41.794 45.401,41.794 C47.735,41.794 50.012,42.592 51.835,44.242 L49.528,47.373 C48.276,46.348 46.824,45.524 45.287,45.524 C43.864,45.524 42.981,46.235 42.981,47.26 L42.981,47.288 C42.981,48.426 43.665,48.967 46.768,50.249 C50.239,51.614 52.118,53.095 52.118,56.197 L52.118,56.255 C52.118,59.955 49.301,62.232 45.429,62.232 C42.897,62.232 40.249,61.35 38.057,59.3" fill="#00A3DA"/>
    <path d="M57.496,45.865 L52.486,45.865 L52.486,42.05 L66.605,42.05 L66.605,45.865 L61.595,45.865 L61.595,61.975 L57.496,61.975 z" fill="#00A3DA"/>
    <path d="M75.996,54.005 L73.833,47.516 L71.642,54.005 z M71.926,41.937 L75.854,41.937 L82.999,61.976 L78.729,61.976 L77.248,57.649 L70.388,57.649 L68.937,61.976 L64.782,61.976 z" fill="#00A3DA"/>
    <path d="M84.562,61.976 L88.688,61.976 L88.688,42.05 L84.562,42.05 z" fill="#00A3DA"/>
    <path d="M91.763,42.051 L95.548,42.051 L103.176,53.664 L103.176,42.051 L107.218,42.051 L107.218,61.976 L103.688,61.976 L95.804,49.935 L95.804,61.976 L91.763,61.976 z" fill="#00A3DA"/>
    <path d="M119.854,54.005 L117.691,47.516 L115.5,54.005 z M115.785,41.937 L119.712,41.937 L126.857,61.976 L122.587,61.976 L121.107,57.649 L114.247,57.649 L112.796,61.976 L108.64,61.976 z" fill="#00A3DA"/>
    <path d="M135.906,53.664 L132.292,53.664 L132.292,58.333 L135.992,58.333 C137.841,58.333 139.009,57.535 139.009,55.998 L139.009,55.969 C139.009,54.546 137.956,53.664 135.906,53.664 M138.155,47.914 C138.155,46.463 137.13,45.694 135.365,45.694 L132.292,45.694 L132.292,50.191 L135.166,50.191 C136.988,50.191 138.155,49.451 138.155,47.943 z M128.278,42.051 L135.679,42.051 C137.898,42.051 139.749,42.649 140.887,43.787 C141.769,44.698 142.225,45.779 142.225,47.174 L142.225,47.26 C142.225,49.594 140.944,50.846 139.52,51.614 C141.656,52.44 143.079,53.75 143.079,56.369 L143.079,56.51 C143.079,60.098 140.203,61.975 135.878,61.975 L128.278,61.975 z" fill="#00A3DA"/>
    <path d="M145.013,42.051 L149.14,42.051 L149.14,58.189 L157.195,58.189 L157.195,61.976 L145.013,61.976 z" fill="#00A3DA"/>
    <path d="M158.902,42.051 L171.739,42.051 L171.739,45.78 L163,45.78 L163,50.077 L170.686,50.077 L170.686,53.806 L163,53.806 L163,58.247 L171.853,58.247 L171.853,61.976 L158.902,61.976 z" fill="#00A3DA"/>
    <path d="M26.249,108.944 L43.863,108.944 C43.558,123.106 35.741,130.213 25.234,130.213 C13.913,130.213 6.655,120.67 6.655,110.416 C6.655,100.162 13.913,90.618 25.234,90.618 C37.772,90.618 41.224,98.435 42.646,102.497 L34.676,103.004 C33.305,99.653 30.564,97.42 25.234,97.42 C19.244,97.42 14.573,102.294 14.573,110.416 C14.573,117.268 18.888,123.41 25.741,123.41 C31.883,123.41 34.726,119.046 35.386,115.441 L26.249,115.441 z" fill="#5086B9"/>
    <path d="M119.126,91.434 L126.72,91.434 L126.72,122.417 L141.351,122.417 L141.351,129.504 L119.126,129.504 z" fill="#5086B9"/>
    <path d="M162.662,101.457 C162.662,98.824 160.131,97.204 157.093,97.204 C153.296,97.204 151.018,98.875 151.018,101.406 C151.018,104.039 153.549,105.305 155.424,105.912 L162.409,108.14 C167.471,109.76 171.066,112.696 171.066,118.568 C171.066,123.227 167.725,130.213 157.195,130.213 C143.981,130.213 142.765,121.658 142.765,118.265 L150.36,118.114 C150.36,122.163 153.549,123.732 157.245,123.732 C159.827,123.732 163.472,122.467 163.472,119.53 C163.472,117.506 162.611,116.443 158.865,115.075 L150.561,112.088 C146.361,110.571 143.423,106.874 143.423,102.571 C143.423,97.711 146.766,90.724 156.638,90.724 C168.384,90.724 170.256,98.521 170.256,101.305 z" fill="#5086B9"/>
    <path d="M56.002,105.735 C56.47,104.941 57.037,104.214 57.686,103.569 L52.164,97.514 C50.775,98.842 49.59,100.381 48.659,102.078 z" fill="#5BB245"/>
    <path d="M69.539,101.458 C70.375,101.841 71.152,102.329 71.854,102.909 L77.392,96.863 C75.933,95.605 74.28,94.568 72.484,93.801 z" fill="#C79932"/>
    <path d="M82.22,103.278 L74.881,106.937 C75.231,107.755 75.48,108.623 75.616,109.53 L83.78,108.76 C83.539,106.827 83.004,104.984 82.22,103.278" fill="#AF2534"/>
    <path d="M74.354,105.877 L81.693,102.219 C80.784,100.529 79.625,98.995 78.263,97.665 L72.726,103.71 C73.357,104.358 73.905,105.085 74.354,105.877" fill="#2D9145"/>
    <path d="M54.544,111.092 C54.544,110.926 54.549,110.762 54.557,110.597 L46.391,109.867 C46.365,110.272 46.349,110.68 46.349,111.092 C46.349,112.658 46.543,114.179 46.905,115.634 L54.791,113.371 C54.63,112.636 54.544,111.874 54.544,111.092" fill="#456F3B"/>
    <path d="M73.327,117.804 C72.747,118.51 72.076,119.14 71.336,119.677 L75.647,126.658 C77.246,125.574 78.672,124.249 79.87,122.737 z" fill="#F2B02A"/>
    <path d="M75.73,111.092 C75.73,111.865 75.646,112.619 75.487,113.345 L83.373,115.611 C83.732,114.163 83.924,112.649 83.924,111.092 C83.924,110.704 83.911,110.321 83.887,109.938 L75.722,110.71 C75.727,110.838 75.73,110.964 75.73,111.092" fill="#DC3E30"/>
    <path d="M57.079,117.96 L50.553,122.921 C51.767,124.415 53.204,125.718 54.814,126.782 L59.126,119.808 C58.366,119.283 57.678,118.661 57.079,117.96" fill="#EC9634"/>
    <path d="M54.676,109.419 C54.822,108.497 55.089,107.615 55.458,106.788 L48.121,103.134 C47.311,104.859 46.756,106.727 46.502,108.687 z" fill="#0073A7"/>
    <path d="M74.644,127.29 L70.339,120.318 C69.556,120.76 68.713,121.106 67.826,121.339 L69.345,129.403 C71.236,128.969 73.018,128.248 74.644,127.29" fill="#7B1D33"/>
    <path d="M75.173,114.487 C74.887,115.325 74.501,116.117 74.027,116.847 L80.574,121.786 C81.638,120.257 82.479,118.564 83.052,116.752 z" fill="#00A3C5"/>
    <path d="M66.665,121.574 C66.167,121.647 65.656,121.686 65.137,121.686 C64.72,121.686 64.308,121.66 63.904,121.612 L62.385,129.678 C63.284,129.81 64.202,129.879 65.137,129.879 C66.173,129.879 67.192,129.793 68.183,129.632 z" fill="#E3652C"/>
    <path d="M65.814,100.52 C66.724,100.578 67.603,100.751 68.435,101.026 L71.381,93.371 C69.629,92.753 67.759,92.386 65.814,92.318 z" fill="#D62331"/>
    <path d="M62.736,121.411 C61.818,121.196 60.945,120.863 60.136,120.427 L55.822,127.404 C57.481,128.354 59.296,129.057 61.219,129.466 z" fill="#CE1E75"/>
    <path d="M61.953,100.988 C62.804,100.719 63.701,100.555 64.629,100.512 L64.629,92.311 C62.658,92.364 60.764,92.722 58.988,93.339 z" fill="#1E2E53"/>
    <path d="M56.361,117.017 C55.84,116.249 55.416,115.407 55.111,114.512 L47.23,116.774 C47.827,118.654 48.711,120.406 49.833,121.978 z" fill="#C28531"/>
    <path d="M58.573,102.783 C59.266,102.234 60.028,101.772 60.845,101.408 L57.882,93.763 C56.117,94.504 54.49,95.507 53.048,96.724 z" fill="#144C78"/>
    <path d="M99.695,100.192 L99.592,100.192 L94.717,115.177 L104.621,115.177 z M106.675,121.438 L92.562,121.438 L90.047,129.494 L81.734,129.494 L95.795,90.904 L103.903,90.904 L117.758,129.494 L109.291,129.494 z" fill="#5086B9"/>
  </g>
</svg>
