<?xml version="1.0" encoding="UTF-8"?>
<!DOCTYPE svg PUBLIC "-//W3C//DTD SVG 1.1//EN" "http://www.w3.org/Graphics/SVG/1.1/DTD/svg11.dtd">
<svg version="1.1" xmlns="http://www.w3.org/2000/svg" xmlns:xlink="http://www.w3.org/1999/xlink" x="0" y="0" width="60" height="60" viewBox="0, 0, 180, 180">
  <g id="Layer_1">
    <path d="M0,180 L180,180 L180,0 L0,0 z" fill="#1E2E53"/>
    <path d="M107.002,110.727 C111.618,106.442 114.517,100.328 114.517,93.546 C114.517,92.532 114.445,91.532 114.32,90.55 C123.704,91.555 131.039,99.517 131.039,109.165 C131.039,114.646 128.656,119.568 124.887,122.997 C121.358,116.386 114.757,111.658 107.002,110.727 M122.917,133.997 C122.917,144.318 114.517,152.718 104.192,152.718 C100.832,152.718 97.688,151.816 94.959,150.261 C98.942,146.057 101.397,140.385 101.397,134.153 C101.397,132.618 101.243,131.119 100.96,129.667 C104.328,131.538 108.197,132.607 112.315,132.607 C115.978,132.607 119.448,131.762 122.537,130.255 C122.786,131.465 122.917,132.716 122.917,133.997 M59.229,134.153 C59.229,132.821 59.371,131.525 59.638,130.272 C62.723,131.768 66.181,132.607 69.831,132.607 C73.936,132.607 77.792,131.544 81.151,129.684 C80.89,131.082 80.746,132.524 80.746,133.997 C80.746,140.329 83.278,146.08 87.374,150.303 C84.602,151.925 81.388,152.872 77.954,152.872 C67.627,152.872 59.229,144.474 59.229,134.153 M51.107,109.165 C51.107,99.517 58.44,91.556 67.824,90.55 C67.699,91.532 67.627,92.532 67.627,93.546 C67.627,100.399 70.585,106.574 75.286,110.864 C67.51,111.75 60.876,116.45 57.311,123.045 C53.514,119.618 51.107,114.672 51.107,109.165 M91.071,74.823 C98.743,74.823 105.344,79.462 108.234,86.082 C100.618,87.425 94.26,92.452 91.071,99.255 C87.886,92.45 81.526,87.424 73.909,86.082 C76.8,79.462 83.4,74.823 91.071,74.823 M95.53,117.413 C98.124,116.053 101.064,115.273 104.192,115.273 C111.554,115.273 117.918,119.554 120.978,125.747 C118.382,127.108 115.437,127.888 112.315,127.888 C104.951,127.888 98.587,123.606 95.53,117.413 M86.553,117.54 C83.473,123.665 77.143,127.888 69.831,127.888 C66.73,127.888 63.808,127.116 61.23,125.776 C64.31,119.651 70.642,115.429 77.954,115.429 C81.056,115.429 83.975,116.199 86.553,117.54 M72.592,90.667 C81.609,92.008 88.556,99.779 88.556,109.165 C88.556,110.145 88.456,111.102 88.31,112.042 C79.293,110.7 72.348,102.931 72.348,93.546 C72.348,92.564 72.446,91.607 72.592,90.667 M91.158,147.408 C87.653,144.004 85.467,139.253 85.467,133.997 C85.467,128.82 87.582,124.129 90.986,120.737 C94.489,124.141 96.677,128.893 96.677,134.153 C96.677,139.326 94.564,144.016 91.158,147.408 M109.796,93.546 C109.796,102.931 102.851,110.7 93.833,112.042 C93.687,111.102 93.59,110.145 93.59,109.165 C93.59,99.779 100.535,92.009 109.552,90.668 C109.698,91.607 109.796,92.564 109.796,93.546 M135.759,109.165 C135.759,96.524 125.703,86.197 113.176,85.74 C109.953,76.641 101.262,70.103 91.071,70.103 C80.882,70.103 72.192,76.641 68.966,85.74 C56.439,86.198 46.388,96.525 46.388,109.165 C46.388,116.666 49.933,123.351 55.434,127.646 C54.836,129.713 54.507,131.895 54.507,134.153 C54.507,147.075 65.025,157.593 77.954,157.593 C82.86,157.593 87.416,156.074 91.186,153.488 C94.911,155.98 99.384,157.436 104.192,157.436 C117.119,157.436 127.636,146.919 127.636,133.997 C127.636,131.784 127.323,129.646 126.748,127.619 C132.226,123.322 135.759,116.65 135.759,109.165" fill="#FFFFFE"/>
    <path d="M26.944,15.085 L26.944,51.376 L20.842,51.376 L20.842,23.595 L20.787,23.595 L16.506,28.037 L16.453,28.037 L16.453,21.669 L22.074,15.085 z" fill="#FFFFFE"/>
    <path d="M29.728,15.085 L45.038,15.085 L45.038,20.705 L37.061,51.376 L31.01,51.376 L39.148,20.062 L29.728,20.062 z" fill="#FFFFFE"/>
    <path d="M61.041,17.019 L61.041,22.993 L61.982,22.993 C62.853,22.993 63.235,22.568 63.235,21.739 L63.235,18.25 C63.235,17.421 62.853,17.019 61.982,17.019 z M58.491,14.937 L62.272,14.937 C64.847,14.937 65.785,16.212 65.785,18.338 L65.785,21.538 C65.785,23.664 64.847,24.962 62.272,24.962 L61.041,24.962 L61.041,30.108 L58.491,30.108 z" fill="#FFFFFE"/>
    <path d="M69.006,25.298 L71.042,25.298 L70.036,19.211 L70.012,19.211 z M65.806,30.109 L68.67,14.938 L71.579,14.938 L74.466,30.109 L71.849,30.109 L71.378,27.333 L68.67,27.333 L68.222,30.109 z" fill="#FFFFFE"/>
    <path d="M78.066,17.019 L78.066,21.739 L78.917,21.739 C79.79,21.739 80.17,21.293 80.17,20.487 L80.17,18.25 C80.17,17.421 79.79,17.019 78.917,17.019 z M78.066,23.149 L78.066,30.108 L75.516,30.108 L75.516,14.937 L79.231,14.937 C81.804,14.937 82.745,16.212 82.745,18.338 L82.745,20.286 C82.745,21.919 82.162,22.881 80.707,23.218 L83.147,30.108 L80.462,30.108 z" fill="#FFFFFE"/>
    <path d="M83.613,14.937 L90.394,14.937 L90.394,17.019 L88.291,17.019 L88.291,30.109 L85.716,30.109 L85.716,17.019 L83.613,17.019 z" fill="#FFFFFE"/>
    <path d="M93.726,20.577 L93.726,30.109 L91.579,30.109 L91.579,14.937 L94.084,14.937 L96.838,23.642 L96.838,14.937 L98.962,14.937 L98.962,30.109 L96.725,30.109 z" fill="#FFFFFE"/>
    <path d="M100.415,14.937 L106.501,14.937 L106.501,17.019 L102.965,17.019 L102.965,21.36 L105.493,21.36 L105.493,23.419 L102.965,23.419 L102.965,28.027 L106.501,28.027 L106.501,30.109 L100.415,30.109 z" fill="#FFFFFE"/>
    <path d="M110.416,17.019 L110.416,21.739 L111.267,21.739 C112.14,21.739 112.519,21.293 112.519,20.487 L112.519,18.25 C112.519,17.421 112.14,17.019 111.267,17.019 z M110.416,23.149 L110.416,30.108 L107.866,30.108 L107.866,14.937 L111.581,14.937 C114.154,14.937 115.094,16.212 115.094,18.338 L115.094,20.286 C115.094,21.919 114.511,22.881 113.057,23.218 L115.497,30.108 L112.811,30.108 z" fill="#FFFFFE"/>
    <path d="M116.233,26.842 L116.233,24.805 L118.606,24.805 L118.606,26.887 C118.606,27.738 118.987,28.23 119.859,28.23 C120.664,28.23 121.022,27.691 121.022,26.887 L121.022,26.305 C121.022,25.432 120.664,24.896 119.882,24.157 L118.381,22.657 C116.927,21.225 116.257,20.354 116.257,18.608 L116.257,18.093 C116.257,16.213 117.354,14.758 119.838,14.758 C122.388,14.758 123.394,16.012 123.394,18.206 L123.394,19.434 L121.066,19.434 L121.066,18.115 C121.066,17.242 120.664,16.817 119.859,16.817 C119.143,16.817 118.65,17.221 118.65,18.071 L118.65,18.383 C118.65,19.233 119.121,19.726 119.859,20.442 L121.492,22.054 C122.879,23.463 123.55,24.314 123.55,25.991 L123.55,26.73 C123.55,28.811 122.432,30.288 119.838,30.288 C117.241,30.288 116.233,28.833 116.233,26.842" fill="#FFFFFE"/>
    <path d="M129.903,23.419 L127.442,23.419 L127.442,30.109 L124.89,30.109 L124.89,14.937 L127.442,14.937 L127.442,21.36 L129.903,21.36 L129.903,14.937 L132.476,14.937 L132.476,30.109 L129.903,30.109 z" fill="#FFFFFE"/>
    <path d="M133.927,30.109 L136.477,30.109 L136.477,14.938 L133.927,14.938 z" fill="#FFFFFE"/>
    <path d="M140.505,17.019 L140.505,22.993 L141.445,22.993 C142.317,22.993 142.699,22.568 142.699,21.739 L142.699,18.25 C142.699,17.421 142.317,17.019 141.445,17.019 z M137.954,14.937 L141.735,14.937 C144.31,14.937 145.249,16.212 145.249,18.338 L145.249,21.538 C145.249,23.664 144.31,24.962 141.735,24.962 L140.505,24.962 L140.505,30.108 L137.954,30.108 z" fill="#FFFFFE"/>
    <path d="M146.433,26.842 L146.433,24.805 L148.806,24.805 L148.806,26.887 C148.806,27.738 149.186,28.23 150.059,28.23 C150.864,28.23 151.222,27.691 151.222,26.887 L151.222,26.305 C151.222,25.432 150.864,24.896 150.082,24.157 L148.581,22.657 C147.127,21.225 146.456,20.354 146.456,18.608 L146.456,18.093 C146.456,16.213 147.553,14.758 150.035,14.758 C152.588,14.758 153.593,16.012 153.593,18.206 L153.593,19.434 L151.266,19.434 L151.266,18.115 C151.266,17.242 150.864,16.817 150.059,16.817 C149.343,16.817 148.85,17.221 148.85,18.071 L148.85,18.383 C148.85,19.233 149.319,19.726 150.059,20.442 L151.692,22.054 C153.081,23.463 153.75,24.314 153.75,25.991 L153.75,26.73 C153.75,28.811 152.632,30.288 150.035,30.288 C147.441,30.288 146.433,28.833 146.433,26.842" fill="#FFFFFE"/>
    <path d="M58.49,36.19 L64.466,36.19 L64.466,38.272 L61.041,38.272 L61.041,42.612 L63.593,42.612 L63.593,44.672 L61.041,44.672 L61.041,51.361 L58.49,51.361 z" fill="#FFFFFE"/>
    <path d="M70.529,47.848 L70.529,39.703 C70.529,38.786 70.127,38.137 69.209,38.137 C68.314,38.137 67.911,38.786 67.911,39.703 L67.911,47.848 C67.911,48.767 68.314,49.415 69.209,49.415 C70.127,49.415 70.529,48.767 70.529,47.848 M65.359,47.445 L65.359,40.106 C65.359,37.734 66.524,36.011 69.209,36.011 C71.916,36.011 73.079,37.734 73.079,40.106 L73.079,47.445 C73.079,49.794 71.916,51.541 69.209,51.541 C66.524,51.541 65.359,49.794 65.359,47.445" fill="#FFFFFE"/>
    <path d="M77.083,38.271 L77.083,42.992 L77.934,42.992 C78.807,42.992 79.186,42.545 79.186,41.74 L79.186,39.502 C79.186,38.674 78.807,38.271 77.934,38.271 z M77.083,44.402 L77.083,51.361 L74.532,51.361 L74.532,36.19 L78.247,36.19 C80.82,36.19 81.759,37.465 81.759,39.591 L81.759,41.538 C81.759,43.171 81.178,44.134 79.724,44.47 L82.163,51.361 L79.478,51.361 z" fill="#FFFFFE"/>
    <path d="M85.203,36.19 L91.982,36.19 L91.982,38.272 L89.88,38.272 L89.88,51.361 L87.306,51.361 L87.306,38.272 L85.203,38.272 z" fill="#FFFFFE"/>
    <path d="M98.18,44.671 L95.718,44.671 L95.718,51.361 L93.167,51.361 L93.167,36.19 L95.718,36.19 L95.718,42.612 L98.18,42.612 L98.18,36.19 L100.753,36.19 L100.753,51.361 L98.18,51.361 z" fill="#FFFFFE"/>
    <path d="M102.205,36.19 L108.292,36.19 L108.292,38.272 L104.755,38.272 L104.755,42.612 L107.284,42.612 L107.284,44.672 L104.755,44.672 L104.755,49.28 L108.292,49.28 L108.292,51.361 L102.205,51.361 z" fill="#FFFFFE"/>
    <path d="M115.854,43.262 L119.479,43.262 L119.479,51.362 L117.644,51.362 L117.644,49.706 C117.309,50.847 116.593,51.54 115.204,51.54 C113.012,51.54 112.004,49.795 112.004,47.446 L112.004,40.106 C112.004,37.734 113.145,36.011 115.832,36.011 C118.65,36.011 119.479,37.578 119.479,39.816 L119.479,41.158 L117.152,41.158 L117.152,39.613 C117.152,38.674 116.794,38.137 115.877,38.137 C114.959,38.137 114.556,38.787 114.556,39.704 L114.556,47.848 C114.556,48.766 114.935,49.414 115.809,49.414 C116.637,49.414 117.061,48.944 117.061,47.961 L117.061,45.275 L115.854,45.275 z" fill="#FFFFFE"/>
    <path d="M126.098,47.848 L126.098,39.703 C126.098,38.786 125.696,38.137 124.779,38.137 C123.883,38.137 123.48,38.786 123.48,39.703 L123.48,47.848 C123.48,48.767 123.883,49.415 124.779,49.415 C125.696,49.415 126.098,48.767 126.098,47.848 M120.928,47.445 L120.928,40.106 C120.928,37.734 122.093,36.011 124.779,36.011 C127.485,36.011 128.648,37.734 128.648,40.106 L128.648,47.445 C128.648,49.794 127.485,51.541 124.779,51.541 C122.093,51.541 120.928,49.794 120.928,47.445" fill="#FFFFFE"/>
    <path d="M132.563,46.55 L134.598,46.55 L133.592,40.464 L133.569,40.464 z M129.363,51.362 L132.228,36.19 L135.136,36.19 L138.023,51.362 L135.405,51.362 L134.935,48.586 L132.228,48.586 L131.779,51.362 z" fill="#FFFFFE"/>
    <path d="M139.072,36.19 L141.623,36.19 L141.623,49.28 L144.666,49.28 L144.666,51.361 L139.072,51.361 z" fill="#FFFFFE"/>
    <path d="M145.584,48.095 L145.584,46.057 L147.956,46.057 L147.956,48.139 C147.956,48.99 148.337,49.482 149.21,49.482 C150.015,49.482 150.373,48.944 150.373,48.139 L150.373,47.557 C150.373,46.685 150.015,46.148 149.233,45.41 L147.732,43.91 C146.278,42.478 145.605,41.606 145.605,39.861 L145.605,39.346 C145.605,37.465 146.704,36.011 149.186,36.011 C151.739,36.011 152.744,37.264 152.744,39.458 L152.744,40.687 L150.417,40.687 L150.417,39.368 C150.417,38.495 150.015,38.07 149.21,38.07 C148.494,38.07 148.001,38.472 148.001,39.323 L148.001,39.636 C148.001,40.486 148.47,40.979 149.21,41.695 L150.843,43.306 C152.231,44.716 152.901,45.566 152.901,47.244 L152.901,47.982 C152.901,50.064 151.783,51.54 149.186,51.54 C146.592,51.54 145.584,50.086 145.584,48.095" fill="#FFFFFE"/>
  </g>
</svg>
