<?xml version="1.0" encoding="UTF-8"?>
<!DOCTYPE svg PUBLIC "-//W3C//DTD SVG 1.1//EN" "http://www.w3.org/Graphics/SVG/1.1/DTD/svg11.dtd">
<svg version="1.1" xmlns="http://www.w3.org/2000/svg" xmlns:xlink="http://www.w3.org/1999/xlink" x="0" y="0" width="60" height="60" viewBox="0, 0, 180, 180">
  <g id="Layer_1">
    <path d="M0,180 L180,180 L180,0 L0,0 z" fill="#7B1D33"/>
    <path d="M124.024,88.556 L105.729,105.959 C105.037,106.646 104.684,107.152 104.684,108.573 L104.684,157.35 C104.684,157.922 105.151,158.391 105.729,158.391 L124.627,158.391 C125.203,158.391 125.668,157.922 125.668,157.35 L125.668,88.995 C125.668,88.419 125.218,87.368 124.024,88.556" fill="#FFFFFE"/>
    <path d="M71.316,111.23 L53.019,128.631 C52.33,129.319 51.975,129.824 51.975,131.243 L51.975,157.35 C51.975,157.92 52.444,158.389 53.019,158.389 L71.919,158.389 C72.495,158.389 72.96,157.92 72.96,157.35 L72.96,111.667 C72.96,111.09 72.506,110.037 71.316,111.23" fill="#FFFFFE"/>
    <path d="M132.34,67.45 C132.346,67.312 132.298,67.162 132.184,67.053 C132.089,66.96 131.966,66.916 131.846,66.905 L131.746,66.911 L131.596,66.92 L117.586,70.08 L117.332,70.107 C117.232,70.127 117.136,70.176 117.059,70.25 C116.852,70.459 116.852,70.795 117.059,71.004 L117.218,71.161 L120.417,74.36 L88.672,106.104 L74.011,91.442 C73.845,91.274 73.581,91.274 73.415,91.442 L69.436,95.42 C69.433,95.42 69.433,95.425 69.433,95.425 L45.93,118.923 C45.768,119.089 45.768,119.358 45.93,119.52 L49.914,123.502 C50.077,123.666 50.343,123.666 50.506,123.502 L73.717,100.298 L84.356,110.938 C84.367,110.954 84.372,110.971 84.39,110.989 L88.369,114.963 C88.534,115.131 88.799,115.131 88.965,114.963 L124.992,78.937 L128.352,82.295 C128.559,82.504 128.895,82.504 129.1,82.295 C129.198,82.197 129.246,82.076 129.252,81.949 L129.255,81.905 L132.332,67.605 z" fill="#FFFFFE"/>
    <path d="M97.774,114.284 L88.921,123.209 C88.753,123.347 88.508,123.343 88.351,123.187 L80.332,115.013 C78.863,113.55 78.546,114.736 78.546,115.31 L78.546,157.348 C78.546,157.92 79.007,158.389 79.582,158.389 L98.487,158.389 C99.059,158.389 99.526,157.92 99.526,157.348 L99.526,114.614 C99.526,114.039 99.073,112.984 97.774,114.284" fill="#FFFFFE"/>
    <path d="M28.741,43.139 C28.741,45.334 27.939,46.886 25.745,46.886 C23.602,46.886 22.8,45.334 22.8,43.139 L22.8,37.25 C22.8,35.057 23.602,33.503 25.745,33.503 C27.939,33.503 28.741,35.057 28.741,37.25 z M23.013,23.067 C23.013,20.87 23.765,19.585 25.745,19.585 C27.777,19.585 28.528,20.87 28.528,23.067 L28.528,25.528 C28.528,27.722 27.777,29.01 25.745,29.01 C23.765,29.01 23.013,27.722 23.013,25.528 z M34.844,42.496 L34.844,38.535 C34.844,35.057 33.615,32.54 30.777,31.255 C33.183,30.079 34.309,27.938 34.309,24.94 L34.309,23.439 C34.309,17.765 31.365,14.715 25.745,14.715 C20.178,14.715 17.286,17.765 17.286,23.439 L17.286,24.94 C17.286,27.885 18.359,30.079 20.712,31.255 C17.875,32.54 16.696,35.057 16.696,38.535 L16.696,42.496 C16.696,48.01 19.321,51.864 25.745,51.864 C32.221,51.864 34.844,48.01 34.844,42.496" fill="#FFFFFE"/>
    <path d="M51.542,28.21 C52.594,28.21 52.996,27.583 52.996,26.666 L52.996,18.722 C52.996,17.827 52.594,17.201 51.542,17.201 L50.468,17.201 L50.468,28.21 z M55.546,19.192 L55.546,26.217 C55.546,28.544 54.585,30.289 51.854,30.289 L47.917,30.289 L47.917,15.119 L51.854,15.119 C54.585,15.119 55.546,16.843 55.546,19.192" fill="#FFFFFE"/>
    <path d="M56.999,15.119 L63.086,15.119 L63.086,17.201 L59.551,17.201 L59.551,21.541 L62.079,21.541 L62.079,23.6 L59.551,23.6 L59.551,28.21 L63.086,28.21 L63.086,30.29 L56.999,30.29 z" fill="#FFFFFE"/>
    <path d="M64.225,26.374 L64.225,19.035 C64.225,16.664 65.344,14.941 68.029,14.941 C70.849,14.941 71.632,16.507 71.632,18.744 L71.632,20.535 L69.304,20.535 L69.304,18.543 C69.304,17.604 68.992,17.066 68.074,17.066 C67.157,17.066 66.776,17.716 66.776,18.633 L66.776,26.778 C66.776,27.695 67.157,28.343 68.074,28.343 C68.992,28.343 69.304,27.761 69.304,26.867 L69.304,24.069 L71.632,24.069 L71.632,26.688 C71.632,28.858 70.736,30.469 68.029,30.469 C65.344,30.469 64.225,28.723 64.225,26.374" fill="#FFFFFE"/>
    <path d="M73.017,15.119 L79.104,15.119 L79.104,17.201 L75.568,17.201 L75.568,21.541 L78.097,21.541 L78.097,23.6 L75.568,23.6 L75.568,28.21 L79.104,28.21 L79.104,30.29 L73.017,30.29 z" fill="#FFFFFE"/>
    <path d="M82.615,20.759 L82.615,30.29 L80.467,30.29 L80.467,15.119 L82.973,15.119 L85.725,23.824 L85.725,15.119 L87.851,15.119 L87.851,30.29 L85.614,30.29 z" fill="#FFFFFE"/>
    <path d="M89.012,15.119 L95.793,15.119 L95.793,17.201 L93.688,17.201 L93.688,30.29 L91.115,30.29 L91.115,17.201 L89.012,17.201 z" fill="#FFFFFE"/>
    <path d="M104.83,20.915 L103.398,30.29 L101.004,30.29 L98.967,15.12 L101.429,15.12 L102.614,24.741 L102.637,24.741 L103.912,15.12 L105.994,15.12 L107.404,24.741 L107.425,24.741 L108.589,15.12 L110.737,15.12 L108.769,30.29 L106.352,30.29 L104.852,20.915 z" fill="#FFFFFE"/>
    <path d="M116.775,26.778 L116.775,18.634 C116.775,17.715 116.371,17.067 115.454,17.067 C114.559,17.067 114.156,17.715 114.156,18.634 L114.156,26.778 C114.156,27.695 114.559,28.343 115.454,28.343 C116.371,28.343 116.775,27.695 116.775,26.778 M111.605,26.373 L111.605,19.036 C111.605,16.664 112.769,14.94 115.454,14.94 C118.162,14.94 119.326,16.664 119.326,19.036 L119.326,26.373 C119.326,28.723 118.162,30.469 115.454,30.469 C112.769,30.469 111.605,28.723 111.605,26.373" fill="#FFFFFE"/>
    <path d="M123.329,17.201 L123.329,21.921 L124.179,21.921 C125.052,21.921 125.432,21.475 125.432,20.669 L125.432,18.432 C125.432,17.603 125.052,17.201 124.179,17.201 z M123.329,23.332 L123.329,30.29 L120.778,30.29 L120.778,15.119 L124.493,15.119 C127.067,15.119 128.006,16.395 128.006,18.52 L128.006,20.468 C128.006,22.101 127.425,23.063 125.969,23.399 L128.408,30.29 L125.723,30.29 z" fill="#FFFFFE"/>
    <path d="M131.942,22.907 L131.942,30.29 L129.391,30.29 L129.391,15.12 L131.942,15.12 L131.942,21.788 L134.717,15.12 L137.223,15.12 L134.269,21.945 L137.29,30.29 L134.604,30.29 z" fill="#FFFFFE"/>
    <path d="M143.396,25.479 L145.431,25.479 L144.425,19.394 L144.403,19.394 z M140.196,30.29 L143.06,15.12 L145.969,15.12 L148.855,30.29 L146.237,30.29 L145.768,27.516 L143.06,27.516 L142.613,30.29 z" fill="#FFFFFE"/>
    <path d="M152.053,20.759 L152.053,30.29 L149.905,30.29 L149.905,15.119 L152.411,15.119 L155.163,23.824 L155.163,15.119 L157.289,15.119 L157.289,30.29 L155.052,30.29 z" fill="#FFFFFE"/>
    <path d="M162.367,28.21 C163.419,28.21 163.821,27.583 163.821,26.666 L163.821,18.722 C163.821,17.827 163.419,17.201 162.367,17.201 L161.293,17.201 L161.293,28.21 z M166.371,19.192 L166.371,26.217 C166.371,28.544 165.41,30.289 162.679,30.289 L158.742,30.289 L158.742,15.119 L162.679,15.119 C165.41,15.119 166.371,16.843 166.371,19.192" fill="#FFFFFE"/>
    <path d="M47.916,36.37 L54.003,36.37 L54.003,38.452 L50.468,38.452 L50.468,42.791 L52.996,42.791 L52.996,44.852 L50.468,44.852 L50.468,49.461 L54.003,49.461 L54.003,51.541 L47.916,51.541 z" fill="#FFFFFE"/>
    <path d="M55.143,47.625 L55.143,40.286 C55.143,37.915 56.262,36.191 58.947,36.191 C61.767,36.191 62.55,37.757 62.55,39.996 L62.55,41.787 L60.222,41.787 L60.222,39.795 C60.222,38.854 59.91,38.317 58.992,38.317 C58.075,38.317 57.694,38.966 57.694,39.883 L57.694,48.03 C57.694,48.947 58.075,49.595 58.992,49.595 C59.91,49.595 60.222,49.013 60.222,48.118 L60.222,45.321 L62.55,45.321 L62.55,47.939 C62.55,50.109 61.654,51.721 58.947,51.721 C56.262,51.721 55.143,49.974 55.143,47.625" fill="#FFFFFE"/>
    <path d="M69.103,48.029 L69.103,39.884 C69.103,38.967 68.7,38.317 67.783,38.317 C66.887,38.317 66.485,38.967 66.485,39.884 L66.485,48.029 C66.485,48.946 66.887,49.594 67.783,49.594 C68.7,49.594 69.103,48.946 69.103,48.029 M63.934,47.625 L63.934,40.286 C63.934,37.915 65.098,36.191 67.783,36.191 C70.491,36.191 71.655,37.915 71.655,40.286 L71.655,47.625 C71.655,49.975 70.491,51.72 67.783,51.72 C65.098,51.72 63.934,49.975 63.934,47.625" fill="#FFFFFE"/>
    <path d="M75.255,42.009 L75.255,51.541 L73.107,51.541 L73.107,36.37 L75.613,36.37 L78.365,45.074 L78.365,36.37 L80.491,36.37 L80.491,51.541 L78.254,51.541 z" fill="#FFFFFE"/>
    <path d="M87.112,48.029 L87.112,39.884 C87.112,38.967 86.709,38.317 85.792,38.317 C84.896,38.317 84.494,38.967 84.494,39.884 L84.494,48.029 C84.494,48.946 84.896,49.594 85.792,49.594 C86.709,49.594 87.112,48.946 87.112,48.029 M81.943,47.625 L81.943,40.286 C81.943,37.915 83.107,36.191 85.792,36.191 C88.5,36.191 89.664,37.915 89.664,40.286 L89.664,47.625 C89.664,49.975 88.5,51.72 85.792,51.72 C83.107,51.72 81.943,49.975 81.943,47.625" fill="#FFFFFE"/>
    <path d="M98.141,41.696 L98.074,41.696 L96.352,51.541 L95.165,51.541 L93.263,41.696 L93.219,41.696 L93.219,51.541 L91.115,51.541 L91.115,36.37 L94.091,36.37 L95.747,44.917 L95.769,44.917 L97.246,36.37 L100.469,36.37 L100.469,51.541 L98.141,51.541 z" fill="#FFFFFE"/>
    <path d="M101.92,51.541 L104.471,51.541 L104.471,36.37 L101.92,36.37 z" fill="#FFFFFE"/>
    <path d="M105.947,47.625 L105.947,40.286 C105.947,37.915 107.066,36.191 109.751,36.191 C112.571,36.191 113.354,37.757 113.354,39.996 L113.354,41.787 L111.026,41.787 L111.026,39.795 C111.026,38.854 110.713,38.317 109.796,38.317 C108.879,38.317 108.498,38.966 108.498,39.883 L108.498,48.03 C108.498,48.947 108.879,49.595 109.796,49.595 C110.713,49.595 111.026,49.013 111.026,48.118 L111.026,45.321 L113.354,45.321 L113.354,47.939 C113.354,50.109 112.458,51.721 109.751,51.721 C107.066,51.721 105.947,49.974 105.947,47.625" fill="#FFFFFE"/>
    <path d="M120.936,43.441 L124.562,43.441 L124.562,51.541 L122.726,51.541 L122.726,49.886 C122.391,51.027 121.675,51.72 120.288,51.72 C118.095,51.72 117.087,49.974 117.087,47.626 L117.087,40.286 C117.087,37.914 118.228,36.19 120.914,36.19 C123.733,36.19 124.562,37.757 124.562,39.996 L124.562,41.338 L122.234,41.338 L122.234,39.795 C122.234,38.854 121.876,38.316 120.959,38.316 C120.041,38.316 119.639,38.966 119.639,39.883 L119.639,48.029 C119.639,48.946 120.019,49.594 120.892,49.594 C121.719,49.594 122.146,49.125 122.146,48.14 L122.146,45.455 L120.936,45.455 z" fill="#FFFFFE"/>
    <path d="M128.564,38.451 L128.564,43.172 L129.414,43.172 C130.287,43.172 130.667,42.725 130.667,41.92 L130.667,39.682 C130.667,38.854 130.287,38.451 129.414,38.451 z M128.564,44.582 L128.564,51.541 L126.013,51.541 L126.013,36.37 L129.728,36.37 C132.301,36.37 133.24,37.647 133.24,39.771 L133.24,41.718 C133.24,43.351 132.658,44.314 131.204,44.65 L133.644,51.541 L130.958,51.541 z" fill="#FFFFFE"/>
    <path d="M139.795,48.029 L139.795,39.884 C139.795,38.967 139.393,38.317 138.475,38.317 C137.579,38.317 137.177,38.967 137.177,39.884 L137.177,48.029 C137.177,48.946 137.579,49.594 138.475,49.594 C139.393,49.594 139.795,48.946 139.795,48.029 M134.626,47.625 L134.626,40.286 C134.626,37.915 135.79,36.191 138.475,36.191 C141.183,36.191 142.346,37.915 142.346,40.286 L142.346,47.625 C142.346,49.975 141.183,51.72 138.475,51.72 C135.79,51.72 134.626,49.975 134.626,47.625" fill="#FFFFFE"/>
    <path d="M149.08,42.166 L147.648,51.541 L145.254,51.541 L143.217,36.37 L145.679,36.37 L146.864,45.992 L146.887,45.992 L148.163,36.37 L150.244,36.37 L151.653,45.992 L151.676,45.992 L152.839,36.37 L154.987,36.37 L153.019,51.541 L150.602,51.541 L149.103,42.166 z" fill="#FFFFFE"/>
    <path d="M155.789,36.37 L162.57,36.37 L162.57,38.452 L160.465,38.452 L160.465,51.541 L157.893,51.541 L157.893,38.452 L155.789,38.452 z" fill="#FFFFFE"/>
    <path d="M168.764,44.851 L166.303,44.851 L166.303,51.541 L163.752,51.541 L163.752,36.37 L166.303,36.37 L166.303,42.792 L168.764,42.792 L168.764,36.37 L171.338,36.37 L171.338,51.541 L168.764,51.541 z" fill="#FFFFFE"/>
  </g>
</svg>
