<?xml version="1.0" encoding="UTF-8"?>
<!DOCTYPE svg PUBLIC "-//W3C//DTD SVG 1.1//EN" "http://www.w3.org/Graphics/SVG/1.1/DTD/svg11.dtd">
<svg version="1.1" xmlns="http://www.w3.org/2000/svg" xmlns:xlink="http://www.w3.org/1999/xlink" x="0" y="0" width="60" height="60" viewBox="0, 0, 180, 180">
  <g id="Layer_1">
    <path d="M0,180 L180,180 L180,0 L0,0 z" fill="#0073A7"/>
    <path d="M112.066,134.122 C108.759,134.122 106.078,131.438 106.078,128.132 C106.078,124.826 108.759,122.149 112.066,122.149 C115.382,122.149 118.061,124.826 118.061,128.132 C118.061,131.438 115.382,134.122 112.066,134.122 M138.072,131.331 C135.807,128.27 121.174,109.616 100.659,109.616 C82.844,109.616 63.786,125.773 63.786,125.773 C63.786,125.773 56.627,111.121 41.982,109.713 C41.897,109.713 41.805,109.694 41.708,109.694 L41.617,109.694 C41.311,109.711 41.024,110.009 41.058,110.273 C41.099,110.53 41.287,110.81 41.287,110.81 C43.174,113.943 47.992,122.858 47.992,131.765 C47.992,140.7 43.146,149.639 41.276,152.758 L41.15,152.957 C41.095,153.051 41.058,153.144 41.058,153.266 C41.058,153.575 41.298,153.816 41.598,153.843 L41.756,153.83 C41.806,153.83 41.858,153.83 41.911,153.816 C56.601,152.447 63.786,137.75 63.786,137.75 C63.786,137.75 82.844,153.909 100.659,153.909 C121.174,153.909 135.807,135.253 138.072,132.199 C138.135,132.116 138.185,132.044 138.23,131.989 C138.256,131.918 138.278,131.851 138.278,131.765 C138.278,131.684 138.256,131.603 138.23,131.542 C138.185,131.479 138.135,131.408 138.072,131.331" fill="#FFFFFE"/>
    <path d="M62.441,92.894 C62.488,92.827 62.532,92.778 62.597,92.731 C62.693,92.671 62.8,92.621 62.92,92.621 C63.074,92.621 63.219,92.684 63.321,92.784 C63.327,92.795 63.339,92.803 63.347,92.81 C74.531,103.471 86.264,94.829 88.706,92.81 L88.945,92.582 C89.013,92.554 89.087,92.544 89.166,92.544 C89.252,92.544 89.332,92.554 89.402,92.582 L89.641,92.81 C92.081,94.829 103.81,103.471 114.996,92.81 C114.999,92.803 115.009,92.795 115.018,92.784 C115.123,92.684 115.259,92.621 115.414,92.621 C115.537,92.621 115.648,92.671 115.738,92.731 C115.809,92.778 115.854,92.827 115.905,92.894 C118.072,95.026 127.439,103.091 137.351,94.479 C137.455,94.373 137.525,94.235 137.525,94.065 L137.525,89.972 C137.525,89.645 137.263,89.386 136.94,89.386 C136.898,89.386 136.859,89.402 136.814,89.409 C136.722,89.454 136.626,89.506 136.516,89.559 C133.474,91.086 124.023,94.705 115.451,86.604 C115.37,86.527 115.286,86.451 115.202,86.368 C115.123,86.324 115.047,86.31 114.951,86.31 C114.89,86.31 114.828,86.324 114.773,86.354 C114.645,86.387 114.544,86.468 114.476,86.574 C111.922,88.519 100.19,96.462 89.743,86.718 L89.59,86.564 C89.482,86.46 89.332,86.401 89.166,86.401 C89.013,86.401 88.86,86.46 88.758,86.564 L88.597,86.718 C78.156,96.462 66.413,88.519 63.861,86.574 C63.794,86.468 63.696,86.387 63.571,86.354 C63.512,86.324 63.448,86.31 63.384,86.31 C63.3,86.31 63.219,86.324 63.14,86.368 C63.06,86.451 62.973,86.527 62.886,86.604 C54.312,94.705 44.869,91.086 41.822,89.559 C41.715,89.506 41.614,89.454 41.522,89.409 C41.476,89.402 41.447,89.386 41.409,89.386 C41.084,89.386 40.819,89.645 40.819,89.972 L40.819,94.065 C40.819,94.235 40.884,94.373 40.99,94.479 C50.894,103.091 60.272,95.026 62.441,92.894" fill="#FFFFFE"/>
    <path d="M41.521,74.55 C41.475,74.541 41.445,74.526 41.408,74.526 C41.084,74.526 40.819,74.79 40.819,75.12 L40.819,79.203 C40.819,79.374 40.884,79.524 40.991,79.625 C50.894,88.23 60.27,80.168 62.441,78.038 C62.486,77.973 62.532,77.91 62.597,77.871 C62.694,77.81 62.8,77.765 62.921,77.765 C63.073,77.765 63.217,77.824 63.319,77.922 C63.326,77.934 63.339,77.943 63.348,77.948 C74.535,88.623 86.263,79.977 88.704,77.948 L88.944,77.729 C89.014,77.696 89.087,77.684 89.167,77.684 C89.25,77.684 89.334,77.696 89.4,77.729 L89.642,77.948 C92.081,79.977 103.81,88.623 114.996,77.948 C114.998,77.943 115.012,77.934 115.018,77.922 C115.122,77.824 115.26,77.765 115.415,77.765 C115.537,77.765 115.649,77.81 115.74,77.871 C115.807,77.91 115.855,77.973 115.904,78.038 C118.073,80.168 127.439,88.23 137.351,79.625 C137.454,79.524 137.522,79.374 137.522,79.203 L137.522,75.12 C137.522,74.79 137.266,74.526 136.941,74.526 C136.898,74.526 136.859,74.541 136.815,74.55 C136.723,74.602 136.628,74.652 136.517,74.704 C133.472,76.23 124.025,79.859 115.45,71.746 C115.369,71.672 115.285,71.596 115.201,71.508 C115.122,71.476 115.047,71.454 114.951,71.454 C114.891,71.454 114.826,71.472 114.774,71.482 C114.647,71.533 114.545,71.614 114.476,71.714 C111.919,73.661 100.191,81.602 89.744,71.859 L89.591,71.71 C89.482,71.612 89.334,71.533 89.167,71.533 C89.014,71.533 88.86,71.612 88.758,71.71 L88.596,71.859 C78.156,81.602 66.413,73.661 63.861,71.714 C63.795,71.614 63.696,71.533 63.571,71.482 C63.51,71.472 63.451,71.454 63.384,71.454 C63.301,71.454 63.217,71.476 63.138,71.508 C63.062,71.596 62.971,71.672 62.886,71.746 C54.314,79.859 44.87,76.23 41.823,74.704 C41.715,74.652 41.614,74.602 41.521,74.55" fill="#FFFFFE"/>
    <path d="M23.321,15.145 L23.321,51.421 L17.221,51.421 L17.221,23.652 L17.167,23.652 L12.888,28.093 L12.832,28.093 L12.832,21.726 L18.45,15.145 z" fill="#FFFFFE"/>
    <path d="M30.709,40.777 L36.169,25.843 L36.223,25.843 L36.223,40.777 z M41.897,51.429 L41.897,45.542 L44.36,45.542 L44.36,40.777 L41.897,40.777 L41.897,15.137 L35.902,15.137 L25.356,41.793 L25.356,45.542 L36.116,45.542 L36.116,51.429 z" fill="#FFFFFE"/>
    <path d="M58.656,14.938 L61.208,14.938 L61.208,28.028 L64.251,28.028 L64.251,30.109 L58.656,30.109 z" fill="#FFFFFE"/>
    <path d="M65.412,30.11 L67.963,30.11 L67.963,14.939 L65.412,14.939 z" fill="#FFFFFE"/>
    <path d="M69.438,14.938 L75.414,14.938 L75.414,17.02 L71.99,17.02 L71.99,21.361 L74.54,21.361 L74.54,23.42 L71.99,23.42 L71.99,30.109 L69.438,30.109 z" fill="#FFFFFE"/>
    <path d="M76.53,14.938 L82.616,14.938 L82.616,17.02 L79.081,17.02 L79.081,21.361 L81.61,21.361 L81.61,23.42 L79.081,23.42 L79.081,28.028 L82.616,28.028 L82.616,30.109 L76.53,30.109 z" fill="#FFFFFE"/>
    <path d="M61.208,44.537 L61.208,49.28 L62.326,49.28 C63.177,49.28 63.579,48.855 63.579,48.051 L63.579,45.768 C63.579,44.962 63.199,44.537 62.304,44.537 z M61.208,42.591 L62.103,42.591 C62.93,42.591 63.311,42.166 63.311,41.36 L63.311,39.503 C63.311,38.675 62.93,38.273 62.079,38.273 L61.208,38.273 z M58.657,36.191 L62.349,36.191 C64.9,36.191 65.75,37.377 65.75,39.525 L65.75,41.068 C65.75,42.345 65.279,43.15 64.228,43.485 C65.504,43.777 66.131,44.626 66.131,46.014 L66.131,48.027 C66.131,50.175 65.168,51.362 62.617,51.362 L58.657,51.362 z" fill="#FFFFFE"/>
    <path d="M67.404,36.191 L73.49,36.191 L73.49,38.272 L69.955,38.272 L69.955,42.612 L72.483,42.612 L72.483,44.672 L69.955,44.672 L69.955,49.28 L73.49,49.28 L73.49,51.362 L67.404,51.362 z" fill="#FFFFFE"/>
    <path d="M74.852,36.191 L77.404,36.191 L77.404,49.28 L80.447,49.28 L80.447,51.362 L74.852,51.362 z" fill="#FFFFFE"/>
    <path d="M86.666,47.848 L86.666,39.704 C86.666,38.787 86.262,38.138 85.345,38.138 C84.45,38.138 84.047,38.787 84.047,39.704 L84.047,47.848 C84.047,48.767 84.45,49.415 85.345,49.415 C86.262,49.415 86.666,48.767 86.666,47.848 M81.496,47.446 L81.496,40.106 C81.496,37.735 82.66,36.012 85.345,36.012 C88.052,36.012 89.217,37.735 89.217,40.106 L89.217,47.446 C89.217,49.795 88.052,51.541 85.345,51.541 C82.66,51.541 81.496,49.795 81.496,47.446" fill="#FFFFFE"/>
    <path d="M95.95,41.987 L94.519,51.362 L92.124,51.362 L90.088,36.19 L92.549,36.19 L93.735,45.813 L93.757,45.813 L95.032,36.19 L97.114,36.19 L98.524,45.813 L98.546,45.813 L99.71,36.19 L101.858,36.19 L99.889,51.362 L97.472,51.362 L95.973,41.987 z" fill="#FFFFFE"/>
    <path d="M110.805,41.987 L109.373,51.362 L106.979,51.362 L104.942,36.19 L107.404,36.19 L108.589,45.813 L108.612,45.813 L109.888,36.19 L111.968,36.19 L113.378,45.813 L113.4,45.813 L114.564,36.19 L116.712,36.19 L114.743,51.362 L112.326,51.362 L110.826,41.987 z" fill="#FFFFFE"/>
    <path d="M119.708,46.551 L121.743,46.551 L120.736,40.465 L120.715,40.465 z M116.508,51.362 L119.371,36.191 L122.281,36.191 L125.167,51.362 L122.549,51.362 L122.079,48.586 L119.371,48.586 L118.925,51.362 z" fill="#FFFFFE"/>
    <path d="M124.807,36.191 L131.588,36.191 L131.588,38.272 L129.484,38.272 L129.484,51.362 L126.911,51.362 L126.911,38.272 L124.807,38.272 z" fill="#FFFFFE"/>
    <path d="M132.771,36.191 L138.857,36.191 L138.857,38.272 L135.322,38.272 L135.322,42.612 L137.851,42.612 L137.851,44.672 L135.322,44.672 L135.322,49.28 L138.857,49.28 L138.857,51.362 L132.771,51.362 z" fill="#FFFFFE"/>
    <path d="M142.771,38.272 L142.771,42.993 L143.621,42.993 C144.494,42.993 144.875,42.546 144.875,41.74 L144.875,39.503 C144.875,38.674 144.494,38.272 143.621,38.272 z M142.771,44.403 L142.771,51.362 L140.22,51.362 L140.22,36.19 L143.935,36.19 C146.508,36.19 147.447,37.465 147.447,39.591 L147.447,41.539 C147.447,43.172 146.866,44.134 145.411,44.471 L147.851,51.362 L145.165,51.362 z" fill="#FFFFFE"/>
  </g>
</svg>
