<?xml version="1.0" encoding="UTF-8"?>
<!DOCTYPE svg PUBLIC "-//W3C//DTD SVG 1.1//EN" "http://www.w3.org/Graphics/SVG/1.1/DTD/svg11.dtd">
<svg version="1.1" xmlns="http://www.w3.org/2000/svg" xmlns:xlink="http://www.w3.org/1999/xlink" x="0" y="0" width="60" height="60" viewBox="0, 0, 180, 180">
  <g id="Layer_1">
    <path d="M0,180 L180,180 L180,0 L0,0 z" fill="#3DA547"/>
    <path d="M75.73,121.701 C75.95,121.701 76.127,121.88 76.127,122.099 L76.127,135.206 C76.127,135.429 75.95,135.604 75.73,135.604 L70.425,135.604 C70.205,135.604 70.027,135.429 70.027,135.206 L70.027,122.099 C70.027,121.88 70.205,121.701 70.425,121.701 z" fill="#FFFFFE"/>
    <path d="M133.979,141.232 L46.57,141.232 C46.352,141.232 46.17,141.42 46.17,141.643 L46.17,146.985 C46.17,147.203 46.352,147.379 46.57,147.379 L133.979,147.379 C134.194,147.379 134.38,147.203 134.38,146.985 L134.38,141.643 C134.38,141.42 134.194,141.232 133.979,141.232" fill="#FFFFFE"/>
    <path d="M133.979,151.85 L46.57,151.85 C46.352,151.85 46.17,152.027 46.17,152.244 L46.17,157.602 C46.17,157.816 46.352,157.997 46.57,157.997 L133.979,157.997 C134.194,157.997 134.38,157.816 134.38,157.602 L134.38,152.244 C134.38,152.027 134.194,151.85 133.979,151.85" fill="#FFFFFE"/>
    <path d="M117.346,107.193 C116.254,106.339 113.339,104.344 109.784,104.344 C107.244,104.344 104.88,105.346 102.765,107.327 C102.615,107.469 102.532,107.665 102.532,107.875 L102.532,108.351 C102.532,108.586 102.609,108.804 102.781,108.949 C102.971,109.093 103.17,109.147 103.397,109.093 C103.447,109.085 103.509,109.069 103.56,109.051 C103.722,108.995 103.874,108.897 103.997,108.774 C104.456,108.466 105.708,108.045 107.498,108.045 C109.349,108.045 112.989,108.54 116.504,111.819 L116.586,111.892 C116.784,112.095 117.056,112.207 117.346,112.207 C117.622,112.207 117.906,112.093 118.086,111.898 L118.156,111.826 C121.692,108.54 125.324,108.045 127.175,108.045 C128.979,108.045 130.225,108.466 130.686,108.774 C130.811,108.897 130.965,108.997 131.168,109.069 C131.246,109.093 131.469,109.137 131.681,109.085 C132.004,108.995 132.231,108.703 132.231,108.365 L132.231,107.943 C132.231,107.743 132.145,107.542 131.997,107.403 C129.862,105.369 127.473,104.34 124.891,104.34 C121.37,104.34 118.468,106.303 117.346,107.193" fill="#FFFFFE"/>
    <path d="M111.921,72.357 C111.735,72.444 111.601,72.613 111.539,72.818 L111.452,73.109 C111.386,73.339 111.427,73.58 111.567,73.765 C111.702,73.944 111.894,74.051 112.107,74.06 C112.147,74.065 112.186,74.074 112.216,74.065 C112.368,74.06 112.504,74.027 112.639,73.956 C112.716,73.941 112.878,73.898 113.168,73.898 C113.56,73.898 117.083,74.016 119.414,77.976 L119.443,78.032 C119.569,78.262 119.767,78.42 120.002,78.48 C120.07,78.503 120.2,78.523 120.281,78.523 C120.442,78.523 120.605,78.48 120.721,78.414 L120.779,78.387 C122.054,77.749 123.374,77.422 124.678,77.422 C126.887,77.422 128.328,78.322 128.665,78.697 C128.734,78.825 128.839,78.936 128.958,79.024 C129.031,79.066 129.163,79.132 129.241,79.16 C129.281,79.17 129.326,79.175 129.37,79.179 C129.395,79.184 129.423,79.184 129.449,79.184 C129.568,79.184 129.682,79.155 129.795,79.097 C129.974,79.007 130.108,78.843 130.167,78.649 L130.239,78.391 C130.262,78.325 130.271,78.254 130.271,78.178 C130.271,78.042 130.235,77.91 130.169,77.804 C128.471,74.856 126.007,74.24 124.239,74.24 C122.923,74.24 121.771,74.582 121.093,74.83 C120.293,73.753 118.269,71.528 115.198,71.528 C114.119,71.528 113.019,71.804 111.921,72.357" fill="#FFFFFE"/>
    <path d="M93.452,85.804 L93.477,86.198 C93.489,86.443 93.618,86.655 93.826,86.786 C93.999,86.895 94.22,86.932 94.415,86.875 C94.457,86.865 94.505,86.85 94.542,86.836 C94.693,86.773 94.821,86.678 94.921,86.556 C95.292,86.288 96.489,85.799 98.254,85.799 C99.952,85.799 102.533,86.253 105.166,88.414 L105.226,88.476 C105.414,88.639 105.654,88.731 105.901,88.731 L105.965,88.731 C106.24,88.709 106.495,88.582 106.65,88.401 L106.71,88.335 C109.623,85.252 112.762,84.793 114.372,84.793 C115.521,84.793 116.334,85.03 116.651,85.209 C116.772,85.313 116.92,85.395 117.105,85.445 C117.158,85.458 117.287,85.481 117.425,85.466 C117.482,85.46 117.554,85.441 117.609,85.422 C117.921,85.313 118.127,85.008 118.105,84.671 L118.085,84.329 C118.072,84.125 117.978,83.942 117.822,83.809 C116.083,82.347 114.207,81.609 112.232,81.609 C109.157,81.609 106.704,83.425 105.688,84.315 C104.759,83.682 102.503,82.379 99.857,82.379 C97.53,82.379 95.445,83.345 93.655,85.245 C93.514,85.395 93.443,85.6 93.452,85.804" fill="#FFFFFE"/>
    <path d="M49.219,92.821 C49.219,87.587 53.462,83.346 58.695,83.346 C58.9,83.346 59.1,83.364 59.302,83.375 C59.801,76.751 65.321,71.528 72.074,71.528 C79.155,71.528 84.897,77.267 84.897,84.348 C84.897,86.354 84.422,88.244 83.6,89.935 C90.017,91.357 94.821,97.071 94.821,103.913 C94.821,111.826 88.405,118.241 80.493,118.241 C79.914,118.241 61.371,118.13 61.371,118.13 C55.766,118.129 51.224,113.589 51.224,107.985 C51.224,105.293 52.279,102.856 53.99,101.039 C51.143,99.405 49.219,96.341 49.219,92.821" fill="#FFFFFE"/>
    <path d="M12.749,21.652 L12.749,28.021 L12.801,28.021 L17.083,23.579 L17.138,23.579 L17.138,51.358 L23.24,51.358 L23.24,15.066 L18.368,15.066 z" fill="#FFFFFE"/>
    <path d="M37.746,26.577 C35.339,26.577 33.574,27.431 32.608,29.091 L32.553,29.091 L32.553,20.045 L43.046,20.045 L43.046,15.068 L26.989,15.068 L26.989,35.517 L32.553,35.517 L32.553,34.711 C32.553,32.572 33.516,31.393 35.229,31.393 C37.104,31.393 37.855,32.679 37.855,34.659 L37.855,43.438 C37.855,45.363 37.159,46.702 35.284,46.702 C33.197,46.702 32.45,45.31 32.45,43.17 L32.45,38.621 L26.879,38.621 L26.879,42.744 C26.879,48.255 29.075,51.788 35.284,51.788 C41.44,51.788 43.955,48.522 43.955,43.491 L43.955,34.605 C43.955,28.877 41.012,26.577 37.746,26.577" fill="#FFFFFE"/>
    <path d="M57.073,14.938 L59.624,14.938 L59.624,28.028 L62.668,28.028 L62.668,30.11 L57.073,30.11 z" fill="#FFFFFE"/>
    <path d="M63.829,30.11 L66.381,30.11 L66.381,14.939 L63.829,14.939 z" fill="#FFFFFE"/>
    <path d="M67.855,14.938 L73.83,14.938 L73.83,17.02 L70.406,17.02 L70.406,21.361 L72.958,21.361 L72.958,23.42 L70.406,23.42 L70.406,30.11 L67.855,30.11 z" fill="#FFFFFE"/>
    <path d="M74.947,14.938 L81.033,14.938 L81.033,17.02 L77.498,17.02 L77.498,21.361 L80.027,21.361 L80.027,23.42 L77.498,23.42 L77.498,28.028 L81.033,28.028 L81.033,30.11 L74.947,30.11 z" fill="#FFFFFE"/>
    <path d="M62.243,47.848 L62.243,39.704 C62.243,38.787 61.839,38.138 60.922,38.138 C60.027,38.138 59.624,38.787 59.624,39.704 L59.624,47.848 C59.624,48.768 60.027,49.415 60.922,49.415 C61.839,49.415 62.243,48.768 62.243,47.848 M57.073,47.446 L57.073,40.106 C57.073,37.735 58.237,36.012 60.922,36.012 C63.63,36.012 64.794,37.735 64.794,40.106 L64.794,47.446 C64.794,49.795 63.63,51.542 60.922,51.542 C58.237,51.542 57.073,49.795 57.073,47.446" fill="#FFFFFE"/>
    <path d="M68.394,41.83 L68.394,51.362 L66.246,51.362 L66.246,36.191 L68.752,36.191 L71.504,44.895 L71.504,36.191 L73.631,36.191 L73.631,51.362 L71.393,51.362 z" fill="#FFFFFE"/>
    <path d="M79.78,36.191 L82.331,36.191 L82.331,49.28 L85.375,49.28 L85.375,51.362 L79.78,51.362 z" fill="#FFFFFE"/>
    <path d="M89.333,46.551 L91.368,46.551 L90.361,40.465 L90.34,40.465 z M86.133,51.362 L88.997,36.191 L91.906,36.191 L94.792,51.362 L92.174,51.362 L91.705,48.586 L88.997,48.586 L88.55,51.362 z" fill="#FFFFFE"/>
    <path d="M97.99,41.83 L97.99,51.362 L95.842,51.362 L95.842,36.191 L98.348,36.191 L101.1,44.895 L101.1,36.191 L103.226,36.191 L103.226,51.362 L100.989,51.362 z" fill="#FFFFFE"/>
    <path d="M108.304,49.28 C109.356,49.28 109.758,48.654 109.758,47.737 L109.758,39.793 C109.758,38.898 109.356,38.273 108.304,38.273 L107.23,38.273 L107.23,49.28 z M112.308,40.264 L112.308,47.29 C112.308,49.617 111.347,51.362 108.616,51.362 L104.678,51.362 L104.678,36.191 L108.616,36.191 C111.347,36.191 112.308,37.915 112.308,40.264" fill="#FFFFFE"/>
  </g>
</svg>
