<?xml version="1.0" encoding="UTF-8"?>
<!DOCTYPE svg PUBLIC "-//W3C//DTD SVG 1.1//EN" "http://www.w3.org/Graphics/SVG/1.1/DTD/svg11.dtd">
<svg version="1.1" xmlns="http://www.w3.org/2000/svg" xmlns:xlink="http://www.w3.org/1999/xlink" x="0" y="0" width="60" height="60" viewBox="0, 0, 180, 180">
  <g id="Layer_1">
    <path d="M0,180 L180,180 L180,0 L0,0 z" fill="#144C78"/>
    <path d="M119.45,79.897 C119.45,79.897 117.702,82.218 118.21,84.478 C118.722,86.74 121.3,88.085 121.3,88.085 C121.3,88.085 123.048,85.765 122.538,83.504 C122.029,81.241 119.45,79.897 119.45,79.897" fill="#FFFFFE"/>
    <path d="M116.602,93.149 C116.602,93.149 118.35,90.828 117.84,88.566 C117.329,86.304 114.752,84.962 114.752,84.962 C114.752,84.962 113.003,87.281 113.51,89.543 C114.023,91.803 116.602,93.149 116.602,93.149" fill="#FFFFFE"/>
    <path d="M123.784,90.664 C123.784,90.664 125.63,92.525 127.732,92.338 C129.833,92.152 131.39,89.989 131.39,89.989 C131.39,89.989 129.547,88.128 127.444,88.314 C125.343,88.501 123.784,90.664 123.784,90.664" fill="#FFFFFE"/>
    <path d="M126.807,80.723 C125.098,82.459 125.339,85.528 125.339,85.528 C125.339,85.528 128.353,85.79 130.066,84.056 C131.776,82.323 131.535,79.252 131.535,79.252 C131.535,79.252 128.518,78.992 126.807,80.723" fill="#FFFFFE"/>
    <path d="M123.035,97.563 C125.129,97.81 127.098,96.013 127.098,96.013 C127.098,96.013 125.672,93.814 123.58,93.566 C121.484,93.32 119.515,95.119 119.515,95.119 C119.515,95.119 120.942,97.316 123.035,97.563" fill="#FFFFFE"/>
    <path d="M124.906,131.226 L109.254,131.226 C108.029,131.226 107.036,132.214 107.036,133.438 C107.036,134.661 108.029,135.654 109.254,135.654 L124.906,135.654 C126.129,135.654 127.119,134.661 127.119,133.438 C127.119,132.214 126.129,131.226 124.906,131.226" fill="#FFFFFE"/>
    <path d="M124.906,155.632 L109.254,155.632 C108.029,155.632 107.036,156.622 107.036,157.846 C107.036,159.068 108.029,160.061 109.254,160.061 L124.906,160.061 C126.129,160.061 127.119,159.068 127.119,157.846 C127.119,156.622 126.129,155.632 124.906,155.632" fill="#FFFFFE"/>
    <path d="M54.512,125.85 C54.144,125.737 53.78,125.636 53.425,125.57 C53.425,125.57 53.827,125.695 54.512,125.85" fill="#FFFFFE"/>
    <path d="M79.88,135.43 C80.912,135.447 81.947,135.417 82.984,135.347 L82.984,143.524 L79.88,143.453 z M124.329,137.2 L109.825,137.2 C109.13,137.2 108.564,137.766 108.564,138.46 L108.564,142.852 L99.096,143.892 L85.264,143.577 L85.264,135.127 C87.101,134.893 88.941,134.526 90.767,134.011 C104.082,130.255 106.986,121.961 106.696,114.345 C106.406,106.588 108.889,103.576 112.456,102.236 C113.477,101.852 114.487,101.61 115.413,101.453 C115.452,103.359 115.838,105.572 116.69,108.212 C117.007,108.195 117.322,108.168 117.634,108.134 C116.734,105.434 116.351,103.214 116.33,101.32 C118.173,101.102 119.488,101.225 119.488,101.225 C119.488,101.225 118.242,100.556 116.482,99.085 C117.081,95.412 119.268,93.156 121.523,90.851 C122.763,89.58 124.043,88.27 125.052,86.708 L124.266,86.201 C123.312,87.684 122.059,88.961 120.853,90.197 C118.654,92.446 116.435,94.744 115.683,98.391 C114.968,97.746 114.195,96.984 113.404,96.096 C110.12,92.415 105.894,95.118 99.866,100.731 C93.835,106.339 86.252,106.531 78.846,98.954 C69.075,88.951 60.551,89.008 54.707,89.576 C58.705,91.279 60.103,95.015 62.128,104.511 C64.249,114.476 69.598,118.984 76.915,119.607 C73.523,120.156 72.643,120.627 67.19,124.393 C62.931,127.33 56.941,126.403 54.512,125.85 C58.971,127.24 64.252,131.917 68.978,133.544 C71.728,134.492 74.63,135.077 77.6,135.312 L77.6,143.4 L51.362,142.835 L51.362,148.478 L99.096,147.418 L108.564,148.46 L108.564,152.849 C108.564,153.544 109.13,154.112 109.825,154.112 L124.329,154.112 C125.025,154.112 125.591,153.544 125.591,152.849 L125.591,138.46 C125.591,137.766 125.025,137.2 124.329,137.2" fill="#FFFFFE"/>
    <path d="M50.008,147.544 C50.008,148.734 49.178,149.698 48.154,149.698 L47.039,149.698 C46.018,149.698 45.185,148.734 45.185,147.544 L45.185,143.645 C45.185,142.453 46.018,141.489 47.039,141.489 L48.154,141.489 C49.178,141.489 50.008,142.453 50.008,143.645 z" fill="#FFFFFE"/>
    <path d="M13.81,21.683 L13.81,28.052 L13.865,28.052 L18.147,23.61 L18.201,23.61 L18.201,51.389 L24.304,51.389 L24.304,15.097 L19.434,15.097 z" fill="#FFFFFE"/>
    <path d="M39.614,43.201 C39.614,45.502 38.757,46.841 36.671,46.841 C34.637,46.841 33.835,45.45 33.835,43.201 L33.835,36.564 C33.94,34.53 34.797,33.244 36.725,33.244 C38.81,33.244 39.614,34.53 39.614,36.885 z M45.663,42.667 L45.663,37.313 C45.663,31.372 43.308,28.372 38.919,28.372 C36.348,28.372 34.797,29.55 33.887,31.318 L33.835,31.318 L33.835,23.503 C33.835,21.307 34.527,19.754 36.725,19.754 C38.919,19.754 39.562,21.039 39.562,23.286 L39.562,25.699 L45.128,25.699 L45.128,23.77 C45.128,18.417 43.362,14.672 36.616,14.672 C30.193,14.672 27.783,18.792 27.783,24.467 L27.783,42.13 C27.783,47.75 30.248,51.819 36.671,51.819 C43.147,51.819 45.663,48.287 45.663,42.667" fill="#FFFFFE"/>
    <path d="M59.397,17.02 L59.397,22.993 L60.337,22.993 C61.209,22.993 61.591,22.569 61.591,21.74 L61.591,18.25 C61.591,17.422 61.209,17.02 60.337,17.02 z M56.846,14.938 L60.627,14.938 C63.202,14.938 64.141,16.213 64.141,18.339 L64.141,21.539 C64.141,23.665 63.202,24.963 60.627,24.963 L59.397,24.963 L59.397,30.109 L56.846,30.109 z" fill="#FFFFFE"/>
    <path d="M65.459,14.938 L71.546,14.938 L71.546,17.02 L68.009,17.02 L68.009,21.361 L70.54,21.361 L70.54,23.42 L68.009,23.42 L68.009,28.028 L71.546,28.028 L71.546,30.109 L65.459,30.109 z" fill="#FFFFFE"/>
    <path d="M75.707,25.298 L77.743,25.298 L76.737,19.212 L76.713,19.212 z M72.507,30.11 L75.372,14.938 L78.28,14.938 L81.167,30.11 L78.549,30.11 L78.079,27.334 L75.372,27.334 L74.923,30.11 z" fill="#FFFFFE"/>
    <path d="M81.879,26.193 L81.879,18.854 C81.879,16.483 82.998,14.76 85.683,14.76 C88.502,14.76 89.287,16.326 89.287,18.564 L89.287,20.355 L86.958,20.355 L86.958,18.362 C86.958,17.422 86.647,16.886 85.728,16.886 C84.81,16.886 84.43,17.534 84.43,18.451 L84.43,26.596 C84.43,27.515 84.81,28.163 85.728,28.163 C86.647,28.163 86.958,27.581 86.958,26.686 L86.958,23.889 L89.287,23.889 L89.287,26.507 C89.287,28.677 88.391,30.289 85.683,30.289 C82.998,30.289 81.879,28.542 81.879,26.193" fill="#FFFFFE"/>
    <path d="M90.672,14.938 L96.758,14.938 L96.758,17.02 L93.222,17.02 L93.222,21.361 L95.75,21.361 L95.75,23.42 L93.222,23.42 L93.222,28.028 L96.758,28.028 L96.758,30.109 L90.672,30.109 z" fill="#FFFFFE"/>
    <path d="M100.741,27.873 L99.442,31.295 L98.01,31.295 L98.324,27.67 L100.741,27.67 z" fill="#FFFFFE"/>
    <path d="M111.323,14.938 L111.323,26.664 C111.323,28.856 110.362,30.288 107.809,30.288 C105.17,30.288 104.454,28.834 104.454,26.909 L104.454,23.888 L106.87,23.888 L106.87,26.954 C106.87,27.716 107.139,28.163 107.809,28.163 C108.504,28.163 108.773,27.716 108.773,26.931 L108.773,14.938 z" fill="#FFFFFE"/>
    <path d="M120.159,14.938 L120.159,26.416 C120.159,28.766 119.154,30.288 116.557,30.288 C113.872,30.288 112.754,28.766 112.754,26.416 L112.754,14.938 L115.304,14.938 L115.304,26.664 C115.304,27.558 115.662,28.163 116.557,28.163 C117.452,28.163 117.811,27.558 117.811,26.664 L117.811,14.938 z" fill="#FFFFFE"/>
    <path d="M121.476,26.843 L121.476,24.806 L123.849,24.806 L123.849,26.887 C123.849,27.738 124.23,28.23 125.102,28.23 C125.907,28.23 126.265,27.692 126.265,26.887 L126.265,26.306 C126.265,25.433 125.907,24.896 125.125,24.158 L123.624,22.658 C122.17,21.226 121.5,20.354 121.5,18.609 L121.5,18.094 C121.5,16.214 122.596,14.759 125.08,14.759 C127.631,14.759 128.637,16.012 128.637,18.207 L128.637,19.435 L126.309,19.435 L126.309,18.116 C126.309,17.243 125.907,16.818 125.102,16.818 C124.386,16.818 123.893,17.221 123.893,18.071 L123.893,18.384 C123.893,19.234 124.364,19.727 125.102,20.443 L126.735,22.054 C128.122,23.463 128.793,24.315 128.793,25.992 L128.793,26.73 C128.793,28.812 127.675,30.288 125.08,30.288 C122.484,30.288 121.476,28.834 121.476,26.843" fill="#FFFFFE"/>
    <path d="M129.506,14.938 L136.286,14.938 L136.286,17.02 L134.185,17.02 L134.185,30.109 L131.61,30.109 L131.61,17.02 L129.506,17.02 z" fill="#FFFFFE"/>
    <path d="M137.471,30.11 L140.021,30.11 L140.021,14.939 L137.471,14.939 z" fill="#FFFFFE"/>
    <path d="M141.499,26.193 L141.499,18.854 C141.499,16.483 142.617,14.76 145.302,14.76 C148.121,14.76 148.907,16.326 148.907,18.564 L148.907,20.355 L146.577,20.355 L146.577,18.362 C146.577,17.422 146.266,16.886 145.349,16.886 C144.429,16.886 144.049,17.534 144.049,18.451 L144.049,26.596 C144.049,27.515 144.429,28.163 145.349,28.163 C146.266,28.163 146.577,27.581 146.577,26.686 L146.577,23.889 L148.907,23.889 L148.907,26.507 C148.907,28.677 148.01,30.289 145.302,30.289 C142.617,30.289 141.499,28.542 141.499,26.193" fill="#FFFFFE"/>
    <path d="M150.291,14.938 L156.377,14.938 L156.377,17.02 L152.841,17.02 L152.841,21.361 L155.369,21.361 L155.369,23.42 L152.841,23.42 L152.841,28.028 L156.377,28.028 L156.377,30.109 L150.291,30.109 z" fill="#FFFFFE"/>
    <path d="M59.644,46.551 L61.679,46.551 L60.673,40.465 L60.65,40.465 z M56.444,51.362 L59.307,36.191 L62.217,36.191 L65.103,51.362 L62.486,51.362 L62.015,48.586 L59.307,48.586 L58.86,51.362 z" fill="#FFFFFE"/>
    <path d="M68.301,41.83 L68.301,51.362 L66.154,51.362 L66.154,36.191 L68.659,36.191 L71.412,44.895 L71.412,36.191 L73.537,36.191 L73.537,51.362 L71.3,51.362 z" fill="#FFFFFE"/>
    <path d="M78.614,49.28 C79.667,49.28 80.07,48.654 80.07,47.737 L80.07,39.793 C80.07,38.898 79.667,38.272 78.614,38.272 L77.541,38.272 L77.541,49.28 z M82.621,40.263 L82.621,47.289 C82.621,49.617 81.658,51.362 78.928,51.362 L74.989,51.362 L74.989,36.191 L78.928,36.191 C81.658,36.191 82.621,37.915 82.621,40.263" fill="#FFFFFE"/>
    <path d="M86.285,48.095 L86.285,46.058 L88.658,46.058 L88.658,48.14 C88.658,48.991 89.038,49.483 89.911,49.483 C90.716,49.483 91.074,48.944 91.074,48.14 L91.074,47.558 C91.074,46.685 90.716,46.149 89.934,45.41 L88.433,43.91 C86.979,42.479 86.309,41.607 86.309,39.861 L86.309,39.347 C86.309,37.466 87.405,36.012 89.889,36.012 C92.44,36.012 93.445,37.265 93.445,39.459 L93.445,40.688 L91.118,40.688 L91.118,39.368 C91.118,38.496 90.716,38.071 89.911,38.071 C89.195,38.071 88.702,38.473 88.702,39.324 L88.702,39.637 C88.702,40.486 89.172,40.98 89.911,41.695 L91.544,43.307 C92.931,44.717 93.602,45.567 93.602,47.244 L93.602,47.983 C93.602,50.065 92.484,51.541 89.889,51.541 C87.293,51.541 86.285,50.086 86.285,48.095" fill="#FFFFFE"/>
    <path d="M94.315,36.191 L101.096,36.191 L101.096,38.272 L98.994,38.272 L98.994,51.362 L96.419,51.362 L96.419,38.272 L94.315,38.272 z" fill="#FFFFFE"/>
    <path d="M104.831,38.272 L104.831,42.993 L105.682,42.993 C106.555,42.993 106.935,42.546 106.935,41.74 L106.935,39.503 C106.935,38.674 106.555,38.272 105.682,38.272 z M104.831,44.403 L104.831,51.362 L102.281,51.362 L102.281,36.19 L105.996,36.19 C108.569,36.19 109.507,37.465 109.507,39.591 L109.507,41.539 C109.507,43.172 108.926,44.134 107.472,44.471 L109.912,51.362 L107.227,51.362 z" fill="#FFFFFE"/>
    <path d="M116.063,47.848 L116.063,39.704 C116.063,38.787 115.661,38.138 114.744,38.138 C113.848,38.138 113.445,38.787 113.445,39.704 L113.445,47.848 C113.445,48.767 113.848,49.415 114.744,49.415 C115.661,49.415 116.063,48.767 116.063,47.848 M110.894,47.446 L110.894,40.106 C110.894,37.735 112.058,36.012 114.744,36.012 C117.451,36.012 118.613,37.735 118.613,40.106 L118.613,47.446 C118.613,49.795 117.451,51.541 114.744,51.541 C112.058,51.541 110.894,49.795 110.894,47.446" fill="#FFFFFE"/>
    <path d="M122.214,41.83 L122.214,51.362 L120.066,51.362 L120.066,36.191 L122.572,36.191 L125.323,44.895 L125.323,36.191 L127.45,36.191 L127.45,51.362 L125.213,51.362 z" fill="#FFFFFE"/>
    <path d="M132.751,43.262 L136.375,43.262 L136.375,51.362 L134.541,51.362 L134.541,49.706 C134.205,50.847 133.488,51.54 132.101,51.54 C129.909,51.54 128.901,49.795 128.901,47.446 L128.901,40.107 C128.901,37.735 130.042,36.011 132.728,36.011 C135.546,36.011 136.375,37.578 136.375,39.817 L136.375,41.159 L134.048,41.159 L134.048,39.613 C134.048,38.675 133.691,38.137 132.772,38.137 C131.855,38.137 131.452,38.787 131.452,39.704 L131.452,47.848 C131.452,48.767 131.831,49.414 132.704,49.414 C133.534,49.414 133.958,48.944 133.958,47.961 L133.958,45.276 L132.751,45.276 z" fill="#FFFFFE"/>
    <path d="M56.847,72.613 L59.397,72.613 L59.397,57.442 L56.847,57.442 z" fill="#FFFFFE"/>
    <path d="M63.021,63.081 L63.021,72.612 L60.873,72.612 L60.873,57.441 L63.379,57.441 L66.133,66.147 L66.133,57.441 L68.257,57.441 L68.257,72.612 L66.02,72.612 z" fill="#FFFFFE"/>
    <path d="M69.575,69.346 L69.575,67.309 L71.948,67.309 L71.948,69.391 C71.948,70.242 72.328,70.733 73.201,70.733 C74.006,70.733 74.364,70.197 74.364,69.391 L74.364,68.809 C74.364,67.936 74.006,67.4 73.223,66.661 L71.723,65.161 C70.269,63.729 69.599,62.857 69.599,61.112 L69.599,60.597 C69.599,58.717 70.695,57.262 73.18,57.262 C75.73,57.262 76.735,58.516 76.735,60.708 L76.735,61.938 L74.408,61.938 L74.408,60.619 C74.408,59.746 74.006,59.321 73.201,59.321 C72.485,59.321 71.992,59.724 71.992,60.575 L71.992,60.888 C71.992,61.737 72.463,62.23 73.201,62.946 L74.834,64.558 C76.221,65.967 76.892,66.818 76.892,68.495 L76.892,69.234 C76.892,71.315 75.774,72.792 73.18,72.792 C70.583,72.792 69.575,71.337 69.575,69.346" fill="#FFFFFE"/>
    <path d="M77.605,57.441 L84.384,57.441 L84.384,59.523 L82.282,59.523 L82.282,72.613 L79.708,72.613 L79.708,59.523 L77.605,59.523 z" fill="#FFFFFE"/>
    <path d="M85.569,72.613 L88.119,72.613 L88.119,57.442 L85.569,57.442 z" fill="#FFFFFE"/>
    <path d="M89.306,57.441 L96.085,57.441 L96.085,59.523 L93.982,59.523 L93.982,72.613 L91.408,72.613 L91.408,59.523 L89.306,59.523 z" fill="#FFFFFE"/>
    <path d="M104.676,57.442 L104.676,68.92 C104.676,71.271 103.67,72.791 101.073,72.791 C98.388,72.791 97.27,71.271 97.27,68.92 L97.27,57.442 L99.82,57.442 L99.82,69.167 C99.82,70.062 100.178,70.665 101.073,70.665 C101.969,70.665 102.327,70.062 102.327,69.167 L102.327,57.442 z" fill="#FFFFFE"/>
    <path d="M105.839,57.441 L112.617,57.441 L112.617,59.523 L110.515,59.523 L110.515,72.613 L107.941,72.613 L107.941,59.523 L105.839,59.523 z" fill="#FFFFFE"/>
    <path d="M113.802,72.613 L116.352,72.613 L116.352,57.442 L113.802,57.442 z" fill="#FFFFFE"/>
    <path d="M122.997,69.099 L122.997,60.955 C122.997,60.038 122.595,59.389 121.678,59.389 C120.782,59.389 120.379,60.038 120.379,60.955 L120.379,69.099 C120.379,70.016 120.782,70.666 121.678,70.666 C122.595,70.666 122.997,70.016 122.997,69.099 M117.827,68.697 L117.827,61.357 C117.827,58.986 118.992,57.263 121.678,57.263 C124.384,57.263 125.547,58.986 125.547,61.357 L125.547,68.697 C125.547,71.046 124.384,72.792 121.678,72.792 C118.992,72.792 117.827,71.046 117.827,68.697" fill="#FFFFFE"/>
    <path d="M129.148,63.081 L129.148,72.612 L127.001,72.612 L127.001,57.441 L129.506,57.441 L132.26,66.147 L132.26,57.441 L134.384,57.441 L134.384,72.612 L132.147,72.612 z" fill="#FFFFFE"/>
    <path d="M135.702,69.346 L135.702,67.309 L138.075,67.309 L138.075,69.391 C138.075,70.242 138.455,70.733 139.328,70.733 C140.133,70.733 140.491,70.197 140.491,69.391 L140.491,68.809 C140.491,67.936 140.133,67.4 139.351,66.661 L137.85,65.161 C136.396,63.729 135.726,62.857 135.726,61.112 L135.726,60.597 C135.726,58.717 136.822,57.262 139.307,57.262 C141.857,57.262 142.863,58.516 142.863,60.708 L142.863,61.938 L140.535,61.938 L140.535,60.619 C140.535,59.746 140.133,59.321 139.328,59.321 C138.612,59.321 138.119,59.724 138.119,60.575 L138.119,60.888 C138.119,61.737 138.59,62.23 139.328,62.946 L140.961,64.558 C142.348,65.967 143.019,66.818 143.019,68.495 L143.019,69.234 C143.019,71.315 141.901,72.792 139.307,72.792 C136.71,72.792 135.702,71.337 135.702,69.346" fill="#FFFFFE"/>
  </g>
</svg>
