<?xml version="1.0" encoding="UTF-8"?>
<!DOCTYPE svg PUBLIC "-//W3C//DTD SVG 1.1//EN" "http://www.w3.org/Graphics/SVG/1.1/DTD/svg11.dtd">
<svg version="1.1" xmlns="http://www.w3.org/2000/svg" xmlns:xlink="http://www.w3.org/1999/xlink" x="0" y="0" width="60" height="60" viewBox="0, 0, 180, 180">
  <g id="Layer_1">
    <path d="M0,180 L180,180 L180,0 L0,0 z" fill="#AF2534"/>
    <path d="M79.844,96.514 L47.561,77.873 L47.561,138.174 L79.844,147.914 z" fill="#FFFFFE"/>
    <path d="M83.394,96.637 L83.394,147.935 L115.887,138.166 L115.887,77.875 z" fill="#FFFFFE"/>
    <path d="M134.539,137.104 L133.591,137.104 L137.412,150.454 L141.226,137.104 L140.279,137.104 L141.226,137.104 L141.226,83.455 L140.279,83.455 L139.33,83.455 L138.326,83.455 L136.424,83.455 L135.488,83.455 L134.539,83.455 L133.589,83.455 L133.589,137.104 z" fill="#FFFFFE"/>
    <path d="M122.821,80.463 L119.36,77.729 L119.36,139.809 L83.49,151.4 L81.829,151.4 L81.502,151.4 L79.844,151.4 L44.133,141.424 L44.133,77.729 L40.67,80.463 L40.67,143.851 L79.68,154.651 L81.502,154.651 L81.829,154.651 L83.652,154.651 L119.642,143.223 L122.821,142.289 z" fill="#FFFFFE"/>
    <path d="M141.229,76.348 C141.229,74.237 139.518,72.527 137.412,72.527 C135.3,72.527 133.591,74.237 133.591,76.348 L133.591,80.465 L141.229,80.465 z" fill="#FFFFFE"/>
    <path d="M22.817,40.727 L28.276,25.793 L28.331,25.793 L28.331,40.727 z M28.224,51.377 L34.005,51.377 L34.005,45.49 L36.469,45.49 L36.469,40.727 L34.005,40.727 L34.005,15.084 L28.008,15.084 L17.465,41.743 L17.465,45.49 L28.224,45.49 z" fill="#FFFFFE"/>
    <path d="M58.229,27.295 L58.229,19.017 C58.229,18.1 57.827,17.45 56.91,17.45 C56.014,17.45 55.611,18.1 55.611,19.017 L55.611,27.295 C55.611,28.191 56.014,28.862 56.91,28.862 C57.827,28.862 58.229,28.191 58.229,27.295 M55.969,31.704 L55.969,30.675 C53.932,30.316 53.06,28.817 53.06,26.758 L53.06,19.419 C53.06,17.048 54.224,15.324 56.91,15.324 C59.616,15.324 60.779,17.048 60.779,19.419 L60.779,26.758 C60.779,28.414 60.198,29.712 58.901,30.338 L60.779,30.696 L60.779,32.598 z" fill="#FFFFFE"/>
    <path d="M69.638,15.503 L69.638,26.982 C69.638,29.331 68.632,30.853 66.036,30.853 C63.351,30.853 62.232,29.331 62.232,26.982 L62.232,15.503 L64.782,15.503 L64.782,27.229 C64.782,28.123 65.14,28.728 66.036,28.728 C66.931,28.728 67.289,28.123 67.289,27.229 L67.289,15.503 z" fill="#FFFFFE"/>
    <path d="M73.553,25.863 L75.588,25.863 L74.581,19.777 L74.559,19.777 z M70.353,30.674 L73.218,15.503 L76.126,15.503 L79.012,30.674 L76.395,30.674 L75.924,27.899 L73.218,27.899 L72.769,30.674 z" fill="#FFFFFE"/>
    <path d="M80.061,15.503 L82.611,15.503 L82.611,28.594 L85.654,28.594 L85.654,30.674 L80.061,30.674 z" fill="#FFFFFE"/>
    <path d="M86.817,30.674 L89.367,30.674 L89.367,15.502 L86.817,15.502 z" fill="#FFFFFE"/>
    <path d="M90.553,15.503 L97.334,15.503 L97.334,17.585 L95.231,17.585 L95.231,30.674 L92.656,30.674 L92.656,17.585 L90.553,17.585 z" fill="#FFFFFE"/>
    <path d="M103.486,24.902 L103.486,30.674 L100.936,30.674 L100.936,24.902 L98.094,15.503 L100.756,15.503 L102.3,21.254 L102.321,21.254 L103.867,15.503 L106.306,15.503 z" fill="#FFFFFE"/>
    <path d="M53.06,36.754 L59.146,36.754 L59.146,38.836 L55.61,38.836 L55.61,43.175 L58.141,43.175 L58.141,45.235 L55.61,45.235 L55.61,49.845 L59.146,49.845 L59.146,51.925 L53.06,51.925 z" fill="#FFFFFE"/>
    <path d="M64.135,49.844 C65.187,49.844 65.589,49.218 65.589,48.301 L65.589,40.357 C65.589,39.462 65.187,38.835 64.135,38.835 L63.061,38.835 L63.061,49.844 z M68.142,40.826 L68.142,47.852 C68.142,50.18 67.178,51.925 64.449,51.925 L60.51,51.925 L60.51,36.754 L64.449,36.754 C67.178,36.754 68.142,38.477 68.142,40.826" fill="#FFFFFE"/>
    <path d="M76.998,36.754 L76.998,48.233 C76.998,50.582 75.993,52.104 73.396,52.104 C70.711,52.104 69.593,50.582 69.593,48.233 L69.593,36.754 L72.143,36.754 L72.143,48.48 C72.143,49.374 72.501,49.978 73.396,49.978 C74.292,49.978 74.649,49.374 74.649,48.48 L74.649,36.754 z" fill="#FFFFFE"/>
    <path d="M78.45,48.009 L78.45,40.669 C78.45,38.299 79.568,36.575 82.253,36.575 C85.073,36.575 85.858,38.142 85.858,40.38 L85.858,42.169 L83.528,42.169 L83.528,40.177 C83.528,39.238 83.217,38.701 82.299,38.701 C81.38,38.701 81,39.35 81,40.267 L81,48.412 C81,49.329 81.38,49.978 82.299,49.978 C83.217,49.978 83.528,49.397 83.528,48.502 L83.528,45.705 L85.858,45.705 L85.858,48.323 C85.858,50.493 84.961,52.104 82.253,52.104 C79.568,52.104 78.45,50.358 78.45,48.009" fill="#FFFFFE"/>
    <path d="M89.816,47.114 L91.851,47.114 L90.845,41.028 L90.822,41.028 z M86.616,51.925 L89.48,36.754 L92.389,36.754 L95.275,51.925 L92.658,51.925 L92.188,49.15 L89.48,49.15 L89.032,51.925 z" fill="#FFFFFE"/>
    <path d="M94.916,36.754 L101.696,36.754 L101.696,38.836 L99.594,38.836 L99.594,51.925 L97.019,51.925 L97.019,38.836 L94.916,38.836 z" fill="#FFFFFE"/>
    <path d="M102.88,51.925 L105.43,51.925 L105.43,36.754 L102.88,36.754 z" fill="#FFFFFE"/>
    <path d="M112.077,48.412 L112.077,40.268 C112.077,39.35 111.675,38.701 110.758,38.701 C109.862,38.701 109.459,39.35 109.459,40.268 L109.459,48.412 C109.459,49.329 109.862,49.978 110.758,49.978 C111.675,49.978 112.077,49.329 112.077,48.412 M106.908,48.009 L106.908,40.67 C106.908,38.299 108.072,36.575 110.758,36.575 C113.465,36.575 114.627,38.299 114.627,40.67 L114.627,48.009 C114.627,50.359 113.465,52.104 110.758,52.104 C108.072,52.104 106.908,50.359 106.908,48.009" fill="#FFFFFE"/>
    <path d="M118.229,42.393 L118.229,51.925 L116.081,51.925 L116.081,36.754 L118.587,36.754 L121.34,45.458 L121.34,36.754 L123.464,36.754 L123.464,51.925 L121.228,51.925 z" fill="#FFFFFE"/>
  </g>
</svg>
