<?xml version="1.0" encoding="UTF-8"?>
<!DOCTYPE svg PUBLIC "-//W3C//DTD SVG 1.1//EN" "http://www.w3.org/Graphics/SVG/1.1/DTD/svg11.dtd">
<svg version="1.1" xmlns="http://www.w3.org/2000/svg" xmlns:xlink="http://www.w3.org/1999/xlink" x="0" y="0" width="60" height="60" viewBox="0, 0, 180, 180">
  <g id="Layer_1">
    <path d="M0,180 L180,180 L180,0 L0,0 z" fill="#2D9145"/>
    <path d="M151.77,112.489 C151.77,107.424 148.52,103.318 143.598,103.318 C141.137,103.318 138.168,106.013 136.555,107.671 C134.943,106.011 132.171,103.314 129.708,103.314 C124.786,103.314 121.336,107.42 121.336,112.487 C121.336,115.02 122.333,117.311 123.948,118.973 L136.566,131.613 L149.167,118.987 L149.157,118.978 C150.772,117.317 151.77,115.023 151.77,112.489" fill="#FFFFFE"/>
    <path d="M98.049,152.25 C98.007,152.25 97.963,152.249 97.92,152.246 C96.961,152.189 96.169,151.476 96.006,150.529 L89.597,113.201 L79.888,131.202 C79.463,131.991 78.575,132.415 77.702,132.258 C76.821,132.101 76.141,131.397 76.013,130.512 L71.891,101.705 L64.351,118.642 C64.018,119.389 63.276,119.872 62.458,119.872 L33.149,119.872 C32.005,119.872 31.077,118.944 31.077,117.799 C31.077,116.655 32.005,115.727 33.149,115.727 L61.112,115.727 L71.031,93.449 C71.407,92.605 72.294,92.113 73.211,92.24 C74.124,92.367 74.845,93.084 74.976,93.998 L79.225,123.702 L88.8,105.951 C89.219,105.17 90.086,104.745 90.959,104.889 C91.831,105.031 92.516,105.712 92.666,106.583 L98.6,141.154 L120.233,69.299 C120.48,68.48 121.203,67.897 122.054,67.83 C122.909,67.768 123.713,68.226 124.083,68.996 L135.466,92.592 C135.964,93.623 135.531,94.861 134.5,95.359 C133.471,95.856 132.23,95.423 131.734,94.393 L122.665,75.594 L100.031,150.776 C99.767,151.656 98.957,152.25 98.049,152.25" fill="#FFFFFE"/>
    <path d="M26.998,51.861 C33.156,51.861 35.83,48.594 35.83,43.564 L35.83,38.212 C35.83,34.894 34.386,32.751 31.335,32.056 C33.85,31.254 35.509,29.219 35.509,26.168 L35.509,23.01 C35.509,17.871 33.048,14.713 27.427,14.713 C21.109,14.713 18.914,18.458 18.914,23.813 L18.914,27.024 L24.481,27.024 L24.481,23.33 C24.481,21.083 25.179,19.799 27.106,19.799 C29.034,19.799 29.726,21.083 29.726,23.063 L29.726,26.971 C29.726,28.898 28.443,29.913 26.463,29.913 L24.16,29.913 L24.16,34.573 L26.732,34.573 C28.871,34.573 29.726,35.588 29.726,37.516 L29.726,43.511 C29.726,45.436 28.871,46.777 26.998,46.777 C24.91,46.777 24.16,45.384 24.16,43.244 L24.16,38.052 L18.596,38.052 L18.596,42.814 C18.596,48.329 20.789,51.861 26.998,51.861" fill="#FFFFFE"/>
    <path d="M56.943,22.57 L60.568,22.57 L60.568,30.67 L58.733,30.67 L58.733,29.015 C58.397,30.156 57.681,30.849 56.294,30.849 C54.102,30.849 53.094,29.103 53.094,26.754 L53.094,19.414 C53.094,17.043 54.236,15.319 56.92,15.319 C59.74,15.319 60.568,16.886 60.568,19.123 L60.568,20.467 L58.241,20.467 L58.241,18.922 C58.241,17.983 57.883,17.445 56.965,17.445 C56.047,17.445 55.645,18.095 55.645,19.012 L55.645,27.157 C55.645,28.075 56.026,28.724 56.898,28.724 C57.726,28.724 58.152,28.253 58.152,27.269 L58.152,24.584 L56.943,24.584 z" fill="#FFFFFE"/>
    <path d="M67.19,27.157 L67.19,19.013 C67.19,18.094 66.786,17.445 65.869,17.445 C64.974,17.445 64.571,18.094 64.571,19.013 L64.571,27.157 C64.571,28.074 64.974,28.723 65.869,28.723 C66.786,28.723 67.19,28.074 67.19,27.157 M62.02,26.754 L62.02,19.415 C62.02,17.043 63.184,15.319 65.869,15.319 C68.577,15.319 69.741,17.043 69.741,19.415 L69.741,26.754 C69.741,29.104 68.577,30.849 65.869,30.849 C63.184,30.849 62.02,29.104 62.02,26.754" fill="#FFFFFE"/>
    <path d="M76.362,27.157 L76.362,19.013 C76.362,18.094 75.959,17.445 75.041,17.445 C74.146,17.445 73.743,18.094 73.743,19.013 L73.743,27.157 C73.743,28.074 74.146,28.723 75.041,28.723 C75.959,28.723 76.362,28.074 76.362,27.157 M71.192,26.754 L71.192,19.415 C71.192,17.043 72.356,15.319 75.041,15.319 C77.749,15.319 78.912,17.043 78.912,19.415 L78.912,26.754 C78.912,29.104 77.749,30.849 75.041,30.849 C72.356,30.849 71.192,29.104 71.192,26.754" fill="#FFFFFE"/>
    <path d="M83.991,28.589 C85.042,28.589 85.445,27.963 85.445,27.046 L85.445,19.101 C85.445,18.207 85.042,17.58 83.991,17.58 L82.917,17.58 L82.917,28.589 z M87.997,19.571 L87.997,26.597 C87.997,28.924 87.034,30.67 84.303,30.67 L80.365,30.67 L80.365,15.498 L84.303,15.498 C87.034,15.498 87.997,17.222 87.997,19.571" fill="#FFFFFE"/>
    <path d="M96.81,23.979 L94.348,23.979 L94.348,30.67 L91.797,30.67 L91.797,15.498 L94.348,15.498 L94.348,21.92 L96.81,21.92 L96.81,15.498 L99.384,15.498 L99.384,30.67 L96.81,30.67 z" fill="#FFFFFE"/>
    <path d="M100.835,15.498 L106.922,15.498 L106.922,17.58 L103.387,17.58 L103.387,21.921 L105.915,21.921 L105.915,23.979 L103.387,23.979 L103.387,28.59 L106.922,28.59 L106.922,30.67 L100.835,30.67 z" fill="#FFFFFE"/>
    <path d="M111.082,25.859 L113.119,25.859 L112.112,19.772 L112.09,19.772 z M107.883,30.67 L110.747,15.498 L113.656,15.498 L116.543,30.67 L113.925,30.67 L113.455,27.895 L110.747,27.895 L110.299,30.67 z" fill="#FFFFFE"/>
    <path d="M117.591,15.498 L120.143,15.498 L120.143,28.59 L123.186,28.59 L123.186,30.67 L117.591,30.67 z" fill="#FFFFFE"/>
    <path d="M122.603,15.498 L129.384,15.498 L129.384,17.58 L127.28,17.58 L127.28,30.67 L124.707,30.67 L124.707,17.58 L122.603,17.58 z" fill="#FFFFFE"/>
    <path d="M135.579,23.979 L133.118,23.979 L133.118,30.67 L130.566,30.67 L130.566,15.498 L133.118,15.498 L133.118,21.92 L135.579,21.92 L135.579,15.498 L138.153,15.498 L138.153,30.67 L135.579,30.67 z" fill="#FFFFFE"/>
    <path d="M55.891,47.111 L57.927,47.111 L56.92,41.024 L56.898,41.024 z M52.691,51.923 L55.556,36.75 L58.464,36.75 L61.351,51.923 L58.733,51.923 L58.263,49.148 L55.556,49.148 L55.108,51.923 z" fill="#FFFFFE"/>
    <path d="M64.549,42.39 L64.549,51.923 L62.401,51.923 L62.401,36.75 L64.907,36.75 L67.659,45.455 L67.659,36.75 L69.785,36.75 L69.785,51.923 L67.548,51.923 z" fill="#FFFFFE"/>
    <path d="M74.862,49.841 C75.914,49.841 76.317,49.215 76.317,48.298 L76.317,40.354 C76.317,39.458 75.914,38.832 74.862,38.832 L73.788,38.832 L73.788,49.841 z M78.868,40.823 L78.868,47.849 C78.868,50.177 77.906,51.922 75.175,51.922 L71.237,51.922 L71.237,36.75 L75.175,36.75 C77.906,36.75 78.868,38.474 78.868,40.823" fill="#FFFFFE"/>
    <path d="M88.175,42.546 L86.743,51.923 L84.348,51.923 L82.312,36.751 L84.773,36.751 L85.959,46.373 L85.982,46.373 L87.257,36.751 L89.339,36.751 L90.749,46.373 L90.771,46.373 L91.934,36.751 L94.082,36.751 L92.114,51.923 L89.697,51.923 L88.196,42.546 z" fill="#FFFFFE"/>
    <path d="M95.175,36.75 L101.262,36.75 L101.262,38.832 L97.726,38.832 L97.726,43.172 L100.255,43.172 L100.255,45.231 L97.726,45.231 L97.726,49.842 L101.262,49.842 L101.262,51.923 L95.175,51.923 z" fill="#FFFFFE"/>
    <path d="M102.625,36.75 L105.176,36.75 L105.176,49.842 L108.22,49.842 L108.22,51.923 L102.625,51.923 z" fill="#FFFFFE"/>
    <path d="M109.381,36.75 L111.932,36.75 L111.932,49.842 L114.976,49.842 L114.976,51.923 L109.381,51.923 z" fill="#FFFFFE"/>
    <path d="M114.637,45.904 L118.218,45.904 L118.218,43.845 L114.637,43.845 z" fill="#FFFFFE"/>
    <path d="M122.066,45.098 L122.066,49.841 L123.185,49.841 C124.036,49.841 124.438,49.416 124.438,48.61 L124.438,46.328 C124.438,45.523 124.057,45.098 123.163,45.098 z M122.066,43.151 L122.962,43.151 C123.789,43.151 124.17,42.725 124.17,41.919 L124.17,40.063 C124.17,39.235 123.789,38.833 122.939,38.833 L122.066,38.833 z M119.515,36.751 L123.207,36.751 C125.758,36.751 126.609,37.937 126.609,40.085 L126.609,41.629 C126.609,42.904 126.138,43.71 125.087,44.045 C126.363,44.336 126.989,45.188 126.989,46.574 L126.989,48.589 C126.989,50.737 126.027,51.922 123.477,51.922 L119.515,51.922 z" fill="#FFFFFE"/>
    <path d="M128.262,36.75 L134.349,36.75 L134.349,38.832 L130.813,38.832 L130.813,43.172 L133.342,43.172 L133.342,45.231 L130.813,45.231 L130.813,49.842 L134.349,49.842 L134.349,51.923 L128.262,51.923 z" fill="#FFFFFE"/>
    <path d="M135.712,51.922 L138.263,51.922 L138.263,36.75 L135.712,36.75 z" fill="#FFFFFE"/>
    <path d="M141.887,42.39 L141.887,51.923 L139.739,51.923 L139.739,36.75 L142.245,36.75 L144.997,45.455 L144.997,36.75 L147.124,36.75 L147.124,51.923 L144.886,51.923 z" fill="#FFFFFE"/>
    <path d="M152.424,43.822 L156.049,43.822 L156.049,51.923 L154.214,51.923 L154.214,50.267 C153.878,51.408 153.162,52.101 151.775,52.101 C149.582,52.101 148.575,50.356 148.575,48.007 L148.575,40.667 C148.575,38.295 149.717,36.571 152.401,36.571 C155.222,36.571 156.049,38.138 156.049,40.376 L156.049,41.719 L153.722,41.719 L153.722,40.174 C153.722,39.235 153.364,38.697 152.445,38.697 C151.528,38.697 151.126,39.347 151.126,40.264 L151.126,48.409 C151.126,49.327 151.507,49.975 152.38,49.975 C153.207,49.975 153.633,49.506 153.633,48.521 L153.633,45.836 L152.424,45.836 z" fill="#FFFFFE"/>
  </g>
</svg>
