<?xml version="1.0" encoding="UTF-8"?>
<!DOCTYPE svg PUBLIC "-//W3C//DTD SVG 1.1//EN" "http://www.w3.org/Graphics/SVG/1.1/DTD/svg11.dtd">
<svg version="1.1" xmlns="http://www.w3.org/2000/svg" xmlns:xlink="http://www.w3.org/1999/xlink" x="0" y="0" width="60" height="60" viewBox="0, 0, 180, 180">
  <g id="Layer_1">
    <path d="M0,180 L180,180 L180,0 L0,0 z" fill="#D62331"/>
    <path d="M138.623,85.876 C138.623,83.122 140.858,80.892 143.61,80.892 C146.358,80.892 148.586,83.122 148.586,85.876 C148.586,88.628 146.358,90.859 143.61,90.859 C140.858,90.859 138.623,88.628 138.623,85.876" fill="#FFFFFE"/>
    <path d="M149.426,92.781 C152.807,93.087 155.457,95.93 155.457,99.399 L155.457,101.055 L155.457,101.779 L155.457,113.212 C155.457,114.275 154.592,115.143 153.529,115.143 C152.457,115.143 151.595,114.275 151.595,113.212 L151.595,101.348 C151.595,100.904 151.466,100.302 150.652,100.302 C150.089,100.302 149.973,100.897 149.952,101.277 L149.952,136.836 C149.952,138.364 148.714,139.61 147.178,139.61 C145.641,139.61 144.398,138.364 144.398,136.836 L144.398,116.345 C144.39,116.119 144.314,115.53 143.609,115.53 L143.606,115.53 C142.899,115.53 142.812,116.119 142.805,116.345 L142.805,136.836 C142.805,138.364 141.568,139.61 140.033,139.61 C138.493,139.61 137.256,138.364 137.256,136.836 L137.256,101.277 C137.237,100.897 137.116,100.302 136.558,100.302 C135.739,100.302 135.616,100.904 135.616,101.348 L135.616,113.212 C135.616,114.275 134.75,115.143 133.682,115.143 C132.614,115.143 131.753,114.275 131.753,113.212 L131.753,101.779 L131.753,101.055 L131.753,99.399 C131.753,95.93 134.406,93.087 137.792,92.781 C137.902,92.767 138.023,92.751 138.156,92.751 L143.609,92.751 L149.047,92.751 C149.191,92.751 149.307,92.767 149.426,92.781" fill="#FFFFFE"/>
    <path d="M108.99,88.493 C108.99,85.887 106.883,83.77 104.276,83.77 C101.667,83.77 99.554,85.887 99.554,88.493 C99.554,91.101 101.667,93.213 104.276,93.213 C106.883,93.213 108.99,91.101 108.99,88.493" fill="#FFFFFE"/>
    <path d="M94.767,99.182 L90.844,111.952 C90.844,111.952 90.146,114.292 92.131,114.876 C94.107,115.462 94.707,113.176 94.707,113.176 L97.87,102.519 C97.87,102.519 98.042,101.7 98.658,101.877 C99.276,102.053 99.043,102.93 99.043,102.93 L93.538,122.902 L98.658,122.902 L98.658,137.206 C98.658,138.56 99.76,139.661 101.118,139.661 C102.476,139.661 103.573,138.56 103.573,137.206 L103.573,122.902 L104.276,122.902 L104.971,122.902 L104.971,137.206 C104.971,138.56 106.066,139.661 107.428,139.661 C108.789,139.661 109.889,138.56 109.889,137.206 L109.889,122.902 L115.007,122.902 L109.506,102.93 C109.506,102.93 109.274,102.053 109.889,101.877 C110.507,101.7 110.678,102.519 110.678,102.519 L113.841,113.176 C113.841,113.176 114.442,115.462 116.415,114.876 C118.405,114.292 117.703,111.952 117.703,111.952 L113.78,99.182 C113.78,99.182 112.379,95.491 109.274,95.491 L104.276,95.491 L99.276,95.491 C96.172,95.491 94.767,99.182 94.767,99.182" fill="#FFFFFE"/>
    <path d="M80.728,88.493 C80.728,85.887 78.618,83.77 76.012,83.77 C73.403,83.77 71.292,85.887 71.292,88.493 C71.292,91.101 73.403,93.213 76.012,93.213 C78.618,93.213 80.728,91.101 80.728,88.493" fill="#FFFFFE"/>
    <path d="M66.503,99.182 L62.582,111.952 C62.582,111.952 61.882,114.292 63.868,114.876 C65.843,115.462 66.442,113.176 66.442,113.176 L69.605,102.519 C69.605,102.519 69.777,101.7 70.394,101.877 C71.011,102.053 70.778,102.93 70.778,102.93 L65.275,122.902 L70.394,122.902 L70.394,137.206 C70.394,138.56 71.499,139.661 72.854,139.661 C74.214,139.661 75.311,138.56 75.311,137.206 L75.311,122.902 L76.015,122.902 L76.708,122.902 L76.708,137.206 C76.708,138.56 77.802,139.661 79.166,139.661 C80.528,139.661 81.625,138.56 81.625,137.206 L81.625,122.902 L86.745,122.902 L81.245,102.93 C81.245,102.93 81.012,102.053 81.625,101.877 C82.241,101.7 82.414,102.519 82.414,102.519 L85.574,113.176 C85.574,113.176 86.177,115.462 88.15,114.876 C90.139,114.292 89.437,111.952 89.437,111.952 L85.515,99.182 C85.515,99.182 84.117,95.491 81.012,95.491 L76.015,95.491 L71.011,95.491 C67.91,95.491 66.503,99.182 66.503,99.182" fill="#FFFFFE"/>
    <path d="M124.838,114.902 C127.011,114.902 128.764,113.144 128.764,110.971 C128.764,108.8 127.011,107.047 124.838,107.047 C122.665,107.047 120.91,108.8 120.91,110.971 C120.91,113.144 122.665,114.902 124.838,114.902" fill="#FFFFFE"/>
    <path d="M115.421,127.104 C115.228,127.564 115.072,128.537 115.993,128.962 C117.074,129.458 117.677,128.414 117.677,128.414 L119.812,121.605 C119.812,121.605 120.183,121.148 120.183,121.62 L120.183,137.649 L120.192,137.649 C120.192,138.765 121.09,139.665 122.207,139.665 C123.322,139.665 124.222,138.765 124.222,137.649 L124.222,131.324 C124.222,131.324 124.105,130.429 124.826,130.429 C125.547,130.429 125.435,131.324 125.435,131.324 L125.435,137.649 C125.435,138.765 126.339,139.665 127.454,139.665 C128.566,139.665 129.474,138.765 129.474,137.649 L129.474,121.62 C129.474,121.148 129.723,121.485 129.723,121.485 L131.396,126.148 C131.396,126.148 132.123,128.232 132.347,128.323 C133.102,128.641 133.975,128.279 134.294,127.518 C134.501,127.021 134.422,126.488 134.133,126.085 L134.148,126.07 C134.1,125.92 131.646,119.904 131.359,119.059 C130.472,116.473 128.86,116.495 127.307,116.453 C125.754,116.416 124.826,116.453 124.826,116.453 C124.826,116.453 123.834,116.413 121.784,116.473 C119.738,116.537 119.091,117.586 116.833,123.395 C116.511,124.232 115.421,126.938 115.407,127.101 z" fill="#FFFFFE"/>
    <path d="M38.586,85.876 C38.586,83.122 36.349,80.892 33.598,80.892 C30.849,80.892 28.621,83.122 28.621,85.876 C28.621,88.628 30.849,90.859 33.598,90.859 C36.349,90.859 38.586,88.628 38.586,85.876" fill="#FFFFFE"/>
    <path d="M27.78,92.781 C24.401,93.087 21.747,95.93 21.747,99.399 L21.747,101.055 L21.747,101.779 L21.747,113.212 C21.747,114.275 22.613,115.143 23.681,115.143 C24.749,115.143 25.613,114.275 25.613,113.212 L25.613,101.348 C25.613,100.904 25.742,100.302 26.556,100.302 C27.118,100.302 27.234,100.897 27.258,101.277 L27.258,136.836 C27.258,138.364 28.494,139.61 30.031,139.61 C31.566,139.61 32.806,138.364 32.806,136.836 L32.806,116.345 C32.818,116.119 32.893,115.53 33.598,115.53 L33.6,115.53 C34.308,115.53 34.395,116.119 34.401,116.345 L34.401,136.836 C34.401,138.364 35.64,139.61 37.174,139.61 C38.712,139.61 39.95,138.364 39.95,136.836 L39.95,101.277 C39.967,100.897 40.093,100.302 40.65,100.302 C41.469,100.302 41.591,100.904 41.591,101.348 L41.591,113.212 C41.591,114.275 42.457,115.143 43.525,115.143 C44.592,115.143 45.454,114.275 45.454,113.212 L45.454,101.779 L45.454,101.055 L45.454,99.399 C45.454,95.93 42.803,93.087 39.417,92.781 C39.305,92.767 39.186,92.751 39.052,92.751 L33.598,92.751 L28.16,92.751 C28.017,92.751 27.898,92.767 27.78,92.781" fill="#FFFFFE"/>
    <path d="M23.435,115.22 L19.01,138.674" fill-opacity="0" stroke="#FFFFFE" stroke-width="1.96" stroke-linecap="round"/>
    <path d="M47.82,112.845 C47.563,112.442 47.12,112.173 46.608,112.173 C45.82,112.173 45.177,112.815 45.177,113.601 C45.177,113.829 45.317,114.229 45.317,114.229 L49.276,121.394 C49.276,121.394 49.519,121.889 49.519,122.34 L49.519,137.726 L49.527,137.726 C49.527,138.8 50.393,139.662 51.464,139.662 C52.531,139.662 53.393,138.8 53.393,137.726 L53.393,131.654 C53.393,131.654 53.284,130.795 53.978,130.795 C54.669,130.795 54.561,131.654 54.561,131.654 L54.561,137.726 C54.561,138.8 55.43,139.662 56.499,139.662 C57.568,139.662 58.438,138.8 58.438,137.726 L58.438,122.34 C58.438,121.889 58.677,121.394 58.677,121.394 L62.338,114.779 C62.338,114.779 62.786,113.829 62.786,113.601 C62.786,112.815 62.146,112.173 61.353,112.173 C60.836,112.173 60.394,112.442 60.142,112.845 L60.125,112.836 C60.011,112.935 58.178,116.199 57.573,116.804 C56.933,117.449 56.361,117.378 56.361,117.378 L53.978,117.378 L51.601,117.378 C51.601,117.378 51.024,117.449 50.388,116.804 C49.775,116.199 47.949,112.935 47.832,112.836 z" fill="#FFFFFE"/>
    <path d="M53.978,114.902 C56.151,114.902 57.904,113.144 57.904,110.971 C57.904,108.8 56.151,107.047 53.978,107.047 C51.806,107.047 50.052,108.8 50.052,110.971 C50.052,113.144 51.806,114.902 53.978,114.902" fill="#FFFFFE"/>
    <path d="M53.984,120.415 L58.424,123.653 L60.533,131.42 L53.984,131.42 L47.431,131.42 L49.545,123.653 z" fill="#FFFFFE"/>
    <path d="M25.131,23.673 L25.186,23.673 L25.186,51.455 L31.286,51.455 L31.286,15.162 L26.414,15.162 L20.795,21.746 L20.795,28.115 L20.849,28.115 z" fill="#FFFFFE"/>
    <path d="M53.643,21.142 L53.643,30.674 L51.495,30.674 L51.495,15.503 L54.001,15.503 L56.753,24.207 L56.753,15.503 L58.879,15.503 L58.879,30.674 L56.642,30.674 z" fill="#FFFFFE"/>
    <path d="M65.5,27.161 L65.5,19.017 C65.5,18.099 65.097,17.45 64.18,17.45 C63.285,17.45 62.882,18.099 62.882,19.017 L62.882,27.161 C62.882,28.078 63.285,28.727 64.18,28.727 C65.097,28.727 65.5,28.078 65.5,27.161 M60.331,26.758 L60.331,19.419 C60.331,17.048 61.495,15.324 64.18,15.324 C66.888,15.324 68.052,17.048 68.052,19.419 L68.052,26.758 C68.052,29.108 66.888,30.853 64.18,30.853 C61.495,30.853 60.331,29.108 60.331,26.758" fill="#FFFFFE"/>
    <path d="M54.046,38.835 L54.046,44.809 L54.986,44.809 C55.859,44.809 56.238,44.384 56.238,43.556 L56.238,40.066 C56.238,39.238 55.859,38.835 54.986,38.835 z M51.495,36.754 L55.277,36.754 C57.85,36.754 58.789,38.03 58.789,40.155 L58.789,43.355 C58.789,45.481 57.85,46.778 55.277,46.778 L54.046,46.778 L54.046,51.925 L51.495,51.925 z" fill="#FFFFFE"/>
    <path d="M65.277,48.412 L65.277,40.268 C65.277,39.35 64.874,38.701 63.957,38.701 C63.061,38.701 62.659,39.35 62.659,40.268 L62.659,48.412 C62.659,49.329 63.061,49.978 63.957,49.978 C64.874,49.978 65.277,49.329 65.277,48.412 M60.108,48.009 L60.108,40.67 C60.108,38.299 61.271,36.575 63.957,36.575 C66.665,36.575 67.828,38.299 67.828,40.67 L67.828,48.009 C67.828,50.359 66.665,52.104 63.957,52.104 C61.271,52.104 60.108,50.359 60.108,48.009" fill="#FFFFFE"/>
    <path d="M76.999,36.754 L74.113,51.925 L71.338,51.925 L68.451,36.754 L71.047,36.754 L72.793,47.338 L72.815,47.338 L74.606,36.754 z" fill="#FFFFFE"/>
    <path d="M78.049,36.754 L84.135,36.754 L84.135,38.836 L80.6,38.836 L80.6,43.175 L83.129,43.175 L83.129,45.235 L80.6,45.235 L80.6,49.845 L84.135,49.845 L84.135,51.925 L78.049,51.925 z" fill="#FFFFFE"/>
    <path d="M88.05,38.835 L88.05,43.556 L88.9,43.556 C89.773,43.556 90.153,43.109 90.153,42.304 L90.153,40.066 C90.153,39.238 89.773,38.835 88.9,38.835 z M88.05,44.966 L88.05,51.925 L85.499,51.925 L85.499,36.754 L89.213,36.754 C91.786,36.754 92.726,38.03 92.726,40.155 L92.726,42.102 C92.726,43.735 92.144,44.698 90.69,45.033 L93.129,51.925 L90.444,51.925 z" fill="#FFFFFE"/>
    <path d="M93.597,36.754 L100.378,36.754 L100.378,38.836 L98.273,38.836 L98.273,51.925 L95.7,51.925 L95.7,38.836 L93.597,38.836 z" fill="#FFFFFE"/>
    <path d="M106.529,46.153 L106.529,51.925 L103.977,51.925 L103.977,46.153 L101.136,36.754 L103.798,36.754 L105.342,42.505 L105.365,42.505 L106.909,36.754 L109.348,36.754 z" fill="#FFFFFE"/>
  </g>
</svg>
