<?xml version="1.0" encoding="UTF-8"?>
<!DOCTYPE svg PUBLIC "-//W3C//DTD SVG 1.1//EN" "http://www.w3.org/Graphics/SVG/1.1/DTD/svg11.dtd">
<svg version="1.1" xmlns="http://www.w3.org/2000/svg" xmlns:xlink="http://www.w3.org/1999/xlink" x="0" y="0" width="60" height="60" viewBox="0, 0, 180, 180">
  <g id="Layer_1">
    <path d="M0,180 L180,180 L180,0 L0,0 z" fill="#DC3E30"/>
    <path d="M89.703,130.616 C77.811,130.616 68.138,120.941 68.138,109.05 C68.138,97.158 77.811,87.483 89.703,87.483 C101.596,87.483 111.271,97.158 111.271,109.05 C111.271,120.941 101.596,130.616 89.703,130.616 M131.123,68.108 L108.751,68.108 C108.599,68.108 108.468,68.236 108.468,68.394 L108.468,75.828 C108.468,75.987 108.599,76.114 108.751,76.114 L117.66,76.114 L107.768,86.007 C102.786,82.092 96.518,79.75 89.703,79.75 C73.548,79.75 60.401,92.894 60.401,109.05 C60.401,123.925 71.547,136.234 85.921,138.096 L85.921,146.662 L77.097,146.662 C76.934,146.662 76.809,146.789 76.809,146.946 L76.809,154.913 C76.809,155.072 76.934,155.198 77.097,155.198 L85.921,155.198 L85.921,163.628 C85.921,163.785 86.048,163.911 86.206,163.911 L94.17,163.911 C94.328,163.911 94.458,163.785 94.458,163.628 L94.458,155.198 L103.281,155.198 C103.438,155.198 103.564,155.072 103.564,154.913 L103.564,146.946 C103.564,146.789 103.438,146.662 103.281,146.662 L94.458,146.662 L94.458,137.958 C108.361,135.677 119.003,123.587 119.003,109.05 C119.003,102.779 117.018,96.967 113.652,92.197 L123.402,82.446 L123.402,90.765 C123.402,90.923 123.533,91.05 123.691,91.05 L131.123,91.05 C131.282,91.05 131.414,90.923 131.414,90.765 L131.414,68.394 C131.414,68.236 131.282,68.108 131.123,68.108" fill="#FFFFFE"/>
    <path d="M102.877,100.197 L76.717,100.197 C76.56,100.197 76.433,100.314 76.433,100.453 L76.433,106.785 C76.433,106.934 76.56,107.045 76.717,107.045 L102.877,107.045 C103.039,107.045 103.167,106.934 103.167,106.785 L103.167,100.453 C103.167,100.314 103.039,100.197 102.877,100.197" fill="#FFFFFE"/>
    <path d="M102.877,111.505 L76.717,111.505 C76.56,111.505 76.433,111.625 76.433,111.769 L76.433,118.102 C76.433,118.243 76.56,118.357 76.717,118.357 L102.877,118.357 C103.039,118.357 103.167,118.243 103.167,118.102 L103.167,111.769 C103.167,111.625 103.039,111.505 102.877,111.505" fill="#FFFFFE"/>
    <path d="M29.894,26.575 C27.486,26.575 25.719,27.431 24.755,29.091 L24.7,29.091 L24.7,20.045 L35.194,20.045 L35.194,15.067 L19.136,15.067 L19.136,35.515 L24.7,35.515 L24.7,34.71 C24.7,32.569 25.666,31.391 27.377,31.391 C29.251,31.391 30.003,32.678 30.003,34.659 L30.003,43.437 C30.003,45.365 29.306,46.702 27.431,46.702 C25.343,46.702 24.595,45.31 24.595,43.171 L24.595,38.62 L19.025,38.62 L19.025,42.742 C19.025,48.254 21.22,51.788 27.431,51.788 C33.588,51.788 36.102,48.523 36.102,43.491 L36.102,34.605 C36.102,28.877 33.16,26.575 29.894,26.575" fill="#FFFFFE"/>
    <path d="M57.294,22.817 L60.919,22.817 L60.919,30.917 L59.084,30.917 L59.084,29.261 C58.748,30.402 58.032,31.095 56.644,31.095 C54.452,31.095 53.444,29.35 53.444,27.001 L53.444,19.661 C53.444,17.289 54.585,15.566 57.271,15.566 C60.089,15.566 60.919,17.133 60.919,19.37 L60.919,20.713 L58.592,20.713 L58.592,19.169 C58.592,18.229 58.234,17.692 57.315,17.692 C56.398,17.692 55.995,18.342 55.995,19.259 L55.995,27.403 C55.995,28.321 56.375,28.969 57.247,28.969 C58.077,28.969 58.501,28.5 58.501,27.515 L58.501,24.83 L57.294,24.83 z" fill="#FFFFFE"/>
    <path d="M62.37,15.745 L68.456,15.745 L68.456,17.827 L64.92,17.827 L64.92,22.167 L67.448,22.167 L67.448,24.226 L64.92,24.226 L64.92,28.836 L68.456,28.836 L68.456,30.917 L62.37,30.917 z" fill="#FFFFFE"/>
    <path d="M71.968,21.385 L71.968,30.916 L69.821,30.916 L69.821,15.745 L72.326,15.745 L75.078,24.449 L75.078,15.745 L77.204,15.745 L77.204,30.916 L74.967,30.916 z" fill="#FFFFFE"/>
    <path d="M82.28,28.836 C83.332,28.836 83.734,28.209 83.734,27.292 L83.734,19.348 C83.734,18.454 83.332,17.826 82.28,17.826 L81.206,17.826 L81.206,28.836 z M86.287,19.818 L86.287,26.844 C86.287,29.171 85.323,30.916 82.594,30.916 L78.655,30.916 L78.655,15.745 L82.594,15.745 C85.323,15.745 86.287,17.469 86.287,19.818" fill="#FFFFFE"/>
    <path d="M87.738,15.745 L93.824,15.745 L93.824,17.827 L90.288,17.827 L90.288,22.167 L92.818,22.167 L92.818,24.226 L90.288,24.226 L90.288,28.836 L93.824,28.836 L93.824,30.917 L87.738,30.917 z" fill="#FFFFFE"/>
    <path d="M97.739,17.827 L97.739,22.547 L98.59,22.547 C99.462,22.547 99.842,22.101 99.842,21.295 L99.842,19.057 C99.842,18.229 99.462,17.827 98.59,17.827 z M97.739,23.957 L97.739,30.916 L95.188,30.916 L95.188,15.745 L98.903,15.745 C101.476,15.745 102.415,17.021 102.415,19.146 L102.415,21.094 C102.415,22.727 101.834,23.689 100.38,24.024 L102.819,30.916 L100.134,30.916 z" fill="#FFFFFE"/>
    <path d="M53.444,36.996 L59.531,36.996 L59.531,39.078 L55.994,39.078 L55.994,43.419 L58.523,43.419 L58.523,45.477 L55.994,45.477 L55.994,50.087 L59.531,50.087 L59.531,52.168 L53.444,52.168 z" fill="#FFFFFE"/>
    <path d="M65.841,48.789 L65.841,40.51 C65.841,39.593 65.438,38.943 64.521,38.943 C63.626,38.943 63.222,39.593 63.222,40.51 L63.222,48.789 C63.222,49.684 63.626,50.355 64.521,50.355 C65.438,50.355 65.841,49.684 65.841,48.789 M63.58,53.198 L63.58,52.167 C61.544,51.809 60.671,50.31 60.671,48.251 L60.671,40.912 C60.671,38.541 61.836,36.817 64.521,36.817 C67.228,36.817 68.391,38.541 68.391,40.912 L68.391,48.251 C68.391,49.908 67.81,51.206 66.512,51.832 L68.391,52.19 L68.391,54.092 z" fill="#FFFFFE"/>
    <path d="M77.252,36.996 L77.252,48.476 C77.252,50.825 76.244,52.346 73.647,52.346 C70.962,52.346 69.844,50.825 69.844,48.476 L69.844,36.996 L72.395,36.996 L72.395,48.722 C72.395,49.617 72.753,50.22 73.647,50.22 C74.543,50.22 74.901,49.617 74.901,48.722 L74.901,36.996 z" fill="#FFFFFE"/>
    <path d="M81.163,47.356 L83.198,47.356 L82.191,41.27 L82.169,41.27 z M77.963,52.168 L80.828,36.996 L83.736,36.996 L86.622,52.168 L84.005,52.168 L83.535,49.393 L80.828,49.393 L80.379,52.168 z" fill="#FFFFFE"/>
    <path d="M87.672,36.996 L90.223,36.996 L90.223,50.087 L93.266,50.087 L93.266,52.168 L87.672,52.168 z" fill="#FFFFFE"/>
    <path d="M94.429,52.167 L96.979,52.167 L96.979,36.996 L94.429,36.996 z" fill="#FFFFFE"/>
    <path d="M98.166,36.996 L104.945,36.996 L104.945,39.078 L102.843,39.078 L102.843,52.168 L100.269,52.168 L100.269,39.078 L98.166,39.078 z" fill="#FFFFFE"/>
    <path d="M111.098,46.395 L111.098,52.168 L108.548,52.168 L108.548,46.395 L105.706,36.996 L108.369,36.996 L109.912,42.747 L109.934,42.747 L111.478,36.996 L113.918,36.996 z" fill="#FFFFFE"/>
  </g>
</svg>
