<?xml version="1.0" encoding="UTF-8"?>
<!DOCTYPE svg PUBLIC "-//W3C//DTD SVG 1.1//EN" "http://www.w3.org/Graphics/SVG/1.1/DTD/svg11.dtd">
<svg version="1.1" xmlns="http://www.w3.org/2000/svg" xmlns:xlink="http://www.w3.org/1999/xlink" x="0" y="0" width="523.078" height="144.936" viewBox="0, 0, 523.078, 144.936">
  <g id="Layer_1">
    <path d="M72.489,31.875 L72.489,31.875 C43.826,31.875 20.415,55.312 20.415,84.185 C20.415,113.061 43.826,136.31 72.489,136.31 C101.325,136.31 124.743,113.061 124.743,84.185 C124.743,55.312 101.325,31.875 72.489,31.875 z M72.289,-0 L72.289,-0 C112.185,-0 144.591,32.437 144.591,72.373 C144.591,112.499 112.185,144.936 72.289,144.936 C32.401,144.936 -0,112.499 -0,72.373 C-0,32.437 32.401,-0 72.289,-0" fill="#FFFFFF"/>
    <path d="M90.09,80.061 L90.09,80.061 L61.991,108.184 L53.375,99.749 L48.694,104.435 L61.804,117.56 L94.759,84.75 L90.09,80.061 z M72.489,63.937 L72.489,63.937 C90.465,63.937 104.87,78.374 104.87,96.372 C104.87,114.185 90.465,128.622 72.489,128.622 C54.688,128.622 40.265,114.185 40.265,96.372 C40.265,78.374 54.688,63.937 72.489,63.937" fill="#FFFFFF"/>
    <path d="M179.22,77.062 L182.04,77.062 C185.411,77.062 186.909,76.312 186.909,74.625 L186.909,53.062 L204.335,53.062 C205.084,53.062 205.833,52.875 206.208,52.125 C206.582,51.563 206.757,50.438 206.757,48.936 L206.757,46.499 C206.757,44.999 206.582,44.062 206.208,43.312 C205.833,42.75 205.084,42.375 204.335,42.375 L186.909,42.375 L186.909,30.563 L204.885,30.563 C205.833,30.563 206.383,30.188 206.757,29.438 C207.132,28.876 207.331,27.751 207.331,26.436 L207.331,23.999 C207.331,22.5 207.132,21.375 206.757,20.813 C206.383,20.063 205.833,19.875 204.885,19.875 L177.721,19.875 C176.423,19.875 175.674,20.063 175.1,20.625 C174.725,21 174.351,21.937 174.351,23.062 L174.351,74.625 C174.351,76.312 176.049,77.062 179.22,77.062 z M227.354,77.624 L227.354,77.624 C229.801,77.624 232.222,77.062 234.295,75.937 C236.542,74.625 238.214,73.125 239.537,71.436 L239.712,72.56 C239.912,74.062 240.286,75.187 240.661,75.937 C241.035,76.687 241.784,77.062 242.708,77.062 C243.657,77.062 244.781,77.062 246.278,76.875 C247.776,76.687 249.099,76.312 250.223,75.937 C251.346,75.562 251.896,75 251.896,74.437 C251.896,74.062 251.721,73.5 251.721,72.748 C251.346,71.436 251.346,70.123 251.147,68.624 C250.972,67.124 250.972,65.062 250.972,62.625 L250.972,36.749 C250.972,35.812 250.597,35.249 249.649,34.687 C248.9,34.312 247.601,34.124 245.904,34.124 L243.657,34.124 C242.159,34.124 240.836,34.312 240.087,34.687 C239.163,35.249 238.788,35.812 238.788,36.749 L238.788,63 C238.214,64.125 237.29,65.25 236.167,66.187 C235.044,67.124 233.721,67.687 232.222,67.687 C230.55,67.687 229.226,67.312 228.477,66.374 C227.728,65.437 227.354,64.312 227.354,62.625 L227.354,36.749 C227.354,35.812 226.979,35.249 226.231,34.687 C225.482,34.312 224.183,34.124 222.486,34.124 L220.239,34.124 C218.566,34.124 217.243,34.312 216.494,34.687 C215.745,35.249 215.37,35.812 215.37,36.749 L215.37,64.312 C215.37,68.999 216.319,72.185 218.191,74.437 C220.239,76.5 223.235,77.624 227.354,77.624 z M274.939,77.624 L274.939,77.624 C280.182,77.624 282.804,76.312 282.804,73.687 C282.804,73.31 282.604,72.56 282.43,71.623 C282.229,70.686 281.855,69.749 281.48,68.999 C281.106,68.061 280.731,67.687 280.182,67.687 C279.982,67.687 279.807,67.874 279.233,67.874 C278.684,68.061 278.31,68.061 277.935,68.061 C276.987,68.061 276.238,67.874 275.863,67.312 C275.314,66.749 275.114,65.812 275.114,64.5 L275.114,43.875 L279.058,43.875 C279.982,43.875 280.556,43.5 280.931,42.937 C281.305,42.188 281.48,41.25 281.48,39.751 L281.48,38.251 C281.48,36.936 281.305,35.812 280.931,35.249 C280.556,34.499 279.982,34.312 279.058,34.312 L275.114,34.312 L275.114,26.436 C275.114,25.686 274.74,24.937 274.19,24.562 C273.441,24.187 272.493,23.999 270.995,23.999 L268.374,23.999 C265.752,23.999 264.254,24.749 264.079,26.436 L262.956,34.312 L261.633,34.312 C260.884,34.312 260.334,34.499 259.76,35.249 C259.386,35.812 259.211,36.936 259.211,38.251 L259.211,39.751 C259.211,41.25 259.386,42.188 259.76,42.937 C260.334,43.5 260.884,43.875 261.633,43.875 L262.956,43.875 L262.956,64.312 C262.956,68.811 264.079,72.185 266.127,74.437 C267.999,76.5 270.995,77.624 274.939,77.624 z M302.277,77.624 L302.277,77.624 C304.699,77.624 306.946,77.062 309.218,75.937 C311.465,74.625 313.138,73.125 314.461,71.436 L314.636,72.56 C314.836,74.062 315.21,75.187 315.585,75.937 C315.959,76.687 316.708,77.062 317.632,77.062 C318.58,77.062 319.704,77.062 321.202,76.875 C322.7,76.687 323.998,76.312 325.121,75.937 C326.245,75.562 326.819,75 326.819,74.437 C326.819,74.062 326.619,73.5 326.444,72.748 C326.245,71.436 326.07,70.123 326.07,68.624 C325.87,67.124 325.87,65.062 325.87,62.625 L325.87,36.749 C325.87,35.812 325.321,35.249 324.572,34.687 C323.823,34.312 322.5,34.124 320.827,34.124 L318.58,34.124 C316.883,34.124 315.759,34.312 315.011,34.687 C314.087,35.249 313.712,35.812 313.712,36.749 L313.712,63 C313.138,64.125 312.214,65.25 311.091,66.187 C309.967,67.124 308.643,67.687 307.145,67.687 C305.448,67.687 304.15,67.312 303.401,66.374 C302.652,65.437 302.277,64.312 302.277,62.625 L302.277,36.749 C302.277,35.812 301.903,35.249 301.154,34.687 C300.205,34.312 299.082,34.124 297.409,34.124 L295.162,34.124 C293.465,34.124 292.166,34.312 291.417,34.687 C290.668,35.249 290.294,35.812 290.294,36.749 L290.294,64.312 C290.294,68.999 291.218,72.185 293.09,74.437 C295.162,76.5 298.158,77.624 302.277,77.624 z M341.599,77.062 L343.846,77.062 C347.042,77.062 348.715,76.312 348.715,74.625 L348.715,48.374 C349.289,47.249 350.213,46.312 351.336,45.562 C352.459,44.624 353.782,44.25 355.28,44.25 C355.83,44.25 356.579,44.437 357.527,44.624 C358.276,44.812 358.826,44.812 359.025,44.812 C359.575,44.812 359.949,44.437 360.324,43.5 C360.898,42.75 361.073,41.813 361.272,40.688 C361.447,39.563 361.647,38.626 361.647,38.061 C361.647,36.936 361.272,35.812 360.698,34.874 C359.949,34.124 358.826,33.562 356.953,33.562 C354.906,33.562 353.033,34.124 351.711,35.249 C350.412,36.374 349.089,37.876 348.165,39.751 L347.791,38.626 C347.591,37.311 347.217,36.186 346.842,35.624 C346.468,34.874 345.719,34.499 344.795,34.499 C343.846,34.499 342.722,34.499 341.224,34.687 C339.927,34.874 338.603,35.249 337.479,35.624 C336.181,35.999 335.607,36.561 335.607,37.124 C335.607,37.499 335.806,38.061 335.981,38.813 C336.356,41.438 336.73,44.624 336.73,48.561 L336.73,74.625 C336.73,76.312 338.228,77.062 341.599,77.062 z M386.937,77.624 L386.937,77.624 C388.61,77.624 390.682,77.436 392.93,77.062 C395.351,76.5 397.223,75.937 398.922,75 C400.794,74.062 401.543,72.935 401.543,71.811 C401.543,71.248 401.343,70.498 400.794,69.374 C400.419,68.436 399.845,67.499 399.096,66.749 C398.547,65.999 397.798,65.625 397.424,65.625 C397.049,65.625 396.474,65.812 395.551,66.187 C394.227,66.749 392.93,67.124 391.606,67.499 C390.307,67.874 388.985,68.061 387.487,68.061 C384.69,68.061 382.443,67.499 380.945,66.187 C379.248,64.875 378.324,62.625 378.125,59.436 L398.922,59.436 C399.296,59.436 399.845,59.249 400.419,58.499 C401.168,57.936 401.718,57.187 402.292,56.437 C402.841,55.687 403.041,55.125 403.041,54.562 C403.041,50.626 402.467,47.061 401.343,43.875 C400.045,40.875 398.173,38.251 395.551,36.374 C392.93,34.499 389.559,33.562 385.439,33.562 C379.248,33.562 374.38,35.437 370.835,39.001 C367.439,42.562 365.566,48.186 365.566,55.874 C365.566,62.813 367.439,68.061 370.835,71.811 C374.38,75.75 379.822,77.624 386.937,77.624 z M378.125,51.375 L378.125,51.375 C378.874,45.937 381.495,43.125 385.439,43.125 C387.487,43.125 388.81,43.875 389.933,45.374 C390.857,46.874 391.231,48.936 391.231,51.375 L378.125,51.375 z M411.654,59.623 L428.306,59.623 C429.255,59.623 429.805,59.249 430.179,58.686 C430.554,58.124 430.753,56.999 430.753,55.499 L430.753,54.937 C430.753,53.625 430.554,52.5 430.179,51.938 C429.805,51.188 429.255,50.813 428.306,50.813 L411.654,50.813 C410.905,50.813 410.156,51.188 409.781,51.938 C409.407,52.5 409.207,53.625 409.207,54.937 L409.207,55.499 C409.207,56.999 409.407,58.124 409.781,58.686 C410.156,59.249 410.905,59.623 411.654,59.623 z M443.486,77.062 L446.306,77.062 C449.477,77.062 451.176,76.312 451.176,74.625 L451.176,53.062 L468.402,53.062 C469.326,53.062 469.9,52.875 470.274,52.125 C470.824,51.563 471.023,50.438 471.023,48.936 L471.023,46.499 C471.023,44.999 470.824,44.062 470.274,43.312 C469.9,42.75 469.326,42.375 468.402,42.375 L451.176,42.375 L451.176,30.563 L469.151,30.563 C469.9,30.563 470.649,30.188 471.023,29.438 C471.398,28.876 471.573,27.751 471.573,26.436 L471.573,23.999 C471.573,22.5 471.398,21.375 471.023,20.813 C470.649,20.063 469.9,19.875 469.151,19.875 L441.813,19.875 C440.689,19.875 439.94,20.063 439.366,20.625 C438.817,21 438.617,21.937 438.617,23.062 L438.617,74.625 C438.617,76.312 440.115,77.062 443.486,77.062 z M484.505,27.189 L486.752,27.189 C488.425,27.189 489.549,27.001 490.497,26.626 C491.246,26.061 491.621,25.499 491.621,24.562 L491.621,18.001 C491.621,17.063 491.246,16.501 490.298,16.126 C489.549,15.564 488.425,15.376 486.752,15.376 L484.505,15.376 C482.807,15.376 481.51,15.564 480.761,16.126 C479.811,16.501 479.437,17.063 479.437,18.001 L479.437,24.562 C479.437,25.499 479.811,26.061 480.761,26.626 C481.51,27.001 482.633,27.189 484.505,27.189 z M484.505,77.062 L486.752,77.062 C489.923,77.062 491.621,76.312 491.621,74.625 L491.621,36.749 C491.621,35.812 491.246,35.249 490.298,34.687 C489.549,34.312 488.425,34.124 486.752,34.124 L484.505,34.124 C482.807,34.124 481.51,34.312 480.761,34.687 C479.811,35.249 479.437,35.812 479.437,36.749 L479.437,74.625 C479.437,76.312 481.135,77.062 484.505,77.062 z M515.214,77.624 L515.214,77.624 C520.456,77.624 523.078,76.312 523.078,73.687 C523.078,73.31 523.078,72.56 522.703,71.623 C522.528,70.686 522.329,69.749 521.954,68.999 C521.405,68.061 521.03,67.687 520.656,67.687 C520.456,67.687 520.082,67.874 519.532,67.874 C519.158,68.061 518.584,68.061 518.409,68.061 C517.286,68.061 516.537,67.874 516.162,67.312 C515.588,66.749 515.413,65.812 515.413,64.5 L515.413,43.875 L519.532,43.875 C520.282,43.875 521.03,43.5 521.405,42.937 C521.779,42.188 521.954,41.25 521.954,39.751 L521.954,38.251 C521.954,36.936 521.779,35.812 521.405,35.249 C521.03,34.499 520.282,34.312 519.532,34.312 L515.413,34.312 L515.413,26.436 C515.413,25.686 515.214,24.937 514.465,24.562 C513.915,24.187 512.792,23.999 511.469,23.999 L508.847,23.999 C506.051,23.999 504.727,24.749 504.353,26.436 L503.43,34.312 L502.106,34.312 C501.182,34.312 500.608,34.499 500.234,35.249 C499.859,35.812 499.684,36.936 499.684,38.251 L499.684,39.751 C499.684,41.25 499.859,42.188 500.234,42.937 C500.608,43.5 501.182,43.875 502.106,43.875 L503.43,43.875 L503.43,64.312 C503.43,68.811 504.353,72.185 506.426,74.437 C508.472,76.5 511.469,77.624 515.214,77.624" fill="#FFFFFF"/>
    <path d="M178.927,126.079 L186.519,126.079 C188.808,126.079 190.575,125.481 191.824,124.285 C193.072,123.089 193.696,121.486 193.696,119.475 C193.696,117.465 193.011,115.93 191.642,114.873 C190.272,113.816 188.269,113.287 185.636,113.287 L178.927,113.287 L178.927,126.079 z M178.927,109.335 L184.959,109.335 C187.039,109.335 188.755,108.746 190.107,107.567 C191.459,106.388 192.136,104.889 192.136,103.069 C192.136,101.249 191.546,99.88 190.367,98.961 C189.189,98.043 187.317,97.583 184.751,97.583 L178.927,97.583 L178.927,109.335 z M174.351,128.471 L174.351,95.191 C174.351,94.151 174.871,93.631 175.911,93.631 L185.22,93.631 C188.997,93.631 191.884,94.463 193.877,96.127 C195.87,97.791 196.867,100.027 196.867,102.835 C196.867,104.569 196.295,106.215 195.152,107.775 C194.007,109.335 192.673,110.323 191.148,110.739 L191.148,110.947 C191.667,111.017 192.429,111.329 193.435,111.883 C194.441,112.438 195.263,113.001 195.906,113.573 C196.546,114.145 197.127,114.969 197.648,116.043 C198.167,117.118 198.427,118.297 198.427,119.579 C198.427,126.547 193.904,130.031 184.855,130.031 L175.911,130.031 C174.871,130.031 174.351,129.511 174.351,128.471" fill="#FFFFFF"/>
    <path d="M204.042,121.919 L204.042,103.875 C204.042,103.113 204.736,102.731 206.122,102.731 L206.331,102.731 C207.717,102.731 208.411,103.113 208.411,103.875 L208.411,121.503 C208.411,123.098 208.87,124.337 209.788,125.221 C210.706,126.105 212.016,126.547 213.714,126.547 C216.21,126.547 218.395,125.334 220.267,122.907 L220.267,103.875 C220.267,103.113 220.96,102.731 222.347,102.731 L222.555,102.731 C223.941,102.731 224.635,103.113 224.635,103.875 L224.635,122.335 C224.635,124.415 224.721,125.923 224.895,126.859 C225.137,128.142 225.259,128.818 225.259,128.887 C225.259,129.303 224.929,129.607 224.271,129.797 C223.613,129.988 223.101,130.083 222.738,130.083 C222.372,130.083 222.12,130.048 221.983,129.979 C221.844,129.91 221.714,129.789 221.593,129.615 C221.471,129.442 221.376,129.277 221.307,129.121 C221.238,128.965 221.167,128.749 221.099,128.471 C221.029,128.194 220.969,127.977 220.917,127.821 C220.865,127.665 220.813,127.423 220.761,127.093 C220.708,126.764 220.665,126.547 220.63,126.443 C218.308,129.043 215.717,130.343 212.857,130.343 C209.997,130.343 207.813,129.598 206.305,128.107 C204.796,126.617 204.042,124.553 204.042,121.919" fill="#FFFFFF"/>
    <path d="M230.926,127.223 C230.926,126.877 231.142,126.357 231.576,125.663 C232.009,124.969 232.4,124.623 232.746,124.623 C232.781,124.623 233.058,124.788 233.578,125.117 C234.099,125.447 234.843,125.776 235.814,126.105 C236.784,126.435 237.954,126.599 239.324,126.599 C240.693,126.599 241.82,126.209 242.704,125.429 C243.588,124.649 244.031,123.592 244.031,122.257 C244.031,120.923 243.64,119.883 242.861,119.137 C242.08,118.392 240.529,117.69 238.206,117.031 C235.883,116.373 234.202,115.532 233.162,114.509 C232.122,113.487 231.603,111.935 231.603,109.855 C231.603,107.775 232.4,106.033 233.994,104.629 C235.588,103.225 237.668,102.523 240.234,102.523 C242.002,102.523 243.579,102.749 244.966,103.199 C246.353,103.65 247.046,104.153 247.046,104.707 C247.046,105.158 246.847,105.739 246.449,106.449 C246.049,107.16 245.695,107.515 245.382,107.515 C245.347,107.515 245.122,107.411 244.706,107.203 C243.527,106.579 242.201,106.267 240.728,106.267 C239.254,106.267 238.111,106.571 237.296,107.178 C236.482,107.784 236.074,108.573 236.074,109.543 C236.074,110.514 236.377,111.277 236.984,111.831 C237.59,112.386 238.622,112.888 240.078,113.339 C243.336,114.344 245.546,115.445 246.708,116.641 C247.869,117.837 248.45,119.64 248.45,122.049 C248.45,124.459 247.592,126.443 245.876,128.003 C244.16,129.563 242.107,130.343 239.714,130.343 C237.322,130.343 235.259,129.988 233.527,129.277 C231.792,128.567 230.926,127.882 230.926,127.223" fill="#FFFFFF"/>
    <path d="M255.314,128.991 L255.314,103.875 C255.314,103.113 256.007,102.731 257.394,102.731 L257.602,102.731 C258.988,102.731 259.682,103.113 259.682,103.875 L259.682,128.991 C259.682,129.754 258.988,130.135 257.602,130.135 L257.394,130.135 C256.007,130.135 255.314,129.754 255.314,128.991 z M257.186,96.283 C255.799,96.283 255.106,95.902 255.106,95.139 L255.106,92.071 C255.106,91.309 255.799,90.927 257.186,90.927 L257.81,90.927 C259.197,90.927 259.89,91.309 259.89,92.071 L259.89,95.139 C259.89,95.902 259.197,96.283 257.81,96.283 L257.186,96.283" fill="#FFFFFF"/>
    <path d="M268.834,128.991 L268.834,110.739 C268.834,108.625 268.748,107.117 268.574,106.215 C268.332,104.967 268.211,104.291 268.211,104.187 C268.211,103.771 268.539,103.468 269.198,103.277 C269.856,103.087 270.368,102.991 270.732,102.991 C271.096,102.991 271.347,103.026 271.486,103.095 C271.625,103.165 271.754,103.277 271.877,103.433 C271.998,103.589 272.092,103.745 272.162,103.901 C272.231,104.057 272.301,104.265 272.37,104.525 C272.439,104.785 272.5,104.993 272.553,105.149 C272.604,105.305 272.656,105.531 272.709,105.825 C272.76,106.12 272.803,106.319 272.838,106.423 C275.16,103.823 277.752,102.523 280.612,102.523 C283.472,102.523 285.656,103.269 287.164,104.759 C288.672,106.25 289.426,108.313 289.426,110.947 L289.426,128.991 C289.426,129.754 288.732,130.135 287.346,130.135 L287.138,130.135 C285.752,130.135 285.058,129.754 285.058,128.991 L285.058,111.363 C285.058,109.769 284.598,108.529 283.68,107.645 C282.762,106.761 281.453,106.319 279.754,106.319 C277.258,106.319 275.074,107.533 273.202,109.959 L273.202,128.991 C273.202,129.754 272.508,130.135 271.122,130.135 L270.914,130.135 C269.527,130.135 268.834,129.754 268.834,128.991" fill="#FFFFFF"/>
    <path d="M314.385,114.483 C314.385,109.006 312.306,106.267 308.145,106.267 C303.674,106.267 301.246,109.006 300.865,114.483 L314.385,114.483 z M299.305,126.963 C297.225,124.71 296.185,121.269 296.185,116.641 C296.185,112.013 297.208,108.503 299.254,106.111 C301.299,103.719 304.211,102.523 307.99,102.523 C315.338,102.523 319.013,107.047 319.013,116.095 C319.013,116.407 318.806,116.841 318.39,117.395 C317.974,117.95 317.609,118.227 317.297,118.227 L300.865,118.227 C301.074,121.105 301.818,123.219 303.101,124.571 C304.384,125.923 306.307,126.599 308.873,126.599 C311.23,126.599 313.398,126.045 315.373,124.935 C316.031,124.589 316.396,124.415 316.465,124.415 C316.812,124.415 317.201,124.761 317.635,125.455 C318.068,126.149 318.285,126.669 318.285,127.015 C318.285,127.709 317.34,128.437 315.451,129.199 C313.562,129.962 311.387,130.343 308.926,130.343 C304.592,130.343 301.386,129.217 299.305,126.963" fill="#FFFFFF"/>
    <path d="M323.173,127.223 C323.173,126.877 323.388,126.357 323.822,125.663 C324.256,124.969 324.645,124.623 324.992,124.623 C325.026,124.623 325.305,124.788 325.824,125.117 C326.345,125.447 327.09,125.776 328.06,126.105 C329.03,126.435 330.2,126.599 331.57,126.599 C332.939,126.599 334.066,126.209 334.95,125.429 C335.835,124.649 336.276,123.592 336.276,122.257 C336.276,120.923 335.887,119.883 335.106,119.137 C334.326,118.392 332.774,117.69 330.452,117.031 C328.13,116.373 326.448,115.532 325.408,114.509 C324.368,113.487 323.848,111.935 323.848,109.855 C323.848,107.775 324.645,106.033 326.24,104.629 C327.835,103.225 329.915,102.523 332.48,102.523 C334.249,102.523 335.825,102.749 337.213,103.199 C338.598,103.65 339.293,104.153 339.293,104.707 C339.293,105.158 339.093,105.739 338.694,106.449 C338.296,107.16 337.94,107.515 337.629,107.515 C337.594,107.515 337.368,107.411 336.952,107.203 C335.773,106.579 334.447,106.267 332.974,106.267 C331.501,106.267 330.356,106.571 329.543,107.178 C328.727,107.784 328.32,108.573 328.32,109.543 C328.32,110.514 328.624,111.277 329.23,111.831 C329.837,112.386 330.868,112.888 332.324,113.339 C335.583,114.344 337.793,115.445 338.954,116.641 C340.115,117.837 340.696,119.64 340.696,122.049 C340.696,124.459 339.839,126.443 338.122,128.003 C336.406,129.563 334.352,130.343 331.961,130.343 C329.568,130.343 327.506,129.988 325.772,129.277 C324.039,128.567 323.173,127.882 323.173,127.223" fill="#FFFFFF"/>
    <path d="M344.648,127.223 C344.648,126.877 344.864,126.357 345.298,125.663 C345.731,124.969 346.121,124.623 346.468,124.623 C346.502,124.623 346.78,124.788 347.3,125.117 C347.82,125.447 348.565,125.776 349.536,126.105 C350.506,126.435 351.676,126.599 353.046,126.599 C354.415,126.599 355.542,126.209 356.426,125.429 C357.31,124.649 357.752,123.592 357.752,122.257 C357.752,120.923 357.362,119.883 356.582,119.137 C355.802,118.392 354.25,117.69 351.928,117.031 C349.605,116.373 347.924,115.532 346.884,114.509 C345.844,113.487 345.324,111.935 345.324,109.855 C345.324,107.775 346.121,106.033 347.716,104.629 C349.31,103.225 351.39,102.523 353.956,102.523 C355.724,102.523 357.301,102.749 358.688,103.199 C360.074,103.65 360.768,104.153 360.768,104.707 C360.768,105.158 360.568,105.739 360.17,106.449 C359.771,107.16 359.416,107.515 359.104,107.515 C359.069,107.515 358.844,107.411 358.428,107.203 C357.249,106.579 355.923,106.267 354.45,106.267 C352.976,106.267 351.832,106.571 351.018,107.178 C350.203,107.784 349.796,108.573 349.796,109.543 C349.796,110.514 350.099,111.277 350.706,111.831 C351.312,112.386 352.344,112.888 353.8,113.339 C357.058,114.344 359.268,115.445 360.43,116.641 C361.591,117.837 362.172,119.64 362.172,122.049 C362.172,124.459 361.314,126.443 359.597,128.003 C357.882,129.563 355.828,130.343 353.436,130.343 C351.044,130.343 348.981,129.988 347.248,129.277 C345.514,128.567 344.648,127.882 344.648,127.223" fill="#FFFFFF"/>
  </g>
</svg>
