<svg xmlns="http://www.w3.org/2000/svg" xmlns:xlink="http://www.w3.org/1999/xlink" width="1723.59" height="1446" viewBox="0 0 574.53 482"><style><![CDATA[.B{font-family:Arial-BoldMT}.C{kerning:0}.D{font-size:10px}.E{fill:#fffffe}.F{fill:#1a1919}.G{font-size:7.597px}.H{font-size:9px}]]></style><defs><radialGradient id="A" cx="294.734" cy="250.927" r="139.176" xlink:href="#J"><stop offset="0" stop-color="#e4e4e3"/><stop offset=".696" stop-color="#e4e4e3"/><stop offset="1" stop-color="#cbcccb"/></radialGradient><radialGradient id="B" cx="295.28" cy="254.75" r="294.003" xlink:href="#J"><stop offset="0" stop-color="#4ba3c0"/><stop offset=".365" stop-color="#4ba3c0"/><stop offset=".412" stop-color="#ff9e00"/><stop offset=".899" stop-color="#ff9e00"/><stop offset="1" stop-color="#fffffe"/></radialGradient><radialGradient id="C" cx="294.381" cy="247" r="283.18" xlink:href="#J"><stop offset="0" stop-color="#4ba3c0"/><stop offset=".158" stop-color="#4ba3c0"/><stop offset=".324" stop-color="#ff9e00"/><stop offset=".85" stop-color="#ff9e00"/><stop offset=".926" stop-color="#fffffe"/></radialGradient><radialGradient id="D" cx="294.03" cy="-290.101" r="255.494" gradientTransform="matrix(1, 0, 0, -1, 0, 0)" xlink:href="#J"><stop offset="0" stop-color="#7790af"/><stop offset=".835" stop-color="#dadbd9"/><stop offset="1" stop-color="#fffffe"/></radialGradient><radialGradient id="E" cx="295.401" cy="252.47" r="255.526" xlink:href="#J"><stop offset="0" stop-color="#4ba3c0"/><stop offset=".446" stop-color="#4ba3c0"/><stop offset=".509" stop-color="#ff9e00"/><stop offset=".83" stop-color="#ff9e00"/><stop offset="1" stop-color="#fffffe"/></radialGradient><radialGradient id="F" cx="293.17" cy="249.547" r="254.683" xlink:href="#J"><stop offset="0" stop-color="#4ba3c0"/><stop offset=".456" stop-color="#4ba3c0"/><stop offset=".523" stop-color="#ff9e00"/><stop offset=".82" stop-color="#ff9e00"/><stop offset="1" stop-color="#fffffe"/></radialGradient><radialGradient id="G" cx="303.03" cy="-231.726" r="243.587" gradientTransform="matrix(1, 0, 0, -1, 0, 0)" xlink:href="#J"><stop offset="0" stop-color="#7790af"/><stop offset=".8" stop-color="#dadbd9"/><stop offset="1" stop-color="#fffffe"/></radialGradient><clipPath ><path d="M152.802 107.878h286.721v286.721H152.802z"/></clipPath><path id="I" d="M383.616 250.265h-84.019l72.762-42.009-1-1.732-72.761 42.009 42.009-72.762-1.732-1-42.009 72.762v-84.018h-2v84.018l-42.009-72.762-1.733 1 42.009 72.762-72.761-42.009-1 1.732 72.762 42.009h-84.018v2h84.018l-72.762 42.009 1 1.732 72.761-42.009-42.009 72.762 1.733 1 42.009-72.762v84.018h2v-84.018l42.009 72.762 1.732-1-42.009-72.762 72.761 42.009 1-1.732-72.762-42.009h84.019z"/><linearGradient id="J" gradientUnits="userSpaceOnUse"/></defs><path d="M439.087 252.914c0 77.932-63.176 141.108-141.107 141.108s-141.108-63.176-141.108-141.108 63.175-141.107 141.108-141.107 141.107 63.175 141.107 141.107" fill="#e4e4e3"/><path d="M158.573 251.69c0 75.584 61.272 136.856 136.855 136.856h0c75.583 0 136.855-61.272 136.855-136.856h0c0-75.582-61.272-136.854-136.855-136.854h0c-75.583 0-136.855 61.272-136.855 136.854z" fill="url(#A)"/><path d="M164.395 412.589c17.93 15.068 38.457 27.14 60.839 35.406h0c22.151 8.18 46.095 12.661 71.089 12.661h0c.234 0 .465-.017.699-.017h0L295.8 252.324z" fill="url(#B)"/><path d="M296.464 15.581c-28.952.088-56.668 5.443-82.261 15.149h0l80.214 218.805.545-.023.165.443 2.724-.108 77.27-220.966c-24.702-8.859-50.204-13.31-77.934-13.31h0l-.723.01z" fill="url(#C)"/><path d="M0 83.025l247.647 140.958 47.916 26.628-.136 1.079-1.497-.248-.005.044-.142 1.041L0 306.192V83.025z" fill="url(#D)"/><path d="M0 306.221c6.278 34.657 18.487 67.246 35.536 96.685h0c17.39 30.03 39.814 56.781 66.123 79.094h4.59l187.676-226.474-1.696-2.686z" fill="url(#E)"/><path d="M492.112 482h7.968c23.505-23.363 43.597-50.827 59.174-81.584h0c5.715-11.285 10.825-23.01 15.276-35.132h0v-65.701l-279.611-49.384-.432-2.081-1.812-.27z" fill="url(#F)"/><path d="M574.53 90.593v209.334l-276.551-47.013-.535-2.464.945-.166-.171-.79 124.725-71.385L574.53 90.593z" fill="url(#G)"/><path d="M386.778 0l-88.983 249.23L574.53 87.182v2.589L298.991 251.119l275.539 46.842v2.266l-275.837-46.892L492.971 482h-2.931L297.038 254.839 298.434 482H296.2l-1.395-227.07L106.635 482h-2.902l189.302-228.436L0 307.091v-2.271l292.559-53.441L0 84.858v-2.571l293.597 167.112L201.085 0h2.383l92.198 248.549L384.405 0h2.373zm-90.981 251.722l-.06.023-.032.056.012.063.049.041.064-.001.049-.041.011-.065-.032-.054-.061-.022z" class="E"/><text transform="matrix(.891 -.453 .453 .891 234.374 128.886)"><tspan x="-3.335" y="3" class="B C D E">E</tspan></text><text transform="matrix(.915 -.405 .405 .915 240.954 125.762)"><tspan x="-3.611" y="3" class="B C D E">N</tspan></text><text transform="matrix(.935 -.355 .355 .935 247.665 123.005)"><tspan x="-3.335" y="3" class="B C D E">V</tspan></text><text transform="matrix(.947 -.32 .32 .947 252.39 121.308)"><tspan x="-1.389" y="3" class="B C D E">I</tspan></text><text transform="matrix(.959 -.283 .283 .959 257.438 119.711)"><tspan x="-3.611" y="3" class="B C D E">R</tspan></text><text transform="matrix(.974 -.228 .228 .974 264.998 117.709)"><tspan x="-3.889" y="3" class="B C D E">O</tspan></text><text transform="matrix(.985 -.172 .172 .985 272.646 116.145)"><tspan x="-3.611" y="3" class="B C D E">N</tspan></text><text transform="matrix(.994 -.114 .114 .994 280.669 114.986)"><tspan x="-4.165" y="3" class="B C D E">M</tspan></text><text transform="matrix(.998 -.057 .057 .998 288.459 114.318)"><tspan x="-3.335" y="3" class="B C D E">E</tspan></text><text transform="matrix(1 -.004 .004 1 295.716 114.097)"><tspan x="-3.611" y="3" class="B C D E">N</tspan></text><text transform="matrix(.999 .047 -.047 .999 302.671 114.245)"><tspan x="-3.054" y="3" class="B C D E">T</tspan></text><text transform="matrix(.996 .092 -.092 .996 308.903 114.679)"><tspan x="-3.611" y="3" class="B C D E">A</tspan></text><text transform="matrix(.99 .143 -.143 .99 315.831 115.499)"><tspan x="-3.054" y="3" class="B C D E">L</tspan></text><text transform="matrix(.977 .214 -.214 .977 325.495 117.252)"><tspan x="-3.611" y="3" class="B C D E">C</tspan></text><text transform="matrix(.964 .266 -.266 .964 332.561 118.998)"><tspan x="-3.335" y="3" class="B C D E">E</tspan></text><text transform="matrix(.954 .301 -.301 .954 337.38 120.423)"><tspan x="-1.389" y="3" class="B C D E">I</tspan></text><text transform="matrix(.942 .334 -.334 .942 341.862 121.926)"><tspan x="-3.054" y="3" class="B C D E">L</tspan></text><text transform="matrix(.93 .367 -.367 .93 346.302 123.589)"><tspan x="-1.389" y="3" class="B C D E">I</tspan></text><text transform="matrix(.915 .403 -.403 .915 351.179 125.626)"><tspan x="-3.611" y="3" class="B C D E">N</tspan></text><text transform="matrix(.89 .456 -.456 .89 358.256 128.992)"><tspan x="-3.889" y="3" class="B C D E">G</tspan></text><path d="M382.672 247.669l-.073.003c-.597-16.589-5.807-32.371-15.7-46.369l-.06.042c-9.476-13.63-22.396-24.085-38.291-30.505l-.026.067c-15.344-6.337-31.865-8.14-48.706-4.942l.013.071c-16.332 2.97-31.203 10.392-43.636 22.193l.051.053c-12.03 11.239-20.491 25.395-24.607 41.902l.072.018c-4.139 16.073-3.628 32.687 1.883 48.92l.071-.024c5.214 15.758 14.632 29.454 28.048 40.124l.046-.058c12.91 10.434 28.241 16.857 45.296 18.573l.008-.073c16.502 1.791 32.869-1.1 48.142-8.885l-.032-.064c14.847-7.422 27.049-18.709 35.684-33.517l-.063-.036c8.472-14.275 12.627-30.367 11.88-47.493" fill="#ff9e00"/><g fill="#e4e4e3"><path d="M355.931 251.296l-60.772-.404-.227.06 58.908 15.692.093-.355c1.277-4.91 1.94-9.951 1.998-14.993"/><path d="M358.543 287.332a71.24 71.24 0 0 0 7.302-17.237l.115-.417-69.919-18.696zm-39.137-75.456l-23.568 38.368-.048.166 32.543-31.322-.19-.194c-2.622-2.693-5.563-5.047-8.737-7.018"/><path d="M340.2 225.41a49.65 49.65 0 0 0-7.758-10.482l-.21-.217-35.966 35.336z"/><path d="M356.981 215.717l-61.36 35.095-.192.193 68.414-18.631-.114-.41c-1.583-5.684-3.861-11.142-6.748-16.247"/><path d="M368.137 250.321c.034-6.208-.736-12.412-2.325-18.429l-.11-.415-69.309 18.803z"/><path d="M281.193 197.109l15.342 54.861.113.188-1.086-57.132-.344.009a58.51 58.51 0 0 0-14.025 2.074"/><path d="M277.695 177.811c-6.435 1.663-12.645 4.156-18.438 7.447l-.4.226 38.419 66.593zm-16.103 13.476c-5.222 2.965-10.053 6.603-14.333 10.835l-.295.292 49.185 49.053z"/><path d="M249.447 296.521a62.48 62.48 0 0 0 12.783 10.307l.325.197 32.593-54.481zm13.078-45.254l34.923.322.13-.037-33.824-9.688-.053.217a40.69 40.69 0 0 0-1.176 9.186"/><path d="M296.472 251.483l-55.639-31.682-.189.336c-2.609 4.644-4.63 9.588-6.037 14.694l-.147.57 61.766 16.083zm-27.039 26.18l25.973-25.219.07-.121-31.567 17.95.108.189c1.509 2.618 3.334 5.036 5.416 7.201"/><path d="M314.199 262.835l-18.372-11.876-.08-.025 14.849 16.156.097-.09a22.42 22.42 0 0 0 3.506-4.165"/><path d="M333.303 314.505a71.42 71.42 0 0 0 14.838-11.491l.305-.308-51.967-50.635zm-81.296-89.623l45.47 26.606.195.053-37.453-37.281-.222.226a54.07 54.07 0 0 0-7.99 10.396m81.42-38.142l-.385-.217c-5.332-3.012-11.008-5.345-16.873-6.974-6.222-1.729-12.659-2.663-19.125-2.739l-.446-.005.282 73.8zm-100.974 64.771l.003.385a65.55 65.55 0 0 0 2.068 15.75 65.07 65.07 0 0 0 6.24 15.611l.19.339 55.526-32.258z"/><path d="M296.284 251.306l-.001-.199-26.065 44.881.277.155a55.29 55.29 0 0 0 12.145 4.999c4.478 1.249 9.106 1.937 13.752 2.021l.322.006z"/><path d="M296.37 251.395l-.08-.135-.077 40.882.252-.004a44.1 44.1 0 0 0 10.336-1.367 43.69 43.69 0 0 0 10.256-4.03l.223-.121z"/></g><g class="E"><use xlink:href="#I"/><use xlink:href="#I"/></g><g fill="#347c94"><path d="M474.499 154.563l-167.67 97.227-5.184-8.938 167.67-97.228z"/><path d="M311.221 254.714l-13.529-3.598 3.597-13.529zM465.33 142.447l13.529 3.598-3.597 13.53z"/></g><text transform="matrix(.865 -.502 .502 .865 332.023 231.619)"><tspan x="-22.682" y="2" class="B E G">SHORT</tspan><tspan x="3.905" y="2" kerning="-0.211" class="B E G">F</tspan><tspan x="7.916" y="2" class="B E G">AL</tspan><tspan x="18.042" y="2" class="B C E G">L</tspan></text><text transform="matrix(.865 -.502 .502 .865 447.801 164.649)"><tspan x="-24.27" y="2" class="B E G">OVERSHOO</tspan><tspan x="19.629" y="2" class="B C E G">T</tspan></text><path d="M296.47 340.34c-49.338 0-89.333-39.996-89.333-89.333s39.995-89.334 89.333-89.334 89.333 39.996 89.333 89.334-39.996 89.333-89.333 89.333m-1.027-232.804c-79.176 0-143.361 64.185-143.361 143.361s64.185 143.36 143.361 143.36 143.36-64.185 143.36-143.36-64.185-143.361-143.36-143.361" fill="#93c8d9"/><g stroke="#4ba3c0" stroke-width="13"><path d="M433.299 250.905c0 75.922-61.547 137.47-137.471 137.47s-137.47-61.548-137.47-137.47 61.548-137.471 137.47-137.471 137.471 61.548 137.471 137.471z" fill-opacity="0"/><path d="M386.718 251.239c0 50.013-40.543 90.557-90.557 90.557s-90.558-40.544-90.558-90.557 40.545-90.558 90.558-90.558 90.557 40.545 90.557 90.558z" fill-opacity="0"/></g><text transform="matrix(.996 -.09 .09 .996 281.64 92.911)"><tspan x="-2.781" y="3" class="B C D E">c</tspan></text><text transform="matrix(.999 -.053 .053 .999 287.494 92.491)"><tspan x="-3.054" y="3" class="B C D E">h</tspan></text><text transform="matrix(1 -.016 .016 1 293.375 92.288)"><tspan x="-2.781" y="3" class="B C D E">a</tspan></text><text transform="matrix(1 .02 -.02 1 299.249 92.302)"><tspan x="-3.054" y="3" class="B C D E">n</tspan></text><text transform="matrix(.998 .059 -.059 .998 305.397 92.549)"><tspan x="-3.054" y="3" class="B C D E">g</tspan></text><text transform="matrix(.995 .096 -.096 .995 311.273 93.008)"><tspan x="-2.781" y="3" class="B C D E">e</tspan></text><text transform="matrix(.678 -.735 .735 .678 177.268 144.277)"><tspan x="-3.054" y="3" class="B C D F">d</tspan></text><text transform="matrix(.705 -.709 .709 .705 181.337 140.027)"><tspan x="-2.781" y="3" class="B C D F">e</tspan></text><text transform="matrix(.731 -.682 .682 .731 185.571 135.924)"><tspan x="-3.054" y="3" class="B C D F">p</tspan></text><text transform="matrix(.75 -.661 .661 .75 188.873 132.929)"><tspan x="-1.389" y="3" class="B C D F">l</tspan></text><text transform="matrix(.767 -.641 .641 .767 192.066 130.187)"><tspan x="-2.781" y="3" class="B C D F">e</tspan></text><text transform="matrix(.785 -.62 .62 .785 195.544 127.361)"><tspan x="-1.665" y="3" class="B C D F">t</tspan></text><text transform="matrix(.797 -.604 .604 .797 197.976 125.479)"><tspan x="-1.389" y="3" class="B C D F">i</tspan></text><text transform="matrix(.813 -.582 .582 .813 201.568 122.833)"><tspan x="-3.054" y="3" class="B C D F">o</tspan></text><text transform="matrix(.835 -.55 .55 .835 206.655 119.343)"><tspan x="-3.054" y="3" class="B C D F">n</tspan></text><text transform="matrix(-.006 -1 1 -.006 135.867 252.003)"><tspan x="-2.781" y="3" class="B C D F">a</tspan></text><text transform="matrix(.021 -1 1 .021 135.898 247.8)"><tspan x="-1.389" y="3" class="B C D F">i</tspan></text><text transform="matrix(.042 -.999 .999 .042 136.005 244.442)"><tspan x="-1.946" y="3" class="B C D F">r</tspan></text><text transform="matrix(.092 -.996 .996 .092 136.533 236.616)"><tspan x="-3.054" y="3" class="B C D F">p</tspan></text><text transform="matrix(.131 -.991 .991 .131 137.218 230.519)"><tspan x="-3.054" y="3" class="B C D F">o</tspan></text><text transform="matrix(.159 -.987 .987 .159 137.871 226.064)"><tspan x="-1.389" y="3" class="B C D F">l</tspan></text><text transform="matrix(.176 -.984 .984 .176 138.337 223.316)"><tspan x="-1.389" y="3" class="B C D F">l</tspan></text><text transform="matrix(.204 -.979 .979 .204 139.19 218.912)"><tspan x="-3.054" y="3" class="B C D F">u</tspan></text><text transform="matrix(.233 -.973 .973 .233 140.226 214.28)"><tspan x="-1.665" y="3" class="B C D F">t</tspan></text><text transform="matrix(.252 -.968 .968 .252 140.971 211.3)"><tspan x="-1.389" y="3" class="B C D F">i</tspan></text><text transform="matrix(.279 -.96 .96 .279 142.157 206.988)"><tspan x="-3.054" y="3" class="B C D F">o</tspan></text><text transform="matrix(.316 -.949 .949 .316 143.992 201.103)"><tspan x="-3.054" y="3" class="B C D F">n</tspan></text><text transform="matrix(.362 .932 -.932 .362 146.92 307.04)"><tspan x="-3.054" y="3" class="B C D E">b</tspan></text><text transform="matrix(.388 .921 -.921 .388 148.607 311.206)"><tspan x="-1.389" y="3" class="B C D E">i</tspan></text><text transform="matrix(.414 .91 -.91 .414 150.403 315.302)"><tspan x="-3.054" y="3" class="B C D E">o</tspan></text><text transform="matrix(.45 .893 -.893 .45 153.073 320.875)"><tspan x="-3.054" y="3" class="B C D E">d</tspan></text><text transform="matrix(.474 .88 -.88 .474 155.148 324.858)"><tspan x="-1.389" y="3" class="B C D E">i</tspan></text><text transform="matrix(.497 .868 -.868 .497 157.182 328.517)"><tspan x="-2.781" y="3" class="B C D E">v</tspan></text><text transform="matrix(.528 .849 -.849 .528 160.067 333.351)"><tspan x="-2.781" y="3" class="B C D E">e</tspan></text><text transform="matrix(.553 .833 -.833 .553 162.644 337.362)"><tspan x="-1.946" y="3" class="B C D E">r</tspan></text><text transform="matrix(.578 .816 -.816 .578 165.339 341.295)"><tspan x="-2.781" y="3" class="B C D E">s</tspan></text><text transform="matrix(.6 .8 -.8 .6 167.827 344.711)"><tspan x="-1.389" y="3" class="B C D E">i</tspan></text><text transform="matrix(.615 .788 -.788 .615 169.696 347.155)"><tspan x="-1.665" y="3" class="B C D E">t</tspan></text><text transform="matrix(.638 .77 -.77 .638 172.507 350.653)"><tspan x="-2.781" y="3" class="B C D E">y</tspan></text><text transform="matrix(.295 .956 -.956 .295 447.531 204.562)"><tspan x="-3.054" y="3" class="B C D F">p</tspan></text><text transform="matrix(.257 .966 -.966 .257 449.231 210.485)"><tspan x="-3.054" y="3" class="B C D F">o</tspan></text><text transform="matrix(.229 .973 -.973 .229 450.32 214.838)"><tspan x="-1.389" y="3" class="B C D F">l</tspan></text><text transform="matrix(.212 .977 -.977 .212 450.935 217.556)"><tspan x="-1.389" y="3" class="B C D F">l</tspan></text><text transform="matrix(.184 .983 -.983 .184 451.822 221.94)"><tspan x="-3.054" y="3" class="B C D F">u</tspan></text><text transform="matrix(.158 .987 -.987 .158 452.626 226.613)"><tspan x="-1.665" y="3" class="B C D F">t</tspan></text><text transform="matrix(.136 .991 -.991 .136 453.075 229.67)"><tspan x="-1.389" y="3" class="B C D F">i</tspan></text><text transform="matrix(.108 .994 -.994 .108 453.624 234.129)"><tspan x="-3.054" y="3" class="B C D F">o</tspan></text><text transform="matrix(.069 .998 -.998 .069 454.166 240.235)"><tspan x="-3.054" y="3" class="B C D F">n</tspan></text><text transform="matrix(.858 .514 -.514 .858 376.952 114.996)"><tspan x="-2.781" y="3" class="B C D F">a</tspan></text><text transform="matrix(.839 .544 -.544 .839 381.702 117.955)"><tspan x="-2.781" y="3" class="B C D F">c</tspan></text><text transform="matrix(.824 .566 -.566 .824 385.194 120.286)"><tspan x="-1.389" y="3" class="B C D F">i</tspan></text><text transform="matrix(.808 .59 -.59 .808 388.857 122.88)"><tspan x="-3.054" y="3" class="B C D F">d</tspan></text><text transform="matrix(.791 .612 -.612 .791 392.443 125.578)"><tspan x="-1.389" y="3" class="B C D F">i</tspan></text><text transform="matrix(.779 .627 -.627 .779 394.843 127.474)"><tspan x="-1.665" y="3" class="B C D F">f</tspan></text><text transform="matrix(.766 .642 -.642 .766 397.215 129.424)"><tspan x="-1.389" y="3" class="B C D F">i</tspan></text><text transform="matrix(.749 .663 -.663 .749 400.409 132.175)"><tspan x="-2.781" y="3" class="B C D F">c</tspan></text><text transform="matrix(.725 .688 -.688 .725 404.534 135.955)"><tspan x="-2.781" y="3" class="B C D F">a</tspan></text><text transform="matrix(.706 .709 -.709 .706 407.745 139.091)"><tspan x="-1.665" y="3" class="B C D F">t</tspan></text><text transform="matrix(.692 .722 -.722 .692 409.89 141.286)"><tspan x="-1.389" y="3" class="B C D F">i</tspan></text><text transform="matrix(.671 .742 -.742 .671 412.951 144.573)"><tspan x="-3.054" y="3" class="B C D F">o</tspan></text><text transform="matrix(.641 .767 -.767 .641 416.981 149.205)"><tspan x="-3.054" y="3" class="B C D F">n</tspan></text><text transform="matrix(.295 .955 -.955 .295 457.955 201.717)"><tspan x="-2.781" y="3" class="B C D F">c</tspan></text><text transform="matrix(.26 .966 -.966 .26 459.591 207.377)"><tspan x="-3.054" y="3" class="B C D F">h</tspan></text><text transform="matrix(.225 .974 -.974 .225 461.012 213.064)"><tspan x="-2.781" y="3" class="B C D F">e</tspan></text><text transform="matrix(.18 .984 -.984 .18 462.488 220.206)"><tspan x="-4.446" y="3" class="B C D F">m</tspan></text><text transform="matrix(.144 .99 -.99 .144 463.44 226.014)"><tspan x="-1.389" y="3" class="B C D F">i</tspan></text><text transform="matrix(.118 .993 -.993 .118 463.988 230.167)"><tspan x="-2.781" y="3" class="B C D F">c</tspan></text><text transform="matrix(.083 .997 -.997 .083 464.549 235.733)"><tspan x="-2.781" y="3" class="B C D F">a</tspan></text><text transform="matrix(.057 .998 -.998 .057 464.844 239.943)"><tspan x="-1.389" y="3" class="B C D F">l</tspan></text><text transform="matrix(.814 .581 -.581 .814 394.62 114.741)"><tspan x="-3.054" y="3" class="B C D F">o</tspan></text><text transform="matrix(.792 .611 -.611 .792 399.343 118.248)"><tspan x="-2.781" y="3" class="B C D F">c</tspan></text><text transform="matrix(.77 .638 -.638 .77 403.712 121.744)"><tspan x="-2.781" y="3" class="B C D F">e</tspan></text><text transform="matrix(.747 .665 -.665 .747 407.962 125.396)"><tspan x="-2.781" y="3" class="B C D F">a</tspan></text><text transform="matrix(.722 .692 -.692 .722 412.29 129.396)"><tspan x="-3.054" y="3" class="B C D F">n</tspan></text><text transform="matrix(.995 -.097 .097 .995 281.201 83.488)"><tspan x="-2.781" y="3" class="B C D E">c</tspan></text><text transform="matrix(.998 -.07 .07 .998 285.383 83.138)"><tspan x="-1.389" y="3" class="B C D E">l</tspan></text><text transform="matrix(.999 -.053 .053 .999 288.175 82.965)"><tspan x="-1.389" y="3" class="B C D E">i</tspan></text><text transform="matrix(1 -.016 .016 1 294.063 82.76)"><tspan x="-4.446" y="3" class="B C D E">m</tspan></text><text transform="matrix(1 .029 -.029 1 301.33 82.809)"><tspan x="-2.781" y="3" class="B C D E">a</tspan></text><text transform="matrix(.998 .057 -.057 .998 305.8 83.002)"><tspan x="-1.665" y="3" class="B C D E">t</tspan></text><text transform="matrix(.996 .085 -.085 .996 310.276 83.32)"><tspan x="-2.781" y="3" class="B C D E">e</tspan></text><text transform="matrix(.654 -.756 .756 .654 167.905 141.264)"><tspan x="-3.054" y="3" class="B C D F">o</tspan></text><text transform="matrix(.68 -.733 .733 .68 171.645 137.089)"><tspan x="-2.5" y="3" class="B C D F">z</tspan></text><text transform="matrix(.705 -.709 .709 .705 175.511 133.066)"><tspan x="-3.054" y="3" class="B C D F">o</tspan></text><text transform="matrix(.732 -.681 .681 .732 179.931 128.79)"><tspan x="-3.054" y="3" class="B C D F">n</tspan></text><text transform="matrix(.757 -.654 .654 .757 184.316 124.857)"><tspan x="-2.781" y="3" class="B C D F">e</tspan></text><text transform="matrix(.784 -.62 .62 .784 189.717 120.393)"><tspan x="-1.389" y="3" class="B C D F">l</tspan></text><text transform="matrix(.8 -.599 .599 .8 193.037 117.838)"><tspan x="-2.781" y="3" class="B C D F">a</tspan></text><text transform="matrix(.821 -.571 .571 .821 197.575 114.562)"><tspan x="-2.781" y="3" class="B C D F">y</tspan></text><text transform="matrix(.84 -.542 .542 .84 202.233 111.44)"><tspan x="-2.781" y="3" class="B C D F">e</tspan></text><text transform="matrix(.856 -.517 .517 .856 206.282 108.912)"><tspan x="-1.946" y="3" class="B C D F">r</tspan></text><text transform="matrix(.456 .89 -.89 .456 145.436 327.807)"><tspan x="-1.389" y="3" class="B C D E">l</tspan></text><text transform="matrix(.481 .877 -.877 .481 147.54 331.775)"><tspan x="-3.054" y="3" class="B C D E">o</tspan></text><text transform="matrix(.513 .858 -.858 .513 150.476 336.902)"><tspan x="-2.781" y="3" class="B C D E">s</tspan></text><text transform="matrix(.542 .84 -.84 .542 153.426 341.651)"><tspan x="-2.781" y="3" class="B C D E">s</tspan></text><text transform="matrix(.921 .389 -.389 .921 230.494 395.546)"><tspan x="-1.389" y="3" class="B C D E">l</tspan></text><text transform="matrix(.931 .364 -.364 .931 234.402 397.134)"><tspan x="-2.781" y="3" class="B C D E">a</tspan></text><text transform="matrix(.944 .33 -.33 .944 239.907 399.173)"><tspan x="-3.054" y="3" class="B C D E">n</tspan></text><text transform="matrix(.956 .293 -.293 .956 245.784 401.1)"><tspan x="-3.054" y="3" class="B C D E">d</tspan></text><text transform="matrix(.88 .475 -.475 .88 214.2 398.692)"><tspan x="-2.781" y="3" class="B C D E">c</tspan></text><text transform="matrix(.897 .442 -.442 .897 219.443 401.398)"><tspan x="-3.054" y="3" class="B C D E">o</tspan></text><text transform="matrix(.913 .408 -.408 .913 225.009 404.011)"><tspan x="-3.054" y="3" class="B C D E">n</tspan></text><text transform="matrix(.928 .374 -.374 .928 230.446 406.32)"><tspan x="-2.781" y="3" class="B C D E">v</tspan></text><text transform="matrix(.94 .341 -.341 .94 235.69 408.327)"><tspan x="-2.781" y="3" class="B C D E">e</tspan></text><text transform="matrix(.95 .313 -.313 .95 240.2 409.889)"><tspan x="-1.946" y="3" class="B C D E">r</tspan></text><text transform="matrix(.959 .285 -.285 .959 244.744 411.312)"><tspan x="-2.781" y="3" class="B C D E">s</tspan></text><text transform="matrix(.966 .259 -.259 .966 248.813 412.463)"><tspan x="-1.389" y="3" class="B C D E">i</tspan></text><text transform="matrix(.973 .232 -.232 .973 253.154 413.564)"><tspan x="-3.054" y="3" class="B C D E">o</tspan></text><text transform="matrix(.981 .195 -.195 .981 259.18 414.882)"><tspan x="-3.054" y="3" class="B C D E">n</tspan></text><text transform="matrix(.976 -.217 .217 .976 328.267 406.126)"><tspan x="-1.665" y="3" class="B C D F">f</tspan></text><text transform="matrix(.971 -.239 .239 .971 331.807 405.298)"><tspan x="-1.946" y="3" class="B C D F">r</tspan></text><text transform="matrix(.963 -.268 .268 .963 336.446 404.081)"><tspan x="-2.781" y="3" class="B C D F">e</tspan></text><text transform="matrix(.953 -.302 .302 .953 341.823 402.479)"><tspan x="-2.781" y="3" class="B C D F">s</tspan></text><text transform="matrix(.942 -.335 .335 .942 347.386 400.601)"><tspan x="-3.054" y="3" class="B C D F">h</tspan></text><text transform="matrix(.926 -.378 .378 .926 353.929 398.096)"><tspan x="-3.889" y="3" class="B C D F">w</tspan></text><text transform="matrix(.909 -.417 .417 .909 360.116 395.416)"><tspan x="-2.781" y="3" class="B C D F">a</tspan></text><text transform="matrix(.897 -.443 .443 .897 364.17 393.486)"><tspan x="-1.665" y="3" class="B C D F">t</tspan></text><text transform="matrix(.884 -.468 .468 .884 368.171 391.438)"><tspan x="-2.781" y="3" class="B C D F">e</tspan></text><text transform="matrix(.869 -.495 .495 .869 372.349 389.142)"><tspan x="-1.946" y="3" class="B C D F">r</tspan></text><text transform="matrix(.978 -.21 .21 .978 331.449 415.556)"><tspan x="-3.889" y="3" class="B C D F">w</tspan></text><text transform="matrix(.97 -.242 .242 .97 336.642 414.35)"><tspan x="-1.389" y="3" class="B C D F">i</tspan></text><text transform="matrix(.965 -.261 .261 .965 339.638 413.571)"><tspan x="-1.665" y="3" class="B C D F">t</tspan></text><text transform="matrix(.957 -.289 .289 .957 344.211 412.262)"><tspan x="-3.054" y="3" class="B C D F">h</tspan></text><text transform="matrix(.945 -.326 .326 .945 350.079 410.365)"><tspan x="-3.054" y="3" class="B C D F">d</tspan></text><text transform="matrix(.935 -.355 .355 .935 354.82 408.647)"><tspan x="-1.946" y="3" class="B C D F">r</tspan></text><text transform="matrix(.924 -.383 .383 .924 359.256 406.884)"><tspan x="-2.781" y="3" class="B C D F">a</tspan></text><text transform="matrix(.907 -.422 .422 .907 365.441 404.166)"><tspan x="-3.889" y="3" class="B C D F">w</tspan></text><text transform="matrix(.888 -.459 .459 .888 371.467 401.21)"><tspan x="-2.781" y="3" class="B C D F">a</tspan></text><text transform="matrix(.876 -.482 .482 .876 375.201 399.218)"><tspan x="-1.389" y="3" class="B C D F">l</tspan></text><text transform="matrix(.863 -.505 .505 .863 378.851 397.147)"><tspan x="-2.781" y="3" class="B C D F">s</tspan></text><text transform="matrix(.611 -.791 .791 .611 419.955 348.69)"><tspan x="-3.054" y="3" class="B C D E">n</tspan></text><text transform="matrix(.589 -.808 .808 .589 422.649 345.1)"><tspan x="-1.389" y="3" class="B C D E">i</tspan></text><text transform="matrix(.573 -.82 .82 .573 424.43 342.604)"><tspan x="-1.665" y="3" class="B C D E">t</tspan></text><text transform="matrix(.554 -.833 .833 .554 426.49 339.584)"><tspan x="-1.946" y="3" class="B C D E">r</tspan></text><text transform="matrix(.527 -.85 .85 .527 429.228 335.323)"><tspan x="-3.054" y="3" class="B C D E">o</tspan></text><text transform="matrix(.494 -.869 .869 .494 432.36 330.054)"><tspan x="-3.054" y="3" class="B C D E">g</tspan></text><text transform="matrix(.462 -.887 .887 .462 435.177 324.881)"><tspan x="-2.781" y="3" class="B C D E">e</tspan></text><text transform="matrix(.428 -.904 .904 .428 437.804 319.598)"><tspan x="-3.054" y="3" class="B C D E">n</tspan></text><text transform="matrix(.373 -.928 .928 .373 441.633 310.846)"><tspan x="-3.611" y="3" class="B C D E">&amp;</tspan></text><text transform="matrix(.719 -.695 .695 .719 413.478 370.391)"><tspan x="-3.054" y="3" class="B C D E">p</tspan></text><text transform="matrix(.692 -.722 .722 .692 417.828 366.019)"><tspan x="-3.054" y="3" class="B C D E">h</tspan></text><text transform="matrix(.664 -.748 .748 .664 422.015 361.476)"><tspan x="-3.054" y="3" class="B C D E">o</tspan></text><text transform="matrix(.636 -.772 .772 .636 425.837 357.007)"><tspan x="-2.781" y="3" class="B C D E">s</tspan></text><text transform="matrix(.607 -.794 .794 .607 429.5 352.393)"><tspan x="-3.054" y="3" class="B C D E">p</tspan></text><text transform="matrix(.576 -.817 .817 .576 433.15 347.424)"><tspan x="-3.054" y="3" class="B C D E">h</tspan></text><text transform="matrix(.545 -.839 .839 .545 436.617 342.304)"><tspan x="-3.054" y="3" class="B C D E">o</tspan></text><text transform="matrix(.518 -.855 .855 .518 439.293 338.04)"><tspan x="-1.946" y="3" class="B C D E">r</tspan></text><text transform="matrix(.491 -.871 .871 .491 441.84 333.68)"><tspan x="-3.054" y="3" class="B C D E">u</tspan></text><text transform="matrix(.459 -.889 .889 .459 444.644 328.486)"><tspan x="-2.781" y="3" class="B C D E">s</tspan></text><text transform="matrix(.419 -.908 .908 .419 447.721 322.19)"><tspan x="-1.389" y="3" class="B C D E">l</tspan></text><text transform="matrix(.394 -.919 .919 .394 449.544 318.095)"><tspan x="-3.054" y="3" class="B C D E">o</tspan></text><text transform="matrix(.36 -.933 .933 .36 451.77 312.624)"><tspan x="-2.781" y="3" class="B C D E">a</tspan></text><text transform="matrix(.326 -.945 .945 .326 453.79 307.092)"><tspan x="-3.054" y="3" class="B C D E">d</tspan></text><text transform="matrix(.299 -.954 .954 .299 455.189 302.842)"><tspan x="-1.389" y="3" class="B C D E">i</tspan></text><text transform="matrix(.273 -.962 .962 .273 456.475 298.533)"><tspan x="-3.054" y="3" class="B C D E">n</tspan></text><text transform="matrix(.236 -.972 .972 .236 458.048 292.558)"><tspan x="-3.054" y="3" class="B C D E">g</tspan></text><text transform="matrix(.924 -.384 .384 .924 243.805 124.539)"><tspan x="-3.335" y="3" class="B C D E">E</tspan></text><text transform="matrix(.943 -.334 .334 .943 250.591 121.931)"><tspan x="-3.611" y="3" class="B C D E">C</tspan></text><text transform="matrix(.96 -.279 .279 .96 258.028 119.536)"><tspan x="-3.889" y="3" class="B C D E">O</tspan></text><text transform="matrix(.974 -.228 .228 .974 265.047 117.697)"><tspan x="-3.054" y="3" class="B C D E">L</tspan></text><text transform="matrix(.984 -.176 .176 .984 272.168 116.23)"><tspan x="-3.889" y="3" class="B C D E">O</tspan></text><text transform="matrix(.993 -.117 .117 .993 280.161 115.045)"><tspan x="-3.889" y="3" class="B C D E">G</tspan></text><text transform="matrix(.997 -.077 .077 .997 285.705 114.503)"><tspan x="-1.389" y="3" class="B C D E">I</tspan></text><text transform="matrix(.999 -.038 .038 .999 291.013 114.197)"><tspan x="-3.611" y="3" class="B C D E">C</tspan></text><text transform="matrix(1 .016 -.016 1 298.529 114.114)"><tspan x="-3.611" y="3" class="B C D E">A</tspan></text><text transform="matrix(.998 .067 -.067 .998 305.507 114.406)"><tspan x="-3.054" y="3" class="B C D E">L</tspan></text><text transform="matrix(.99 .139 -.139 .99 315.297 115.423)"><tspan x="-3.611" y="3" class="B C D E">C</tspan></text><text transform="matrix(.981 .192 -.192 .981 322.47 116.626)"><tspan x="-3.335" y="3" class="B C D E">E</tspan></text><text transform="matrix(.974 .227 -.227 .974 327.357 117.673)"><tspan x="-1.389" y="3" class="B C D E">I</tspan></text><text transform="matrix(.965 .261 -.261 .965 331.963 118.835)"><tspan x="-3.054" y="3" class="B C D E">L</tspan></text><text transform="matrix(.956 .295 -.295 .956 336.513 120.153)"><tspan x="-1.389" y="3" class="B C D E">I</tspan></text><text transform="matrix(.943 .332 -.332 .943 341.543 121.813)"><tspan x="-3.611" y="3" class="B C D E">N</tspan></text><text transform="matrix(.923 .386 -.386 .923 348.82 124.613)"><tspan x="-3.889" y="3" class="B C D E">G</tspan></text><text transform="matrix(.832 -.555 .555 .832 246.86 176.609)"><tspan x="-3.335" y="3" class="B C D E">S</tspan></text><text transform="matrix(.876 -.483 .483 .876 253.331 172.678)"><tspan x="-3.889" y="3" class="B C D E">O</tspan></text><text transform="matrix(.915 -.403 .403 .915 260.39 169.184)"><tspan x="-3.611" y="3" class="B C D E">C</tspan></text><text transform="matrix(.937 -.348 .348 .937 265.311 167.189)"><tspan x="-1.389" y="3" class="B C D E">I</tspan></text><text transform="matrix(.956 -.292 .292 .956 270.354 165.485)"><tspan x="-3.611" y="3" class="B C D E">A</tspan></text><text transform="matrix(.976 -.217 .217 .976 277.115 163.705)"><tspan x="-3.054" y="3" class="B C D E">L</tspan></text><text transform="matrix(.993 -.114 .114 .993 286.311 162.16)"><tspan x="-3.054" y="3" class="B C D E">F</tspan></text><text transform="matrix(.999 -.034 .034 .999 293.586 161.618)"><tspan x="-3.889" y="3" class="B C D E">O</tspan></text><text transform="matrix(.999 .053 -.053 .999 301.453 161.694)"><tspan x="-3.611" y="3" class="B C D E">U</tspan></text><text transform="matrix(.991 .137 -.137 .991 308.996 162.417)"><tspan x="-3.611" y="3" class="B C D E">N</tspan></text><text transform="matrix(.975 .22 -.22 .975 316.439 163.768)"><tspan x="-3.611" y="3" class="B C D E">D</tspan></text><text transform="matrix(.953 .302 -.302 .953 323.743 165.743)"><tspan x="-3.611" y="3" class="B C D E">A</tspan></text><text transform="matrix(.93 .368 -.368 .93 329.628 167.835)"><tspan x="-3.054" y="3" class="B C D E">T</tspan></text><text transform="matrix(.909 .417 -.417 .909 334.016 169.707)"><tspan x="-1.389" y="3" class="B C D E">I</tspan></text><text transform="matrix(.881 .473 -.473 .881 339.026 172.198)"><tspan x="-3.889" y="3" class="B C D E">O</tspan></text><text transform="matrix(.836 .549 -.549 .836 345.772 176.214)"><tspan x="-3.611" y="3" class="B C D E">N</tspan></text><text transform="matrix(.936 -.352 .352 .936 259.912 149.552)"><tspan x="-3.889" y="3" class="B C D E">w</tspan></text><text transform="matrix(.956 -.293 .293 .956 266.289 147.378)"><tspan x="-2.781" y="3" class="B C D E">a</tspan></text><text transform="matrix(.967 -.254 .254 .967 270.593 146.155)"><tspan x="-1.665" y="3" class="B C D E">t</tspan></text><text transform="matrix(.977 -.213 .213 .977 274.992 145.101)"><tspan x="-2.781" y="3" class="B C D E">e</tspan></text><text transform="matrix(.986 -.169 .169 .986 279.683 144.187)"><tspan x="-1.946" y="3" class="B C D E">r</tspan></text><text transform="matrix(.986 .167 -.167 .986 315.983 145.256)"><tspan x="-1.665" y="3" class="B C D E">f</tspan></text><text transform="matrix(.978 .211 -.211 .978 320.654 146.154)"><tspan x="-3.054" y="3" class="B C D E">o</tspan></text><text transform="matrix(.964 .266 -.266 .964 326.668 147.631)"><tspan x="-3.054" y="3" class="B C D E">o</tspan></text><text transform="matrix(.947 .32 -.32 .947 332.561 149.439)"><tspan x="-3.054" y="3" class="B C D E">d</tspan></text><text transform="matrix(.616 -.788 .788 .616 210.767 185.955)"><tspan x="-2.781" y="3" class="B C D E">e</tspan></text><text transform="matrix(.659 -.752 .752 .659 214.537 181.401)"><tspan x="-3.054" y="3" class="B C D E">n</tspan></text><text transform="matrix(.699 -.715 .715 .699 218.544 177.07)"><tspan x="-2.781" y="3" class="B C D E">e</tspan></text><text transform="matrix(.729 -.684 .684 .729 221.955 173.729)"><tspan x="-1.946" y="3" class="B C D E">r</tspan></text><text transform="matrix(.761 -.649 .649 .761 225.733 170.352)"><tspan x="-3.054" y="3" class="B C D E">g</tspan></text><text transform="matrix(.795 -.606 .606 .795 230.317 166.65)"><tspan x="-2.781" y="3" class="B C D E">y</tspan></text><text transform="matrix(.069 -.998 .998 .069 189.104 244.005)"><tspan x="-3.054" y="3" class="B C D E">n</tspan></text><text transform="matrix(.124 -.992 .992 .124 189.674 238.112)"><tspan x="-2.781" y="3" class="B C D E">e</tspan></text><text transform="matrix(.165 -.986 .986 .165 190.326 233.665)"><tspan x="-1.665" y="3" class="B C D E">t</tspan></text><text transform="matrix(.217 -.976 .976 .217 191.397 228.158)"><tspan x="-3.889" y="3" class="B C D E">w</tspan></text><text transform="matrix(.279 -.96 .96 .279 193.14 221.351)"><tspan x="-3.054" y="3" class="B C D E">o</tspan></text><text transform="matrix(.323 -.946 .946 .323 194.656 216.554)"><tspan x="-1.946" y="3" class="B C D E">r</tspan></text><text transform="matrix(.365 -.931 .931 .365 196.309 212.05)"><tspan x="-2.781" y="3" class="B C D E">k</tspan></text><text transform="matrix(.414 -.91 .91 .414 198.497 206.875)"><tspan x="-2.781" y="3" class="B C D E">s</tspan></text><text transform="matrix(.79 -.613 .613 .79 360.954 337.089)"><tspan x="-3.054" y="3" class="B C D E">p</tspan></text><text transform="matrix(.757 -.654 .654 .757 365.534 333.341)"><tspan x="-2.781" y="3" class="B C D E">e</tspan></text><text transform="matrix(.723 -.69 .69 .723 369.697 329.561)"><tspan x="-2.781" y="3" class="B C D E">a</tspan></text><text transform="matrix(.688 -.726 .726 .688 373.69 325.555)"><tspan x="-2.781" y="3" class="B C D E">c</tspan></text><text transform="matrix(.651 -.759 .759 .651 377.47 321.365)"><tspan x="-2.781" y="3" class="B C D E">e</tspan></text><text transform="matrix(.585 -.811 .811 .585 383.222 314.061)"><tspan x="-3.611" y="3" class="B C D E">&amp;</tspan></text><text transform="matrix(.739 -.674 .674 .739 370.304 342.977)"><tspan x="-1.389" y="3" class="B C D E">j</tspan></text><text transform="matrix(.718 -.696 .696 .718 373.58 339.894)"><tspan x="-3.054" y="3" class="B C D E">u</tspan></text><text transform="matrix(.69 -.724 .724 .69 377.733 335.706)"><tspan x="-2.781" y="3" class="B C D E">s</tspan></text><text transform="matrix(.668 -.744 .744 .668 380.764 332.431)"><tspan x="-1.665" y="3" class="B C D E">t</tspan></text><text transform="matrix(.653 -.758 .758 .653 382.812 330.103)"><tspan x="-1.389" y="3" class="B C D E">i</tspan></text><text transform="matrix(.631 -.776 .776 .631 385.517 326.873)"><tspan x="-2.781" y="3" class="B C D E">c</tspan></text><text transform="matrix(.601 -.799 .799 .601 388.976 322.448)"><tspan x="-2.781" y="3" class="B C D E">e</tspan></text><text transform="matrix(.974 -.225 .225 .974 317.094 366.487)"><tspan x="-2.781" y="3" class="B C D E">v</tspan></text><text transform="matrix(.965 -.264 .264 .965 322.814 365.045)"><tspan x="-3.054" y="3" class="B C D E">o</tspan></text><text transform="matrix(.956 -.292 .292 .956 327.101 363.807)"><tspan x="-1.389" y="3" class="B C D E">i</tspan></text><text transform="matrix(.948 -.319 .319 .948 331.131 362.515)"><tspan x="-2.781" y="3" class="B C D E">c</tspan></text><text transform="matrix(.935 -.355 .355 .935 336.416 360.624)"><tspan x="-2.781" y="3" class="B C D E">e</tspan></text><text transform="matrix(.951 .31 -.31 .951 253.405 360.403)"><tspan x="-2.781" y="3" class="B C D E">e</tspan></text><text transform="matrix(.962 .273 -.273 .962 259.051 362.124)"><tspan x="-3.054" y="3" class="B C D E">q</tspan></text><text transform="matrix(.972 .233 -.233 .972 265.014 363.681)"><tspan x="-3.054" y="3" class="B C D E">u</tspan></text><text transform="matrix(.979 .204 -.204 .979 269.396 364.662)"><tspan x="-1.389" y="3" class="B C D E">i</tspan></text><text transform="matrix(.983 .183 -.183 .983 272.418 365.26)"><tspan x="-1.665" y="3" class="B C D E">t</tspan></text><text transform="matrix(.988 .153 -.153 .988 276.85 366.016)"><tspan x="-2.781" y="3" class="B C D E">y</tspan></text><text transform="matrix(.647 .763 -.763 .647 201.726 322.157)"><tspan x="-2.781" y="3" class="B C D E">e</tspan></text><text transform="matrix(.676 .737 -.737 .676 205.622 326.573)"><tspan x="-3.054" y="3" class="B C D E">q</tspan></text><text transform="matrix(.706 .708 -.708 .706 209.895 331.037)"><tspan x="-3.054" y="3" class="B C D E">u</tspan></text><text transform="matrix(.733 .68 -.68 .733 214.13 335.123)"><tspan x="-2.781" y="3" class="B C D E">a</tspan></text><text transform="matrix(.752 .659 -.659 .752 217.249 337.933)"><tspan x="-1.389" y="3" class="B C D E">l</tspan></text><text transform="matrix(.765 .645 -.645 .765 219.388 339.771)"><tspan x="-1.389" y="3" class="B C D E">i</tspan></text><text transform="matrix(.778 .628 -.628 .778 221.769 341.737)"><tspan x="-1.665" y="3" class="B C D E">t</tspan></text><text transform="matrix(.797 .604 -.604 .797 225.31 344.509)"><tspan x="-2.781" y="3" class="B C D E">y</tspan></text><text transform="matrix(.993 -.122 .122 .993 307.965 358.327)"><tspan x="-3.054" y="3" class="B C D E">p</tspan></text><text transform="matrix(.984 -.177 .177 .984 314.077 357.403)"><tspan x="-3.054" y="3" class="B C D E">o</tspan></text><text transform="matrix(.976 -.216 .216 .976 318.5 356.518)"><tspan x="-1.389" y="3" class="B C D E">l</tspan></text><text transform="matrix(.97 -.242 .242 .97 321.259 355.871)"><tspan x="-1.389" y="3" class="B C D E">i</tspan></text><text transform="matrix(.964 -.266 .266 .964 324.227 355.095)"><tspan x="-1.665" y="3" class="B C D E">t</tspan></text><text transform="matrix(.956 -.293 .293 .956 327.226 354.22)"><tspan x="-1.389" y="3" class="B C D E">i</tspan></text><text transform="matrix(.944 -.329 .329 .944 331.243 352.908)"><tspan x="-2.781" y="3" class="B C D E">c</tspan></text><text transform="matrix(.927 -.376 .376 .927 336.514 350.922)"><tspan x="-2.781" y="3" class="B C D E">a</tspan></text><text transform="matrix(.912 -.411 .411 .912 340.39 349.265)"><tspan x="-1.389" y="3" class="B C D E">l</tspan></text><text transform="matrix(.937 .349 -.349 .937 257.561 351.844)"><tspan x="-2.781" y="3" class="B C D E">s</tspan></text><text transform="matrix(.954 .299 -.299 .954 263.179 353.767)"><tspan x="-3.054" y="3" class="B C D E">o</tspan></text><text transform="matrix(.968 .249 -.249 .968 268.843 355.381)"><tspan x="-2.781" y="3" class="B C D E">c</tspan></text><text transform="matrix(.977 .212 -.212 .977 272.982 356.363)"><tspan x="-1.389" y="3" class="B C D E">i</tspan></text><text transform="matrix(.985 .175 -.175 .985 277.12 357.182)"><tspan x="-2.781" y="3" class="B C D E">a</tspan></text><text transform="matrix(.99 .138 -.138 .99 281.297 357.844)"><tspan x="-1.389" y="3" class="B C D E">l</tspan></text><text transform="matrix(.618 .786 -.786 .618 210.823 317.244)"><tspan x="-3.054" y="3" class="B C D E">g</tspan></text><text transform="matrix(.659 .752 -.752 .659 214.601 321.792)"><tspan x="-2.781" y="3" class="B C D E">e</tspan></text><text transform="matrix(.697 .717 -.717 .697 218.61 326.135)"><tspan x="-3.054" y="3" class="B C D E">n</tspan></text><text transform="matrix(.735 .678 -.678 .735 223.037 330.447)"><tspan x="-3.054" y="3" class="B C D E">d</tspan></text><text transform="matrix(.77 .638 -.638 .77 227.494 334.34)"><tspan x="-2.781" y="3" class="B C D E">e</tspan></text><text transform="matrix(.797 .604 -.604 .797 231.264 337.328)"><tspan x="-1.946" y="3" class="B C D E">r</tspan></text><text transform="matrix(.113 .994 -.994 .113 188.932 262.528)"><tspan x="-3.054" y="3" class="B C D E">h</tspan></text><text transform="matrix(.168 .986 -.986 .168 189.804 268.675)"><tspan x="-3.054" y="3" class="B C D E">o</tspan></text><text transform="matrix(.222 .975 -.975 .222 191.016 274.77)"><tspan x="-3.054" y="3" class="B C D E">u</tspan></text><text transform="matrix(.272 .962 -.962 .272 192.469 280.473)"><tspan x="-2.781" y="3" class="B C D E">s</tspan></text><text transform="matrix(.308 .951 -.951 .308 193.699 284.532)"><tspan x="-1.389" y="3" class="B C D E">i</tspan></text><text transform="matrix(.346 .938 -.938 .346 195.177 288.801)"><tspan x="-3.054" y="3" class="B C D E">n</tspan></text><text transform="matrix(.398 .917 -.917 .398 197.485 294.556)"><tspan x="-3.054" y="3" class="B C D E">g</tspan></text><text transform="matrix(.447 .894 -.894 .447 393.876 203.925)"><tspan x="-2.781" y="3" class="B C D E">e</tspan></text><text transform="matrix(.397 .918 -.918 .397 396.368 209.276)"><tspan x="-3.054" y="3" class="B C D E">d</tspan></text><text transform="matrix(.343 .939 -.939 .343 398.655 215.014)"><tspan x="-3.054" y="3" class="B C D E">u</tspan></text><text transform="matrix(.291 .957 -.957 .291 400.531 220.614)"><tspan x="-2.781" y="3" class="B C D E">c</tspan></text><text transform="matrix(.241 .97 -.97 .241 402.029 226.044)"><tspan x="-2.781" y="3" class="B C D E">a</tspan></text><text transform="matrix(.201 .98 -.98 .201 403.023 230.415)"><tspan x="-1.665" y="3" class="B C D E">t</tspan></text><text transform="matrix(.173 .985 -.985 .173 403.601 233.46)"><tspan x="-1.389" y="3" class="B C D E">i</tspan></text><text transform="matrix(.132 .991 -.991 .132 404.285 237.886)"><tspan x="-3.054" y="3" class="B C D E">o</tspan></text><text transform="matrix(.074 .997 -.997 .074 404.924 244.046)"><tspan x="-3.054" y="3" class="B C D E">n</tspan></text><text transform="matrix(.786 .619 -.619 .786 364.162 167.139)"><tspan x="-3.054" y="3" class="B C D E">h</tspan></text><text transform="matrix(.75 .661 -.661 .75 368.705 170.926)"><tspan x="-2.781" y="3" class="B C D E">e</tspan></text><text transform="matrix(.715 .699 -.699 .715 372.812 174.737)"><tspan x="-2.781" y="3" class="B C D E">a</tspan></text><text transform="matrix(.687 .726 -.726 .687 375.769 177.744)"><tspan x="-1.389" y="3" class="B C D E">l</tspan></text><text transform="matrix(.667 .745 -.745 .667 377.86 180.016)"><tspan x="-1.665" y="3" class="B C D E">t</tspan></text><text transform="matrix(.633 .774 -.774 .633 380.971 183.653)"><tspan x="-3.054" y="3" class="B C D E">h</tspan></text><text transform="matrix(.378 -.926 .926 .378 394.549 293.811)"><tspan x="-1.389" y="3" class="B C D E">i</tspan></text><text transform="matrix(.34 -.94 .94 .34 396.161 289.621)"><tspan x="-3.054" y="3" class="B C D E">n</tspan></text><text transform="matrix(.291 -.957 .957 .291 398.035 283.99)"><tspan x="-2.781" y="3" class="B C D E">c</tspan></text><text transform="matrix(.24 -.971 .971 .24 399.604 278.292)"><tspan x="-3.054" y="3" class="B C D E">o</tspan></text><text transform="matrix(.174 -.985 .985 .174 401.185 270.83)"><tspan x="-4.446" y="3" class="B C D E">m</tspan></text><text transform="matrix(.109 -.994 .994 .109 402.221 263.587)"><tspan x="-2.781" y="3" class="B C D E">e</tspan></text><text transform="matrix(.31 -.951 .951 .31 405.869 294.416)"><tspan x="-3.611" y="3" class="B C D E">&amp;</tspan></text><text transform="matrix(.244 -.97 .97 .244 408.738 284.465)"><tspan x="-3.889" y="3" class="B C D E">w</tspan></text><text transform="matrix(.198 -.98 .98 .198 410.29 277.616)"><tspan x="-3.054" y="3" class="B C D E">o</tspan></text><text transform="matrix(.164 -.986 .986 .164 411.204 272.657)"><tspan x="-1.946" y="3" class="B C D E">r</tspan></text><text transform="matrix(.132 -.991 .991 .132 411.915 267.928)"><tspan x="-2.781" y="3" class="B C D E">k</tspan></text><path d="M48.803 58.002H38.436V47.635h10.367z" fill="#ff9e00"/><text><tspan x="53.152" y="56.41" class="B F H">Beyond the boundar</tspan><tspan x="140.651" y="56.41" class="B C F H">y</tspan></text><path d="M48.803 73.646H38.436V63.279h10.367z" fill="#bcc5cd"/><text><tspan x="53.151" y="71.054" class="B F H">Boundary not quantifie</tspan><tspan x="151.646" y="71.054" class="B C F H">d</tspan></text></svg>